<svg xmlns="http://www.w3.org/2000/svg" xmlns:xlink="http://www.w3.org/1999/xlink" width="311.117" height="226.888" viewBox="0 0 311.117 226.888">
  <defs>
    <clipPath id="clip-path">
      <path id="Caminho_136" data-name="Caminho 136" d="M362.827,169.395c-.373-14.883-8.833-27.8-17.4-39.33C336.486,118.028,326.9,105.7,325.6,90.225c-.711-8.45.285-16.993-1.2-25.389a48,48,0,0,0-6.821-17.258c-6.87-10.8-17.464-18.892-29.207-23.735-13.4-5.525-28.206-6.158-42.358-3.538-15.634,2.89-30.424,9.613-43.825,18.033-12.6,7.92-24.206,17.548-37.784,23.863a57.456,57.456,0,0,1-20.924,5.643c-7.881.442-15.653-1.192-23.318-2.812C112.592,63.427,104.878,61.71,97.1,62A35.179,35.179,0,0,0,78.605,67.8c-10.182,6.87-16.223,18.529-18.912,30.247-3.484,15.168-.932,30.8,1.551,45.92.766,4.647,2.213,9.265,2.2,13.985-.039,12.469-2.743,24.815-.707,37.176,2.35,14.265,8.833,27.857,20.492,36.778,11.384,8.72,25.841,12.488,39.938,13.5,14.387,1.026,28.824-.721,42.834-3.985,28.741-6.693,55.641-19.275,83.7-28.152,14.064-4.446,28.5-8.008,43.226-9.225,15.879-1.31,32.622,1.354,47.858-4.416,6.129-2.316,11.895-5.888,15.977-11.1A29.648,29.648,0,0,0,362.827,169.395Z" transform="translate(-57.992 -18.815)" fill="none"/>
    </clipPath>
  </defs>
  <g id="_3664033" data-name="3664033" transform="translate(-174.992 -111.815)">
    <g id="OBJECTS" transform="translate(117 93)">
      <path id="Caminho_134" data-name="Caminho 134" d="M362.827,169.395c-.373-14.883-8.833-27.8-17.4-39.33C336.486,118.028,326.9,105.7,325.6,90.225c-.711-8.45.285-16.993-1.2-25.389a48,48,0,0,0-6.821-17.258c-6.87-10.8-17.464-18.892-29.207-23.735-13.4-5.525-28.206-6.158-42.358-3.538-15.634,2.89-30.424,9.613-43.825,18.033-12.6,7.92-24.206,17.548-37.784,23.863a57.456,57.456,0,0,1-20.924,5.643c-7.881.442-15.653-1.192-23.318-2.812C112.592,63.427,104.878,61.71,97.1,62A35.179,35.179,0,0,0,78.605,67.8c-10.182,6.87-16.223,18.529-18.912,30.247-3.484,15.168-.932,30.8,1.551,45.92.766,4.647,2.213,9.265,2.2,13.985-.039,12.469-2.743,24.815-.707,37.176,2.35,14.265,8.833,27.857,20.492,36.778,11.384,8.72,25.841,12.488,39.938,13.5,14.387,1.026,28.824-.721,42.834-3.985,28.741-6.693,55.641-19.275,83.7-28.152,14.064-4.446,28.5-8.008,43.226-9.225,15.879-1.31,32.622,1.354,47.858-4.416,6.129-2.316,11.895-5.888,15.977-11.1A29.648,29.648,0,0,0,362.827,169.395Z" transform="translate(0 0)" fill="#f1772e"/>
      <g id="Grupo_32" data-name="Grupo 32" transform="translate(57.992 18.815)" clip-path="url(#clip-path)">
        <path id="Caminho_305" data-name="Caminho 305" d="M0,0H147.467V143.026H0Z" transform="translate(161.627 -4.168)" fill="#fff"/>
        <rect id="Retângulo_73" data-name="Retângulo 73" width="140.288" height="136.063" transform="translate(168.806 -4.168)" fill="#be522b"/>
        <rect id="Retângulo_74" data-name="Retângulo 74" width="4.377" height="139.213" transform="translate(221.876 -4.168)" fill="#fff"/>
        <rect id="Retângulo_75" data-name="Retângulo 75" width="4.377" height="139.213" transform="translate(275.795 -4.168)" fill="#fff"/>
        <path id="Caminho_301" data-name="Caminho 301" d="M0,0H318.286V95.069H0Z" transform="translate(-8.574 138.857)" fill="#ffe5d6"/>
        <path id="Caminho_135" data-name="Caminho 135" d="M332.238,382.016c-7.748-8-18.156-12.758-28.9-15.119-12.459-2.728-25.281-2.193-37.882-.932-6.953.7-13.882,1.609-20.835,2.316q-10.3,1.045-20.683,1.32c-12.758.344-25.551-.128-38.275-1.055-2.179-.191-4.367-.353-6.541-.52-15.055-1.266-30.056-3.091-45.047-4.907-.491-.059-2.615,4.588-4.514,6.325-1.717,1.57-3.435,3.194-5.059,4.863s-3.234,3.376-4.809,5.108-3.057,3.435-4.544,5.157c-1.3,1.516-2.557,3.062-3.926,4.524,3.175.368,6.33.952,9.466,1.575,4.461.888,8.916,1.767,13.4,2.507,4.75.785,9.52,1.394,14.3,1.914,4.662.491,9.323.981,14.01,1.32q4.907.334,9.814.628h.78c17.327.294,34.678.515,52.015-.466,8.528-.491,17.042-1.261,25.517-2.454,8.381-1.187,16.684-2.822,24.987-4.49,16.576-3.332,33.26-6.87,50.238-7.047q3.131-.039,6.252.083a.378.378,0,0,0,.235-.653Z" transform="translate(-85.101 -194.167)" fill="#955138"/>
      </g>
      <path id="Caminho_137" data-name="Caminho 137" d="M102.66,302.35a5.628,5.628,0,0,0-.491.4.358.358,0,0,0,0,.491c6.045,5.457,14.77,4.99,22.3,4.088,2.3-.275,4.588-.584,6.87-.756a24.361,24.361,0,0,1,6.816.157c2.144.447,4.034,1.644,6.163,2.149a21.874,21.874,0,0,0,6.345.427c4.367-.26,8.636-1.3,12.935-2.036a46.317,46.317,0,0,1,6.732-.741,40.268,40.268,0,0,1,6.87.52c2.154.314,4.3.682,6.477.873a31.746,31.746,0,0,0,6.791-.162c4.519-.574,8.946-1.683,13.485-2.154a78.879,78.879,0,0,1,13.911-.211c2.208.162,4.441.594,6.659.574a6.633,6.633,0,0,0,4.809-1.771,4.24,4.24,0,0,0,.947-1.5c.054-.123.1-.24.147-.368Z" transform="translate(-22.45 -144.393)" fill="#955138"/>
      <path id="Caminho_303" data-name="Caminho 303" d="M0,0H126.44V31.965H0Z" transform="translate(81.059 121.595)" fill="#be522b"/>
      <path id="Caminho_304" data-name="Caminho 304" d="M0,0H120.566V26.743H0Z" transform="translate(83.998 124.206)" fill="#eda57a"/>
      <path id="Caminho_138" data-name="Caminho 138" d="M176.9,271.324h5.3a11.355,11.355,0,0,0,7.051-8.141,11.644,11.644,0,0,0-1.428-8.013H171.2a11.59,11.59,0,0,0-1.408,8.013C170.487,267.158,173.8,270.132,176.9,271.324Z" transform="translate(-56.841 -120.375)" fill="#ea7449"/>
      <path id="Caminho_139" data-name="Caminho 139" d="M177.158,270.127c.731-.491,1.541-.878,2.262-1.394a4.255,4.255,0,0,0,1.06-1.016,8.763,8.763,0,0,0,.643-1.173,4.19,4.19,0,0,1,1.551-1.776,17.672,17.672,0,0,1,2.09-.981,3.857,3.857,0,0,0,1.845-1.5c.451-.785.608-1.7,1.109-2.453a4.082,4.082,0,0,1,1.418-1.3,11.409,11.409,0,0,0-1.315-3.337H171.206a11.591,11.591,0,0,0-1.408,8,11.285,11.285,0,0,0,6.34,7.8,6.476,6.476,0,0,1,1.021-.869Z" transform="translate(-56.843 -120.39)" fill="none"/>
      <path id="Caminho_140" data-name="Caminho 140" d="M194.48,263.25c-.491.761-.658,1.678-1.109,2.454a3.857,3.857,0,0,1-1.845,1.5,17.665,17.665,0,0,0-2.09.981,4.191,4.191,0,0,0-1.551,1.776,8.76,8.76,0,0,1-.643,1.173,4.255,4.255,0,0,1-1.06,1.016c-.721.515-1.531.893-2.262,1.394a6.471,6.471,0,0,0-1.04.869c.26.128.52.24.78.344h5.3a11.355,11.355,0,0,0,7.051-8.141,11.7,11.7,0,0,0-.113-4.676A4.083,4.083,0,0,0,194.48,263.25Z" transform="translate(-63.605 -123.823)" fill="#be522b"/>
      <rect id="Retângulo_79" data-name="Retângulo 79" width="24.099" height="4.47" transform="translate(145.346 146.479)" fill="#ea7449"/>
      <path id="Caminho_141" data-name="Caminho 141" d="M282.492,279a2.254,2.254,0,1,0,0,4.47h12.2V279Z" transform="translate(-113.042 -132.511)" fill="#be522b"/>
      <rect id="Retângulo_80" data-name="Retângulo 80" width="24.099" height="3.567" transform="translate(141.897 142.907)" fill="#be522b"/>
      <path id="Caminho_142" data-name="Caminho 142" d="M275.457,271.7c-1.4,0-2.537.8-2.537,1.786s1.138,1.786,2.537,1.786H287.68V271.7Z" transform="translate(-109.462 -128.793)" fill="#83371b"/>
      <rect id="Retângulo_81" data-name="Retângulo 81" width="2.704" height="24.972" transform="matrix(0.881, -0.473, 0.473, 0.881, 84.244, 128.919)" fill="#be522b"/>
      <rect id="Retângulo_82" data-name="Retângulo 82" width="4.073" height="18.946" transform="translate(90.885 135.563) rotate(-35.79)" fill="#ea7449"/>
      <rect id="Retângulo_83" data-name="Retângulo 83" width="90.324" height="55.072" rx="1.2" transform="translate(108.48 61.303)" fill="#7c290b"/>
      <path id="Caminho_302" data-name="Caminho 302" d="M1.2,0H79.393a1.2,1.2,0,0,1,1.2,1.2V48.8a1.2,1.2,0,0,1-1.2,1.2H1.2A1.2,1.2,0,0,1,0,48.8V1.2A1.2,1.2,0,0,1,1.2,0Z" transform="translate(113.342 63.835)" fill="#fff5ef"/>
      <path id="Caminho_143" data-name="Caminho 143" d="M259.721,187.153c-.2-.123-.383-.27-.579-.388l-.653-.4q-.628-.4-1.237-.824c-.4-.275-.785-.559-1.168-.854a3.017,3.017,0,0,1-.447-.422c-.275-.324-.177-.869-.653-.849-7.738.245-15.016.491-22.754.417-3.882-.034-7.753-.172-11.63-.353q-2.846-.137-5.7-.231a29.934,29.934,0,0,0-5.349.137c-2.944.432-6.207,2.277-6.8,5.4-.088.432-.083.422.25.412,7.483-.339,15.025-.859,22.5-.2,3.734.334,7.449.8,11.183,1.109a66.6,66.6,0,0,0,11.016.078,59.459,59.459,0,0,0,12-2.287C260.113,187.786,260.005,187.32,259.721,187.153Z" transform="translate(-73.705 -83.713)" fill="#ea7449"/>
      <circle id="Elipse_16" data-name="Elipse 16" cx="11.497" cy="11.497" r="11.497" transform="translate(164.307 80.19)" fill="#be522b"/>
      <path id="Caminho_144" data-name="Caminho 144" d="M212.38,171.548a7.429,7.429,0,0,1-2.758-2.454c0-.329-.437-.451-.692-.54l-1.256-.427-2.532-.864a.132.132,0,0,0-.172.128,15.776,15.776,0,0,0,1.158,4.691,9.916,9.916,0,0,0,.491,1.035c.167.285.491.893.849.923s.7-.54,1.055-.677.81-.314,1.217-.491c.888-.363,1.776-.736,2.65-1.134a.113.113,0,0,0-.01-.191Z" transform="translate(-74.855 -75.601)" fill="#ffc7ae"/>
      <path id="Caminho_145" data-name="Caminho 145" d="M207.39,169.534a.633.633,0,0,0-.491.167c-.27.294.088.667.275.888a1.84,1.84,0,0,0,.957.584c.4.108.8.167,1.192.285a5.545,5.545,0,0,0,1.256.285,1.629,1.629,0,0,0,1.016-.245,8.421,8.421,0,0,1-1.07-1.256c0-.329-.437-.451-.692-.54l-.653-.221a10.8,10.8,0,0,1-1.129.069C207.881,169.554,207.63,169.539,207.39,169.534Z" transform="translate(-75.788 -76.733)" fill="#fcad97"/>
      <path id="Caminho_146" data-name="Caminho 146" d="M264.1,129.328a37.916,37.916,0,0,0-7.753,3.293,56.385,56.385,0,0,1-8.313,3.141c-1.408.432-2.826.839-4.235,1.271a20.9,20.9,0,0,0-3.926,1.551,14.765,14.765,0,0,0-3.248,2.5c-1.045,1.026-2.027,2.12-3.028,3.19q-3.224,3.435-6.448,6.919c-.25.27-.491.54-.741.815a6.472,6.472,0,0,0-1.379.039c-.633.088-1.246.25-1.87.368a7.294,7.294,0,0,1-1.035.142,6.148,6.148,0,0,1-1.04-.039,2.08,2.08,0,0,0-.3-.653,3.955,3.955,0,0,0-1.384-1.143,2.493,2.493,0,0,0-1.742-.309,6.841,6.841,0,0,0-1.659.785,9.391,9.391,0,0,1-1.8.721c-.628.186-1.266.329-1.909.456a5.564,5.564,0,0,0-1.835.545,2.669,2.669,0,0,0-1.379,3.023c.491,1.506,2.292,2.228,3.778,2.625a18.871,18.871,0,0,0,5.805.226,24.535,24.535,0,0,1,3.18,0c1.05.079,2.085.226,3.131.353a23.491,23.491,0,0,0,2.817.206,8.431,8.431,0,0,0,4.313-.378,8.558,8.558,0,0,0,3.8-2.743,15.212,15.212,0,0,0,2.144-4.534,19.856,19.856,0,0,1,.981-2.395,14.858,14.858,0,0,1,1.276-2.017,14.284,14.284,0,0,0,2.385-3.989,2.4,2.4,0,0,0,.1-.653.981.981,0,0,1,.844-.574c.417-.059.844-.054,1.261-.1a13.321,13.321,0,0,0,2.316-.491,13.464,13.464,0,0,0,4.215-2.159,12.569,12.569,0,0,0,1.752-1.595,13.332,13.332,0,0,1,1.31-1.374h.029l.069-.064.2-.147a2.508,2.508,0,0,1,.981-.432,4.671,4.671,0,0,1,1.281.034,3.224,3.224,0,0,0,1.227-.049,2.036,2.036,0,0,0,.918-.638,10.766,10.766,0,0,0,.682-.947,11.3,11.3,0,0,1,.79-1.05c.211-.25.427-.491.653-.736h.025a.349.349,0,0,0,.108-.118c.108-.113.216-.231.329-.343l1.138-.829.927-.677c.113-.083.309-.177.363-.3a1.1,1.1,0,0,0,.029-.255l.029-.29a.137.137,0,0,0-.157-.172Z" transform="translate(-76.89 -56.283)" fill="#eda57a"/>
      <path id="Caminho_147" data-name="Caminho 147" d="M212.38,171.548a7.429,7.429,0,0,1-2.758-2.454c0-.329-.437-.451-.692-.54l-1.256-.427-2.532-.864a.132.132,0,0,0-.172.128,15.776,15.776,0,0,0,1.158,4.691,9.916,9.916,0,0,0,.491,1.035c.167.285.491.893.849.923s.7-.54,1.055-.677.81-.314,1.217-.491c.888-.363,1.776-.736,2.65-1.134a.113.113,0,0,0-.01-.191Z" transform="translate(-74.855 -75.601)" fill="#eda57a"/>
      <path id="Caminho_148" data-name="Caminho 148" d="M221.25,175.915a6.963,6.963,0,0,1,.373-1.521,3.218,3.218,0,0,1-.53-.044,2.081,2.081,0,0,0-.3-.653,3.955,3.955,0,0,0-1.384-1.143,2.493,2.493,0,0,0-1.742-.309,6.84,6.84,0,0,0-1.659.785,9.394,9.394,0,0,1-1.8.721c-.628.186-1.266.329-1.909.456a5.564,5.564,0,0,0-1.84.545,2.669,2.669,0,0,0-1.379,3.023c.491,1.506,2.292,2.228,3.778,2.625a18.871,18.871,0,0,0,5.805.226c.78-.044,1.556-.069,2.336-.049a15.32,15.32,0,0,1-.034-2.684C221.02,177.23,221.128,176.573,221.25,175.915Zm-5.113,2.674a3.239,3.239,0,0,1-1.57.687,4.638,4.638,0,0,1-2.017-.255c-.324-.1-.643-.231-.952-.363a8.743,8.743,0,0,1-.869-.4,1.374,1.374,0,0,1-.53-.491l-.157-.265a1.575,1.575,0,0,1-.142-.491.908.908,0,0,1,0-.363,2.576,2.576,0,0,1,.981-1.261,4.784,4.784,0,0,1,3.985-.785,2.453,2.453,0,0,1,1.511.952,3.607,3.607,0,0,1,.437,1.595,1.683,1.683,0,0,1-.692,1.443Z" transform="translate(-76.89 -78.119)" fill="#be522b"/>
      <path id="Caminho_149" data-name="Caminho 149" d="M209.1,162.264a2.831,2.831,0,0,0-.3-.594c-.25-.432-.491-.869-.741-1.305-.491-.849-.952-1.722-1.472-2.547a4.578,4.578,0,0,0-.795-.981,3.391,3.391,0,0,0-.981-.608,3.523,3.523,0,0,0-2.267-.152,2.6,2.6,0,0,0-1.021.54,2.012,2.012,0,0,0-.589,1.05,8.033,8.033,0,0,0-.152,1.237,5.089,5.089,0,0,0,.049,1.251,2.223,2.223,0,0,0,.525,1.065,5.247,5.247,0,0,0,1.011.79l.52.348a4.205,4.205,0,0,0,5.241,1.192,1.909,1.909,0,0,0,.908-.746A.751.751,0,0,0,209.1,162.264Z" transform="translate(-72.713 -69.846)" fill="#eda57a"/>
      <path id="Caminho_150" data-name="Caminho 150" d="M214.936,161.576a1.511,1.511,0,0,1-.456-.093,8.175,8.175,0,0,1-1.644-.9.059.059,0,0,0-.079,0c-.049,0-.1.039-.069.088a18.268,18.268,0,0,1,1.011,1.57c.064.108.167.378.182.4.054.1.245.078.339.049a.765.765,0,0,0,.319-.206c.088-.088.162-.186.245-.28a1.164,1.164,0,0,1,.132-.137c.039-.034.093-.059.132-.1a.211.211,0,0,0,.137-.186.235.235,0,0,0-.25-.211Z" transform="translate(-78.781 -72.195)" fill="#eda57a"/>
      <path id="Caminho_151" data-name="Caminho 151" d="M203.563,157.249a1.232,1.232,0,0,0-.186-.564,3.881,3.881,0,0,0-3.955-1.026,6.222,6.222,0,0,0-2.262,1.222,4.112,4.112,0,0,0-1.408,1.9,2.733,2.733,0,0,0,.442,2.341,6.87,6.87,0,0,0,2.007,1.737,3.012,3.012,0,0,0,2.321.658,1.428,1.428,0,0,0,.869-.6,2.9,2.9,0,0,0,.324-1.212,6.68,6.68,0,0,1,.643-2.4,7.154,7.154,0,0,1,.8-.981,1.472,1.472,0,0,0,.407-1.07Z" transform="translate(-70.112 -69.606)" fill="#be522b"/>
      <path id="Caminho_152" data-name="Caminho 152" d="M189.918,158.7a.329.329,0,0,0-.108-.093l-.093-.074s-.1-.1-.157-.1a.81.81,0,0,1-.618-.53,4.417,4.417,0,0,0-.4-.844,1.384,1.384,0,0,0-1.443-.54,1.2,1.2,0,0,0-.653.432,3.194,3.194,0,0,0-.334.824.79.79,0,0,1-.329.491,3.862,3.862,0,0,1-1.192.221,2.91,2.91,0,0,0-1.1.348,1.408,1.408,0,0,0-.628.785,1.242,1.242,0,0,0,.206,1.011c.025.039.064.069.074.113a1.335,1.335,0,0,1,0,.28,3.15,3.15,0,0,0,.623,1.673,6.9,6.9,0,0,0,.589.667c.191.206.412.422.378.692a1.183,1.183,0,0,1-.142.343,3.927,3.927,0,0,0-.236.555,1.1,1.1,0,0,0,.137,1.026.824.824,0,0,0,.981.177h.049a.718.718,0,0,1,.162.118,1.824,1.824,0,0,0,.221.162,2.061,2.061,0,0,0,.559.226,3.322,3.322,0,0,0,1.246,0c.613-.088.662-.981.687-1.084a1.158,1.158,0,0,0,.025-.564,2.111,2.111,0,0,1-.083-.653c.054-.339.412-.4.687-.491a.844.844,0,0,0,.648-.535,1.246,1.246,0,0,0-.388-1.026c-.491-.579-1.168-1.119-1.173-1.963a1.511,1.511,0,0,1,.53-1.168,1.83,1.83,0,0,1,1.217-.373c.029,0,.039,0,.054-.034a.079.079,0,0,0,.01-.069Z" transform="translate(-63.577 -70.109)" fill="#be522b"/>
      <path id="Caminho_153" data-name="Caminho 153" d="M208.03,171.563a10.262,10.262,0,0,0-2.625-1.281,5.981,5.981,0,0,1-1.271-.682,4.907,4.907,0,0,1-1.08-1.271,4.765,4.765,0,0,0-1.183-1.246,6.608,6.608,0,0,0-1.472-.761,7.86,7.86,0,0,0-.77-.26,3.189,3.189,0,0,0-.927-.172,1.32,1.32,0,0,0-1.183.888,2.856,2.856,0,0,0,0,1.742,5.285,5.285,0,0,0,.692,1.5,9.324,9.324,0,0,0,2.454,2.454c1.035.741,2.135,1.384,3.141,2.169a8.193,8.193,0,0,0,1.433.981,7.287,7.287,0,0,0,2.252.412c.491,0,.751.039,1.06-.245a1.919,1.919,0,0,0,.633-1.232A3.219,3.219,0,0,0,208.03,171.563Z" transform="translate(-70.991 -74.905)" fill="#eda57a"/>
      <path id="Caminho_154" data-name="Caminho 154" d="M259.393,152.3a15.7,15.7,0,0,1-1.511-1.4,17.591,17.591,0,0,1-1.188-1.369c-.226-.3-.447-.6-.658-.918a15.7,15.7,0,0,0-2.885,2.292c-1.045,1.026-2.027,2.12-3.028,3.19q-3.224,3.435-6.448,6.919c-.25.27-.491.54-.741.815a6.47,6.47,0,0,0-1.379.039h-.049a5.741,5.741,0,0,0,.088,1.9c.113.7.216,1.4.368,2.1s.329,1.34.535,2c.132.417.28.829.432,1.237.466.039.937.064,1.4.064a8.43,8.43,0,0,0,4.313-.378,8.558,8.558,0,0,0,3.8-2.743,15.212,15.212,0,0,0,2.144-4.534,19.853,19.853,0,0,1,.981-2.395,14.852,14.852,0,0,1,1.276-2.017,14.284,14.284,0,0,0,2.385-3.989,2.406,2.406,0,0,0,.1-.653A.768.768,0,0,1,259.393,152.3Z" transform="translate(-93.442 -66.104)" fill="#be522b"/>
      <path id="Caminho_155" data-name="Caminho 155" d="M343.335,364.608a4.7,4.7,0,0,0-.314-.981c-.054-.128-.118-.255-.182-.378a9.387,9.387,0,0,0-3.435-4.063c-1.2-.893-2.5-1.659-3.759-2.454L331.3,353.98l-17.445-11.051-4.848-3.067-2.483-1.565-.255-.167c-.535-.52-1.03-1.084-1.511-1.654a2.121,2.121,0,0,0-.368-.437c-.167-.118-.344-.054-.53-.029a12.579,12.579,0,0,1-1.354.1c-.491,0-.937,0-1.4-.029a2.652,2.652,0,0,1-.358-.054c-9.137-2.454-18.819-2.233-28.162-1.241-10.486,1.109-20.845,3.141-31.351,4.107-10.8.981-21.65,1.217-32.49,1.3-10.957.079-21.915.1-32.877.147-11.036.049-22.082.049-33.118.177-1.369,0-2.733.034-4.1.069a.211.211,0,0,0-.2.132.207.207,0,0,0-.064.034c-2.493,2.184-5.177,4.151-7.591,6.428a24.645,24.645,0,0,0-3.16,3.548,18.276,18.276,0,0,0-1.03,1.634,183.462,183.462,0,0,0-13.97,16.125l-.054.044a.314.314,0,0,0-.083.137c-.584.756-1.158,1.516-1.732,2.282-.157.211.1.491.334.432,14.471-4.259,29.673-3.405,44.531-2.336,7.459.54,14.913,1.08,22.4,1.241,7.621.167,15.246.049,22.862-.265,15.212-.628,30.38-2,45.542-3.347s30.286-2.694,45.469-3.219c1.374-.049,2.743-.083,4.117-.118a9.145,9.145,0,0,0,.981.069.8.8,0,0,0,.373-.1,277.269,277.269,0,0,1,39.546,1.742q3.018.373,6.026.82C343.389,365.938,343.369,364.775,343.335,364.608Z" transform="translate(-26.85 -160.565)" fill="#be522b"/>
      <path id="Caminho_156" data-name="Caminho 156" d="M328.586,346.46a17.8,17.8,0,0,0-7.12-2.262,44.981,44.981,0,0,0-7.866-.191c-5.52.24-11.056.559-16.556,1.124-2.974.3-5.938.707-8.877,1.246-.741-.128-1.472-.226-2.218-.314h-.069l-.981-.1-.285-.025c-5.864-.491-11.777.265-17.572,1.173a1.024,1.024,0,0,0-.294.025l-.27.064-.731.113c-3.877.623-7.748,1.281-11.649,1.673a69.562,69.562,0,0,1-11.919.132c-4.048-.285-8.077-.79-12.125-1.065a62.1,62.1,0,0,0-12,.28c-7.758.981-15.477,3.16-23.362,2.483-1.438-.128-2.89-.344-4.348-.594a29.814,29.814,0,0,1-2.807-1.089c-.736-.319-1.472-.618-2.228-.878a.441.441,0,0,0-.118-.059l-.24-.064a20.189,20.189,0,0,0-3.2-.795l-.692-.162a23.132,23.132,0,0,0-2.944-.579l-.491-.049-.437-.069a10.669,10.669,0,0,0-2.944,0,4.231,4.231,0,0,0-1.089.069,3.081,3.081,0,0,0-1.693,1.158,6.644,6.644,0,0,0-1.153,1.472,2.288,2.288,0,0,0-.368.417,2.13,2.13,0,0,0,.285,2.507c.535.638,1.649.746,2.37,1.237,5.864,3.926,12.719,5.692,19.628,6.355,9.068.873,18.2,0,27.278.77,8.386.736,16.9,2.454,25.306.981l.407-.083a12.881,12.881,0,0,0,3.087-.775,40.84,40.84,0,0,0,7.361-3.2,77.347,77.347,0,0,1,9.986-5.089,19.527,19.527,0,0,1,5.462-1.212c1.045-.069,2.822-.137,2.905.206.039.152-.211.3-.393.574-1.379,2.022-.432,4.608,1.256,6.114a12.317,12.317,0,0,0,3.1,1.894,38.186,38.186,0,0,0,3.7,1.472,46.352,46.352,0,0,0,15.7,2.179,73.647,73.647,0,0,0,16.4-2.454c2.719-.692,5.4-1.472,8.082-2.346,1.349-.432,2.7-.878,4.039-1.34a18.444,18.444,0,0,0,2.885-1.222c1.717-.942,3.273-2.454,3.322-4.519C332.119,349.38,330.377,347.559,328.586,346.46Z" transform="translate(-56.869 -165.573)" fill="#eb9f83" opacity="0.9"/>
      <path id="Caminho_157" data-name="Caminho 157" d="M244.759,393.376a3.949,3.949,0,0,0-1.192-3.067,5.737,5.737,0,0,0-3.764-.707,22.117,22.117,0,0,0-8.479,2.522c-2.846,1.384-5.565,3.018-8.5,4.205a39.191,39.191,0,0,1-4.51,1.506c4.838.319,9.677.584,14.53.687,4,.088,7.994.093,11.993.039v-.579C244.808,396.448,244.833,394.907,244.759,393.376Z" transform="translate(-81.649 -188.827)" fill="#eb9f83" opacity="0.9"/>
      <path id="Caminho_158" data-name="Caminho 158" d="M498.558,343.1a1.786,1.786,0,0,0-1.246,1.222.3.3,0,0,0,.28.368l11.492,1.379-3.17-2.007-2.483-1.565-.2-.132c-.741.064-1.472.152-2.223.26A12.492,12.492,0,0,0,498.558,343.1Z" transform="translate(-223.739 -164.78)" fill="#eb9f83" opacity="0.9"/>
      <path id="Caminho_159" data-name="Caminho 159" d="M144.4,372.62a10.457,10.457,0,0,0,1.688-.412,5.6,5.6,0,0,0,1.546-.736c.319-.245.584-.682.309-1.055a.829.829,0,0,0-.491-.28c-.343-.083-.7-.128-1.05-.191-1.86-.334-3.72-.692-5.584-1.006-.245.378-.491.756-.707,1.148-.981,1.026-1.963,2.071-2.944,3.121h.079C139.584,372.767,142.023,373.013,144.4,372.62Z" transform="translate(-40.325 -178.317)" fill="#eb9f83" opacity="0.9"/>
      <circle id="Elipse_17" data-name="Elipse 17" cx="34.717" cy="34.717" r="34.717" transform="translate(210.198 120.609)" fill="#ea7449"/>
      <path id="Caminho_160" data-name="Caminho 160" d="M370.76,252.026c17.391-3.435,30.355-11.536,38.275-25.026" transform="translate(-159.291 -106.028)" fill="none" stroke="#7c290b" stroke-linecap="round" stroke-linejoin="round" stroke-width="1.2"/>
      <path id="Caminho_161" data-name="Caminho 161" d="M444.578,267.73c-10.732,20.035-29.01,32.563-56.618,38.476" transform="translate(-168.051 -126.771)" fill="none" stroke="#7c290b" stroke-linecap="round" stroke-linejoin="round" stroke-width="1.2"/>
      <path id="Caminho_162" data-name="Caminho 162" d="M368.24,267.623c23.451-3.3,41.293-12.96,52.559-31.263" transform="translate(-158.008 -110.795)" fill="none" stroke="#7c290b" stroke-linecap="round" stroke-linejoin="round" stroke-width="1.2"/>
      <path id="Caminho_163" data-name="Caminho 163" d="M432.192,250q-19.373,28.9-57.412,37.716" transform="translate(-161.339 -117.742)" fill="none" stroke="#7c290b" stroke-linecap="round" stroke-linejoin="round" stroke-width="1.2"/>
      <path id="Caminho_164" data-name="Caminho 164" d="M458.925,291.43c-9.363,16.64-25.669,28.049-48.545,34.506" transform="translate(-179.47 -138.842)" fill="none" stroke="#7c290b" stroke-linecap="round" stroke-linejoin="round" stroke-width="1.2"/>
      <path id="Caminho_165" data-name="Caminho 165" d="M447.16,346.586a77.414,77.414,0,0,0,27.479-20" transform="translate(-198.201 -156.748)" fill="none" stroke="#7c290b" stroke-linecap="round" stroke-linejoin="round" stroke-width="1.2"/>
      <g id="Grupo_33" data-name="Grupo 33" transform="translate(210.195 120.606)" opacity="0.85">
        <path id="Caminho_166" data-name="Caminho 166" d="M382.117,278.561a29.1,29.1,0,0,0,13.951-8.916,46.013,46.013,0,0,0,8.474-14.5c2.277-6.05,3.543-12.537,6.924-18.127a19.981,19.981,0,0,1,5.967-6.472c.329-.211.662-.412,1.011-.6a34.712,34.712,0,0,0-45.022,49.394l.393.039A24.31,24.31,0,0,0,382.117,278.561Z" transform="translate(-368.163 -226.254)" fill="#be522b"/>
        <path id="Caminho_167" data-name="Caminho 167" d="M450.037,292.7a35.035,35.035,0,0,0-.255-4.146c-1.413,3.145-2.792,6.306-4.348,9.382a47.179,47.179,0,0,1-8.789,12.645,24.676,24.676,0,0,1-12.95,6.948c-5.516.981-11.149.147-16.684-.216a47.78,47.78,0,0,0-8.42.054,17.234,17.234,0,0,0-6,1.56A34.708,34.708,0,0,0,450.037,292.7Z" transform="translate(-380.604 -257.981)" fill="#be522b"/>
      </g>
      <path id="Caminho_168" data-name="Caminho 168" d="M474.594,255.055a3.477,3.477,0,0,0-3.327-1.04,5.4,5.4,0,0,0-3.489,2.287.365.365,0,0,1-.034.059,6.486,6.486,0,0,0-1.305,1.963,5.972,5.972,0,0,0-.319,3.926,2.354,2.354,0,0,0,2.92,1.551,7.694,7.694,0,0,0,3.435-1.874,8.833,8.833,0,0,0,2.321-3.19A3.655,3.655,0,0,0,474.594,255.055Z" transform="translate(-207.759 -119.754)" fill="#c3c1d6" opacity="0.5"/>
      <path id="Caminho_169" data-name="Caminho 169" d="M180.151,309.887a22.449,22.449,0,0,1-8.342-7.424c.039-.981-1.315-1.369-2.1-1.634l-3.788-1.291-7.645-2.606a.412.412,0,0,0-.491.393,47.686,47.686,0,0,0,3.494,14.162,26.923,26.923,0,0,0,1.472,3.121c.491.864,1.526,2.694,2.561,2.792,1.188.113,2.105-1.634,3.185-2.046q1.84-.707,3.67-1.472c2.684-1.094,5.363-2.218,8-3.435a.343.343,0,0,0-.025-.559Z" transform="translate(-50.827 -141.64)" fill="#ffc7ae"/>
      <path id="Caminho_170" data-name="Caminho 170" d="M165.168,303.666a1.894,1.894,0,0,0-1.472.491c-.815.883.265,2,.844,2.679a5.535,5.535,0,0,0,2.885,1.762c1.192.324,2.414.491,3.6.859a16.235,16.235,0,0,0,3.788.854,5.01,5.01,0,0,0,3.077-.736,25.107,25.107,0,0,1-3.239-3.793c.039-.981-1.315-1.369-2.1-1.634l-1.963-.667c-1.134.123-2.272.206-3.435.216C166.532,303.735,165.86,303.676,165.168,303.666Z" transform="translate(-53.685 -144.979)" fill="#fcad97"/>
      <path id="Caminho_171" data-name="Caminho 171" d="M336.383,182.29c-8.342,1.963-15.786,6.227-23.412,9.942a171.919,171.919,0,0,1-25.114,9.49c-4.245,1.3-8.519,2.522-12.758,3.823a63.281,63.281,0,0,0-11.895,4.681,44.969,44.969,0,0,0-9.814,7.552c-3.155,3.1-6.119,6.379-9.132,9.628q-9.74,10.442-19.466,20.894c-.756.815-1.506,1.634-2.243,2.454a18.834,18.834,0,0,0-4.171.123c-1.9.26-3.754.741-5.633,1.1a23.193,23.193,0,0,1-3.131.432,19.136,19.136,0,0,1-3.136-.118,6.29,6.29,0,0,0-.923-1.963,11.934,11.934,0,0,0-4.186-3.435,7.581,7.581,0,0,0-5.251-.937,20.8,20.8,0,0,0-5.005,2.375,29.034,29.034,0,0,1-5.447,2.184c-1.889.564-3.823.981-5.756,1.374a16.8,16.8,0,0,0-5.471,1.649c-2.944,1.767-5.4,5.329-4.161,9.122,1.472,4.549,6.919,6.723,11.4,7.93,5.727,1.541,11.689,1.011,17.533.682a72.922,72.922,0,0,1,9.6,0c3.16.236,6.3.687,9.441,1.065a71.688,71.688,0,0,0,8.509.584,25.384,25.384,0,0,0,13.018-1.138,25.875,25.875,0,0,0,11.463-8.273c3.175-4.043,4.809-8.906,6.482-13.7a60.6,60.6,0,0,1,2.915-7.228,44.792,44.792,0,0,1,3.862-6.095c2.738-3.778,5.785-7.513,7.189-12.037a7.81,7.81,0,0,0,.324-1.963,2.863,2.863,0,0,1,2.542-1.732c1.256-.172,2.542-.167,3.8-.314a40.12,40.12,0,0,0,7-1.472,40.788,40.788,0,0,0,12.724-6.517,39.438,39.438,0,0,0,5.29-4.824,40.536,40.536,0,0,1,3.95-4.151l.083-.059a1.069,1.069,0,0,0,.206-.182c.2-.152.4-.3.6-.451a7.7,7.7,0,0,1,3.008-1.3,14.348,14.348,0,0,1,3.862.1,9.412,9.412,0,0,0,3.7-.157,6.036,6.036,0,0,0,2.772-1.914,32.019,32.019,0,0,0,2.061-2.861q1.129-1.634,2.385-3.165c.628-.765,1.291-1.5,1.963-2.228l.079-.064a1.212,1.212,0,0,0,.324-.353c.329-.348.653-.7.981-1.03,1.143-.839,2.36-1.428,3.509-2.262.53-.388.766-1.158,1.276-1.585.393-.329,1.065-.319,1.472-.613.329-.245.918-.623,1.08-1.016a3.051,3.051,0,0,0,.078-.765c.034-.294.064-.584.093-.878A.4.4,0,0,0,336.383,182.29Z" transform="translate(-57.021 -83.252)" fill="#ffc7ae"/>
      <path id="Caminho_172" data-name="Caminho 172" d="M255.7,358l-.589-.864a.319.319,0,0,0-.319-.373h-.074a.417.417,0,0,0-.245,0,12.9,12.9,0,0,1-5.741-1.536c-2.041-.942-4.073-1.9-6.1-2.846l-3.067-1.433a22.543,22.543,0,0,0-2.91-1.276,3.8,3.8,0,0,0-2.635.059,4.294,4.294,0,0,0-1.8,1.531,5.53,5.53,0,0,0-.491,5.069,67.925,67.925,0,0,1,8.342.039c3.16.236,6.3.687,9.441,1.065C251.57,357.693,253.636,357.9,255.7,358Z" transform="translate(-88.279 -168.4)" fill="#fcad97"/>
      <path id="Caminho_173" data-name="Caminho 173" d="M425.563,216.253a4.873,4.873,0,0,0-3.528.226,10.305,10.305,0,0,0-3.155,2.566c-4.166,4.583-7.812,9.775-12.94,13.382a24.983,24.983,0,0,1-4.235,2.395,14.812,14.812,0,0,0-3.975,2.238c1.227-.25,2.454-.559,3.646-.927a40.788,40.788,0,0,0,12.724-6.517,39.436,39.436,0,0,0,5.29-4.824,40.542,40.542,0,0,1,3.95-4.151l.083-.059a1.068,1.068,0,0,0,.206-.182c.2-.152.4-.3.6-.451a7.7,7.7,0,0,1,3.008-1.3,10.631,10.631,0,0,1,2.846,0C428.561,217.9,427.2,216.763,425.563,216.253Z" transform="translate(-173.027 -100.438)" fill="#fcad97"/>
      <path id="Caminho_174" data-name="Caminho 174" d="M460.7,211.362a3.71,3.71,0,0,0,4.289-2.022" transform="translate(-205.097 -97.034)" fill="none" stroke="#fcad97" stroke-linecap="round" stroke-linejoin="round" stroke-width="1.2"/>
      <path id="Caminho_175" data-name="Caminho 175" d="M477.81,212a6.458,6.458,0,0,0,1.752-2.91,14.623,14.623,0,0,1,1.31-3.17" transform="translate(-213.811 -95.292)" fill="none" stroke="#fcad97" stroke-linecap="round" stroke-linejoin="round" stroke-width="1.2"/>
      <path id="Caminho_176" data-name="Caminho 176" d="M503.992,187a3.464,3.464,0,0,1-2.689,1.188,1.761,1.761,0,0,1-.491,1.374,3.1,3.1,0,0,1-2.272,1.158" transform="translate(-224.369 -85.656)" fill="none" stroke="#fcad97" stroke-linecap="round" stroke-linejoin="round" stroke-width="1.2"/>
      <path id="Caminho_177" data-name="Caminho 177" d="M180.151,309.887a22.449,22.449,0,0,1-8.342-7.424c.039-.981-1.315-1.369-2.1-1.634l-3.788-1.291-7.645-2.606a.412.412,0,0,0-.491.393,47.686,47.686,0,0,0,3.494,14.162,26.923,26.923,0,0,0,1.472,3.121c.491.864,1.526,2.694,2.561,2.792,1.188.113,2.105-1.634,3.185-2.046q1.84-.707,3.67-1.472c2.684-1.094,5.363-2.218,8-3.435a.343.343,0,0,0-.025-.559Z" transform="translate(-50.827 -141.64)" fill="#ffc7ae"/>
      <path id="Caminho_178" data-name="Caminho 178" d="M173.431,313.416c2.179-.9,4.353-1.82,6.5-2.787h0c-1.246-.353-2.454-.775-3.675-1.222a24.38,24.38,0,0,1-3.435-1.536,3.038,3.038,0,0,1-1.055-.873l.319.029a5.01,5.01,0,0,0,3.077-.736h0c-.29-.28-.574-.564-.854-.859l-.039-.044c-.27-.29-.535-.584-.79-.883h0c-.054-.064-.1-.128-.157-.186h0c-.236-.285-.491-.574-.7-.873s-.491-.623-.7-.942c.039-.981-1.315-1.369-2.1-1.634l-.628-.216-3.16-1.075-7.645-2.606a.412.412,0,0,0-.491.393,47.687,47.687,0,0,0,3.494,14.162,26.923,26.923,0,0,0,1.472,3.121c.491.864,1.526,2.694,2.561,2.792,1.188.113,2.105-1.634,3.185-2.046q1.84-.707,3.67-1.472l1.222-.491Z" transform="translate(-50.888 -141.66)" fill="#fcad97"/>
      <path id="Caminho_179" data-name="Caminho 179" d="M206.93,322.989a21.36,21.36,0,0,1,1.134-4.6c-.53-.025-1.06-.069-1.595-.128a6.291,6.291,0,0,0-.923-1.963,11.934,11.934,0,0,0-4.186-3.435,7.582,7.582,0,0,0-5.251-.937,20.8,20.8,0,0,0-5.005,2.375,29.035,29.035,0,0,1-5.447,2.184c-1.889.564-3.823.981-5.756,1.374a16.8,16.8,0,0,0-5.471,1.649c-2.944,1.767-5.4,5.329-4.161,9.122,1.472,4.549,6.919,6.723,11.4,7.93,5.727,1.541,11.689,1.011,17.533.682,2.35-.132,4.7-.211,7.047-.147a47.6,47.6,0,0,1-.108-8.106C206.283,326.954,206.611,324.972,206.93,322.989ZM191.5,331.061a9.814,9.814,0,0,1-4.745,2.081,14.171,14.171,0,0,1-6.08-.775c-.981-.314-1.938-.692-2.885-1.094a28.162,28.162,0,0,1-2.62-1.217,4.191,4.191,0,0,1-1.595-1.433l-.491-.8a4.651,4.651,0,0,1-.422-1.472,2.546,2.546,0,0,1,.034-1.089,7.619,7.619,0,0,1,2.979-3.808,14.451,14.451,0,0,1,12.032-2.375c1.732.491,3.617,1.256,4.573,2.866a11.286,11.286,0,0,1,1.32,4.824A5.094,5.094,0,0,1,191.5,331.061Z" transform="translate(-57.016 -149.217)" fill="#dd6d6b"/>
      <path id="Caminho_180" data-name="Caminho 180" d="M201.654,343.435c-1.894.255-3.68,1.011-5.56,1.34a19.969,19.969,0,0,1-4.838.216,9.75,9.75,0,0,1-4.519,1.909,14.171,14.171,0,0,1-6.08-.775c-.981-.314-1.938-.692-2.885-1.094a28.153,28.153,0,0,1-2.62-1.217,4.191,4.191,0,0,1-1.595-1.433l-.491-.8a4.652,4.652,0,0,1-.422-1.472,2.547,2.547,0,0,1,.034-1.089.772.772,0,0,1,.054-.172,10.756,10.756,0,0,0-2.684.147,6.379,6.379,0,0,0,.2,3.352c1.472,4.549,6.919,6.723,11.4,7.93,5.727,1.541,11.689,1.011,17.533.682,2.35-.132,4.7-.211,7.047-.147a48.937,48.937,0,0,1-.2-6.4l-.044-.039A5.825,5.825,0,0,0,201.654,343.435Z" transform="translate(-57 -162.975)" fill="#d4554c"/>
      <path id="Caminho_181" data-name="Caminho 181" d="M232.826,316.086c.231,1.178-.559,2.282-1.207,3.185-.491.7-1.364,1.693-1.168,2.625.231,1.1,1.629.692,2.37.491a16.73,16.73,0,0,0,3.155-1.276,17.213,17.213,0,0,0,2.581-1.472c-.427-.025-.854-.064-1.286-.108a6.291,6.291,0,0,0-.923-1.963,11.674,11.674,0,0,0-3.862-3.268A5.9,5.9,0,0,0,232.826,316.086Z" transform="translate(-87.818 -150.489)" fill="#d4554c"/>
      <path id="Caminho_182" data-name="Caminho 182" d="M206.93,322.989a21.36,21.36,0,0,1,1.134-4.6c-.53-.025-1.06-.069-1.595-.128a6.291,6.291,0,0,0-.923-1.963,11.934,11.934,0,0,0-4.186-3.435,7.582,7.582,0,0,0-5.251-.937,20.8,20.8,0,0,0-5.005,2.375,29.035,29.035,0,0,1-5.447,2.184c-1.889.564-3.823.981-5.756,1.374a16.8,16.8,0,0,0-5.471,1.649c-2.944,1.767-5.4,5.329-4.161,9.122,1.472,4.549,6.919,6.723,11.4,7.93,5.727,1.541,11.689,1.011,17.533.682,2.35-.132,4.7-.211,7.047-.147a47.6,47.6,0,0,1-.108-8.106C206.283,326.954,206.611,324.972,206.93,322.989ZM191.5,331.061a9.814,9.814,0,0,1-4.745,2.081,14.171,14.171,0,0,1-6.08-.775c-.981-.314-1.938-.692-2.885-1.094a28.162,28.162,0,0,1-2.62-1.217,4.191,4.191,0,0,1-1.595-1.433l-.491-.8a4.651,4.651,0,0,1-.422-1.472,2.546,2.546,0,0,1,.034-1.089,7.619,7.619,0,0,1,2.979-3.808,14.451,14.451,0,0,1,12.032-2.375c1.732.491,3.617,1.256,4.573,2.866a11.286,11.286,0,0,1,1.32,4.824A5.094,5.094,0,0,1,191.5,331.061Z" transform="translate(-57.016 -149.217)"/>
      <path id="Caminho_183" data-name="Caminho 183" d="M239.133,320.93a4.083,4.083,0,0,1,.923,1.963c.088,1.472-1.05,2.522-2.149,3.356s-2.041,1.722-2.017,2.91" transform="translate(-90.602 -153.866)" fill="none" stroke="#be522b" stroke-linecap="round" stroke-linejoin="round" stroke-width="1.2"/>
      <path id="Caminho_184" data-name="Caminho 184" d="M170.251,281.684a7.647,7.647,0,0,0-.913-1.8c-.751-1.31-1.472-2.63-2.238-3.926-1.472-2.566-2.866-5.2-4.446-7.7a13.741,13.741,0,0,0-2.4-3.023,10.462,10.462,0,0,0-2.944-1.84,10.58,10.58,0,0,0-6.845-.451,7.65,7.65,0,0,0-3.087,1.629,6.05,6.05,0,0,0-1.776,3.165,23.887,23.887,0,0,0-.456,3.734,14.506,14.506,0,0,0,.147,3.774,6.7,6.7,0,0,0,1.585,3.224,16.254,16.254,0,0,0,3.057,2.385l1.556,1.05a12.758,12.758,0,0,0,15.835,3.6,5.863,5.863,0,0,0,2.738-2.257,2.238,2.238,0,0,0,.186-1.57Z" transform="translate(-44.357 -124.149)" fill="#ffc7ae"/>
      <path id="Caminho_185" data-name="Caminho 185" d="M164.6,299.942a3.21,3.21,0,0,0-2.2-1.153,7.249,7.249,0,0,1-2.375-.869,28.524,28.524,0,0,1-3.7-3.136,13.288,13.288,0,0,0-9.814-3.258,6.423,6.423,0,0,0,1.084,1.678,16.251,16.251,0,0,0,3.057,2.385l1.556,1.05a12.758,12.758,0,0,0,12.169,4.794c.157-.025.309-.064.491-.093A1.59,1.59,0,0,0,164.6,299.942Z" transform="translate(-45.077 -138.87)" fill="#fcad97"/>
      <path id="Caminho_186" data-name="Caminho 186" d="M180.873,284.06a2.195,2.195,0,0,0-.172-.339,2.016,2.016,0,0,0-.55-.53.289.289,0,0,0-.432.25,3.077,3.077,0,0,0,.363.628,3.345,3.345,0,0,0,.491.535.236.236,0,0,0,.28.034.245.245,0,0,0,.108-.265A1.414,1.414,0,0,0,180.873,284.06Z" transform="translate(-61.996 -134.627)" fill="#01265a"/>
      <path id="Caminho_187" data-name="Caminho 187" d="M177.241,278.91h-.079a4.117,4.117,0,0,0-1.963.545,2.944,2.944,0,0,0-1.168,1.153c-.206.407,0,.491.221.319s.451-.373.682-.55a4.152,4.152,0,0,1,.731-.456,12.769,12.769,0,0,1,1.634-.6.211.211,0,0,0-.059-.407Z" transform="translate(-59.055 -132.465)" fill="#382f77"/>
      <path id="Caminho_188" data-name="Caminho 188" d="M188.664,294.53a6.178,6.178,0,0,1-3.484.55" transform="translate(-64.776 -140.42)" fill="none" stroke="#fcad97" stroke-linecap="round" stroke-linejoin="round" stroke-width="1.2"/>
      <path id="Caminho_189" data-name="Caminho 189" d="M181.107,292.836a.883.883,0,0,0-.53-.432c-.589-.216-1.3.638-1.394.854a5.17,5.17,0,0,0-.373,1.325,1.075,1.075,0,0,0,.1.761.721.721,0,0,0,.638.339c.515-.039.8-.491,1.055-.869a3.651,3.651,0,0,0,.555-1.246,1.168,1.168,0,0,0-.054-.731Z" transform="translate(-61.518 -139.32)" fill="#fcad97"/>
      <path id="Caminho_190" data-name="Caminho 190" d="M188.567,279.593a4.907,4.907,0,0,1-1.369-.329,24.594,24.594,0,0,1-4.907-2.9.4.4,0,0,0-.294-.049c-.142.029-.255.162-.162.309,1.006,1.59,2.007,3.194,2.885,4.858a13.2,13.2,0,0,1,.491,1.227c.152.324.736.265,1.016.2a2.453,2.453,0,0,0,.981-.594c.275-.255.491-.55.765-.819a3.559,3.559,0,0,1,.417-.4,4.785,4.785,0,0,0,.412-.29.638.638,0,0,0,.432-.545A.692.692,0,0,0,188.567,279.593Z" transform="translate(-63.055 -131.142)" fill="#fcad97"/>
      <path id="Caminho_191" data-name="Caminho 191" d="M153.5,266.649a3.7,3.7,0,0,0-.555-1.708c-2.856-3.347-7.807-4.249-11.954-3.1a18.936,18.936,0,0,0-6.826,3.69,12.5,12.5,0,0,0-4.245,5.746,8.231,8.231,0,0,0,1.335,7.071,20.6,20.6,0,0,0,6.06,5.241c2.071,1.34,4.465,2.63,7.007,1.992a4.309,4.309,0,0,0,2.625-1.835,8.907,8.907,0,0,0,.981-3.646,19.605,19.605,0,0,1,1.963-7.258,20.421,20.421,0,0,1,2.409-3.023A4.489,4.489,0,0,0,153.5,266.649Z" transform="translate(-36.472 -123.531)" fill="#be522b"/>
      <path id="Caminho_192" data-name="Caminho 192" d="M112.336,271.031a.918.918,0,0,0-.319-.294l-.29-.211c-.054-.039-.3-.314-.491-.319a2.432,2.432,0,0,1-1.865-1.6,13.075,13.075,0,0,0-1.222-2.547,4.191,4.191,0,0,0-4.353-1.629,3.587,3.587,0,0,0-1.963,1.305,8.813,8.813,0,0,0-1.011,2.488,2.454,2.454,0,0,1-.981,1.472,11.732,11.732,0,0,1-3.607.653,8.931,8.931,0,0,0-3.3,1.08,4.254,4.254,0,0,0-1.894,2.365,3.754,3.754,0,0,0,.618,3.052c.074.118.2.216.231.353a3.925,3.925,0,0,1,0,.829,9.412,9.412,0,0,0,1.874,5.054,21.1,21.1,0,0,0,1.776,2.022c.584.628,1.246,1.266,1.153,2.1a3.489,3.489,0,0,1-.442,1.035,11.373,11.373,0,0,0-.7,1.673,3.312,3.312,0,0,0,.412,3.1,2.474,2.474,0,0,0,2.944.53l.152-.064a2.266,2.266,0,0,1,.491.358,4.584,4.584,0,0,0,.658.491,6.257,6.257,0,0,0,1.7.672,9.869,9.869,0,0,0,3.759.064c1.86-.265,2.007-3.023,2.086-3.268a3.611,3.611,0,0,0,.069-1.713,6.208,6.208,0,0,1-.255-1.963c.157-1.016,1.246-1.217,2.071-1.472a2.6,2.6,0,0,0,1.963-1.624c.294-1.153-.491-2.252-1.168-3.1-1.443-1.747-3.523-3.371-3.538-5.844a4.613,4.613,0,0,1,1.6-3.538,5.486,5.486,0,0,1,3.68-1.114c.083,0,.113-.064.162-.1a.26.26,0,0,0,0-.285Z" transform="translate(-16.781 -125.032)" fill="#be522b"/>
      <path id="Caminho_193" data-name="Caminho 193" d="M166.833,277.36c-2.321,3.352-6.762,4.829-8.833,8.342" transform="translate(-50.934 -131.676)" fill="none" stroke="#ea7449" stroke-linecap="round" stroke-linejoin="round" stroke-width="1.2"/>
      <path id="Caminho_194" data-name="Caminho 194" d="M156.836,296.75a2.945,2.945,0,0,0-.226,1.767" transform="translate(-50.202 -141.551)" fill="none" stroke="#ea7449" stroke-linecap="round" stroke-linejoin="round" stroke-width="1.2"/>
      <path id="Caminho_195" data-name="Caminho 195" d="M164.134,266.68a4.71,4.71,0,0,1-2.179,2.488c-.981.584-2.032.981-3.033,1.472a5.815,5.815,0,0,0-2.512,2.184" transform="translate(-50.124 -126.237)" fill="none" stroke="#ea7449" stroke-linecap="round" stroke-linejoin="round" stroke-width="1.2"/>
      <path id="Caminho_196" data-name="Caminho 196" d="M159.119,279.07a5.555,5.555,0,0,0-2.679,3.882" transform="translate(-50.139 -132.547)" fill="none" stroke="#ea7449" stroke-linecap="round" stroke-linejoin="round" stroke-width="1.2"/>
      <path id="Caminho_197" data-name="Caminho 197" d="M154.973,289.09a3.214,3.214,0,0,1-1.143,1.87" transform="translate(-48.81 -137.65)" fill="none" stroke="#ea7449" stroke-linecap="round" stroke-linejoin="round" stroke-width="1.2"/>
      <path id="Caminho_198" data-name="Caminho 198" d="M131.94,278.484a5.074,5.074,0,0,0,5.005-.491,14.553,14.553,0,0,0,2.454-2.768,5.047,5.047,0,0,1,3.008-2.056" transform="translate(-37.661 -129.542)" fill="none" stroke="#ea7449" stroke-linecap="round" stroke-linejoin="round" stroke-width="1.2"/>
      <path id="Caminho_199" data-name="Caminho 199" d="M142.12,285.27a9.142,9.142,0,0,0-2.223,2.051,3.1,3.1,0,0,0-.491,2.876" transform="translate(-41.383 -135.704)" fill="none" stroke="#ea7449" stroke-linecap="round" stroke-linejoin="round" stroke-width="1.2"/>
      <path id="Caminho_200" data-name="Caminho 200" d="M156.37,269.159A2.728,2.728,0,0,0,158.151,267" transform="translate(-50.104 -126.4)" fill="none" stroke="#ea7449" stroke-linecap="round" stroke-linejoin="round" stroke-width="1.2"/>
      <path id="Caminho_201" data-name="Caminho 201" d="M147.546,264.45a5.6,5.6,0,0,1-2.454,1.811,30.47,30.47,0,0,0-2.846,1.222,4.088,4.088,0,0,0-2.017,2.257" transform="translate(-41.883 -125.101)" fill="none" stroke="#ea7449" stroke-linecap="round" stroke-linejoin="round" stroke-width="1.2"/>
      <path id="Caminho_202" data-name="Caminho 202" d="M142.689,292.51a2.39,2.39,0,0,0-.491,2.105,7.071,7.071,0,0,0,.908,2.046,12.374,12.374,0,0,0,.815,1.286" transform="translate(-42.851 -139.392)" fill="none" stroke="#ea7449" stroke-linecap="round" stroke-linejoin="round" stroke-width="1.2"/>
      <path id="Caminho_203" data-name="Caminho 203" d="M102.29,306.472a7.577,7.577,0,0,0,1.472-1.85,2.581,2.581,0,0,0,.1-2.282c-.221-.432-.618-.8-.643-1.291" transform="translate(-22.561 -143.741)" fill="none" stroke="#ea7449" stroke-linecap="round" stroke-linejoin="round" stroke-width="1.2"/>
      <path id="Caminho_204" data-name="Caminho 204" d="M124.8,310.074a4.416,4.416,0,0,0-2.267.491,1.963,1.963,0,0,0-1.05,1.938" transform="translate(-32.329 -148.334)" fill="none" stroke="#ea7449" stroke-linecap="round" stroke-linejoin="round" stroke-width="1.2"/>
      <path id="Caminho_205" data-name="Caminho 205" d="M107.11,318.577a5.4,5.4,0,0,1,.083-4.907" transform="translate(-24.736 -150.168)" fill="none" stroke="#ea7449" stroke-linecap="round" stroke-linejoin="round" stroke-width="1.2"/>
      <path id="Caminho_206" data-name="Caminho 206" d="M103.512,295.212A4.907,4.907,0,0,1,104,292.14" transform="translate(-23.149 -139.203)" fill="none" stroke="#ea7449" stroke-linecap="round" stroke-linejoin="round" stroke-width="1.2"/>
      <path id="Caminho_207" data-name="Caminho 207" d="M92.76,290.11c.064.3.373.491.628.648A3.435,3.435,0,0,1,94.841,293" transform="translate(-17.707 -138.169)" fill="none" stroke="#ea7449" stroke-linecap="round" stroke-linejoin="round" stroke-width="1.2"/>
      <path id="Caminho_208" data-name="Caminho 208" d="M105.118,273.8a2.944,2.944,0,0,1-1.187,2.007,13.247,13.247,0,0,1-2.071,1.222,5.118,5.118,0,0,0-1.85,1.5" transform="translate(-21.4 -129.863)" fill="none" stroke="#ea7449" stroke-linecap="round" stroke-linejoin="round" stroke-width="1.2"/>
      <path id="Caminho_209" data-name="Caminho 209" d="M99.4,285.56a4.8,4.8,0,0,0,.461,2.9" transform="translate(-21.062 -135.852)" fill="none" stroke="#ea7449" stroke-linecap="round" stroke-linejoin="round" stroke-width="1.2"/>
      <path id="Caminho_210" data-name="Caminho 210" d="M122.717,277.46c-1.781.378-3.7-.064-5.427.54a4.691,4.691,0,0,0-1.747,7.778" transform="translate(-28.595 -131.727)" fill="none" stroke="#ea7449" stroke-linecap="round" stroke-linejoin="round" stroke-width="1.2"/>
      <path id="Caminho_211" data-name="Caminho 211" d="M118.28,295.88a2.149,2.149,0,0,1,.55,1.188,2.193,2.193,0,0,1-.393,1.526" transform="translate(-30.704 -141.108)" fill="none" stroke="#ea7449" stroke-linecap="round" stroke-linejoin="round" stroke-width="1.2"/>
      <path id="Caminho_212" data-name="Caminho 212" d="M117.061,303.48a3.435,3.435,0,0,0-.721,2.5" transform="translate(-29.706 -144.979)" fill="none" stroke="#ea7449" stroke-linecap="round" stroke-linejoin="round" stroke-width="1.2"/>
      <path id="Caminho_213" data-name="Caminho 213" d="M114.995,275.18a13.474,13.474,0,0,0-3.881,1.335,4.554,4.554,0,0,0-2.331,3.224,6.718,6.718,0,0,0,.417,2.66c.132.432.26.864.388,1.291" transform="translate(-25.864 -130.566)" fill="none" stroke="#ea7449" stroke-linecap="round" stroke-linejoin="round" stroke-width="1.2"/>
      <path id="Caminho_214" data-name="Caminho 214" d="M110.516,294.09a2.552,2.552,0,0,1-.186,2.341" transform="translate(-26.656 -140.196)" fill="none" stroke="#ea7449" stroke-linecap="round" stroke-linejoin="round" stroke-width="1.2"/>
      <path id="Caminho_215" data-name="Caminho 215" d="M123.593,280.51a10.272,10.272,0,0,0-2.674,1.879,3.479,3.479,0,0,0-.981,3" transform="translate(-31.527 -133.28)" fill="none" stroke="#ea7449" stroke-linecap="round" stroke-linejoin="round" stroke-width="1.2"/>
      <path id="Caminho_216" data-name="Caminho 216" d="M119.954,318a2.012,2.012,0,0,1-1.634,2.615" transform="translate(-30.725 -152.374)" fill="none" stroke="#ea7449" stroke-linecap="round" stroke-linejoin="round" stroke-width="1.2"/>
      <path id="Caminho_217" data-name="Caminho 217" d="M166.993,309.82c-2.311-1.875-5.216-2.743-7.92-3.872a17.664,17.664,0,0,1-3.837-2.066,14.631,14.631,0,0,1-3.263-3.827,14.117,14.117,0,0,0-3.577-3.764,19.627,19.627,0,0,0-4.461-2.3c-.77-.29-1.551-.545-2.341-.78a9.425,9.425,0,0,0-2.8-.52,3.994,3.994,0,0,0-3.567,2.674,8.637,8.637,0,0,0,.054,5.26,16.04,16.04,0,0,0,2.085,4.544,28.776,28.776,0,0,0,7.464,7.361c3.121,2.233,6.448,4.171,9.48,6.536a25.471,25.471,0,0,0,4.333,3c1.668.815,4.961,1.134,6.8,1.237,1.433.083,2.267.118,3.19-.736a5.889,5.889,0,0,0,1.924-3.715A9.749,9.749,0,0,0,166.993,309.82Z" transform="translate(-39.136 -139.483)" fill="#ffc7ae"/>
      <path id="Caminho_218" data-name="Caminho 218" d="M164.371,324.651c-1.168-3.219-4.083-5.28-6.963-6.87-1.565-.859-3.15-1.663-4.686-2.576a51.956,51.956,0,0,1-4.382-2.89,38.277,38.277,0,0,1-7.375-7.032c-1.786-2.262-3.391-4.873-5.82-6.472a9.041,9.041,0,0,0,.147,4.951,16.041,16.041,0,0,0,2.085,4.544,28.774,28.774,0,0,0,7.464,7.361c3.121,2.233,6.448,4.171,9.48,6.536a25.471,25.471,0,0,0,4.333,3,19.859,19.859,0,0,0,6.085,1.192A5.722,5.722,0,0,0,164.371,324.651Z" transform="translate(-39.149 -142.6)" fill="#fcad97"/>
      <path id="Caminho_219" data-name="Caminho 219" d="M191.76,330.42a15.05,15.05,0,0,0,8.538,6.487" transform="translate(-68.127 -158.699)" fill="none" stroke="#fcad97" stroke-linecap="round" stroke-linejoin="round" stroke-width="1.2"/>
      <path id="Caminho_220" data-name="Caminho 220" d="M172.79,312.2a16.742,16.742,0,0,0,3.72,4.554" transform="translate(-58.466 -149.42)" fill="none" stroke="#fcad97" stroke-linecap="round" stroke-linejoin="round" stroke-width="1.2"/>
      <path id="Caminho_221" data-name="Caminho 221" d="M322.2,251.659a46.616,46.616,0,0,1-4.564-4.24,54.1,54.1,0,0,1-3.582-4.137c-.692-.9-1.354-1.83-1.992-2.772a47.02,47.02,0,0,0-8.705,6.924c-3.155,3.1-6.119,6.379-9.132,9.628q-9.74,10.442-19.466,20.894c-.756.815-1.506,1.634-2.243,2.454a18.832,18.832,0,0,0-4.171.123H268.2a17.915,17.915,0,0,0,.275,5.741c.339,2.115.648,4.23,1.109,6.32s.981,4.048,1.619,6.036c.4,1.256.834,2.5,1.3,3.734,1.413.113,2.826.182,4.245.182a25.384,25.384,0,0,0,13.018-1.138,25.875,25.875,0,0,0,11.463-8.273c3.175-4.043,4.809-8.906,6.482-13.7a60.6,60.6,0,0,1,2.915-7.228,44.8,44.8,0,0,1,3.862-6.095c2.738-3.778,5.785-7.513,7.189-12.037a7.811,7.811,0,0,0,.324-1.963A1.841,1.841,0,0,1,322.2,251.659Z" transform="translate(-106.985 -112.908)" fill="#dd6d6b"/>
      <path id="Caminho_222" data-name="Caminho 222" d="M323.184,280.29a33.632,33.632,0,0,1-6.35,4.819c-3.769,2.37-7.905,5.015-9.691,9.284a3.269,3.269,0,0,0-.329.908c-.653,2.105-.648,4.353-1.045,6.517a.583.583,0,0,0-.049.25c-.034.152-.059.309-.093.461a19.432,19.432,0,0,1-2.944,6.546,25.971,25.971,0,0,1-11.811,9.1,42.588,42.588,0,0,1-7.748,2.257c-2.139.417-4.514.54-6.463,1.614.074.2.142.4.216.6,1.413.113,2.826.182,4.245.182a25.384,25.384,0,0,0,13.018-1.138,25.875,25.875,0,0,0,11.463-8.273c3.175-4.043,4.809-8.906,6.482-13.7A60.612,60.612,0,0,1,315,292.494a44.793,44.793,0,0,1,3.862-6.095C320.308,284.392,321.849,282.4,323.184,280.29Z" transform="translate(-111.367 -133.168)" fill="#d4554c"/>
      <path id="Caminho_223" data-name="Caminho 223" d="M322.2,251.659a46.616,46.616,0,0,1-4.564-4.24,54.1,54.1,0,0,1-3.582-4.137c-.692-.9-1.354-1.83-1.992-2.772a47.02,47.02,0,0,0-8.705,6.924c-3.155,3.1-6.119,6.379-9.132,9.628q-9.74,10.442-19.466,20.894c-.756.815-1.506,1.634-2.243,2.454a18.832,18.832,0,0,0-4.171.123H268.2a17.915,17.915,0,0,0,.275,5.741c.339,2.115.648,4.23,1.109,6.32s.981,4.048,1.619,6.036c.4,1.256.834,2.5,1.3,3.734,1.413.113,2.826.182,4.245.182a25.384,25.384,0,0,0,13.018-1.138,25.875,25.875,0,0,0,11.463-8.273c3.175-4.043,4.809-8.906,6.482-13.7a60.6,60.6,0,0,1,2.915-7.228,44.8,44.8,0,0,1,3.862-6.095c2.738-3.778,5.785-7.513,7.189-12.037a7.811,7.811,0,0,0,.324-1.963A1.841,1.841,0,0,1,322.2,251.659Z" transform="translate(-106.985 -112.908)"/>
      <path id="Caminho_224" data-name="Caminho 224" d="M277.819,314.77l-3.175,3.464s-1.246,1.595-2.395,1.713" transform="translate(-109.121 -150.729)" fill="none" stroke="#be522b" stroke-linecap="round" stroke-linejoin="round" stroke-width="1.2"/>
      <path id="Caminho_225" data-name="Caminho 225" d="M350.316,298.77c-1.094,1.717-1.673,3.685-2.807,5.28-1.987,2.8-3.926,4.1-5.059,5.888" transform="translate(-144.873 -142.58)" fill="none" stroke="#be522b" stroke-linecap="round" stroke-linejoin="round" stroke-width="1.2"/>
      <path id="Caminho_226" data-name="Caminho 226" d="M601.5,339.467a5.216,5.216,0,0,0-3.616-1.86,32.747,32.747,0,0,0-5.462-.162c-1.845.059-3.69.167-5.54.157a44.512,44.512,0,0,1-5.594-.491,60.972,60.972,0,0,0-8.965-.559h-2.777a41.328,41.328,0,0,0-5.231.182,14.049,14.049,0,0,0-2.5.525,4.063,4.063,0,0,0-1.963,1.084,3.229,3.229,0,0,0-.633,1.963c-.024.608-.123,1.506.461,1.9a3.436,3.436,0,0,0,.981.348l1.408.412,2.743.8,5.4,1.59,10.845,3.18a23.424,23.424,0,0,0,5.339,1.1,30.324,30.324,0,0,0,5.54-.275,29.26,29.26,0,0,0,5.148-1.119,10.5,10.5,0,0,0,3.823-2,4.873,4.873,0,0,0,1.688-3.376,5.168,5.168,0,0,0-1.094-3.41Z" transform="translate(-255.261 -161.814)" fill="#955138"/>
      <path id="Caminho_227" data-name="Caminho 227" d="M622.085,136.794a52.7,52.7,0,0,1-5.358,13.018c-2.326,4.146-5.02,8.077-7.689,12.008a139.851,139.851,0,0,0-7.734,12.268,49.522,49.522,0,0,0-5.069,13.249,30.766,30.766,0,0,0,.059,13.818c.142.569.314,1.129.491,1.678,0,.054.761,1.384,1.315,1.3.427-.069,2.429-3.553,2.88-5.241.309-1.158.569-2.326.942-3.464a33.188,33.188,0,0,1,1.212-3.155,75.422,75.422,0,0,1,6.988-11.738,87.52,87.52,0,0,0,7.2-11.743,52.622,52.622,0,0,0,4.24-14.584,141.56,141.56,0,0,0,1.271-15.384c.029-.638.059-1.276.083-1.919a.422.422,0,0,0-.834-.108Z" transform="translate(-273.739 -59.916)" fill="#ff8a5f"/>
      <path id="Caminho_228" data-name="Caminho 228" d="M646.661,149.389c.24-.113.677-.682.937-.491.1.074.147.221.24.309a.82.82,0,0,0,.329.191,2.615,2.615,0,0,1,.029-.491h0c-.113-.093-.167-.245-.27-.348a.662.662,0,0,0-.731-.147,1.271,1.271,0,0,0-.348.211c-.108.088-.314.343-.466.329s-.216-.294-.285-.427a1.343,1.343,0,0,0-.177-.236l-.25.633a1.075,1.075,0,0,0,.27.447A.7.7,0,0,0,646.661,149.389Z" transform="translate(-299.302 -65.941)" fill="#e06234"/>
      <path id="Caminho_229" data-name="Caminho 229" d="M642.018,157.444a2.544,2.544,0,0,0,.147.491.79.79,0,0,0,.314.294,1.035,1.035,0,0,0,.854,0,1.291,1.291,0,0,0,.407-.3.819.819,0,0,1,.182-.186c.319-.147.231.344.2.491a.255.255,0,0,0,.172.309,1.914,1.914,0,0,0,1.3-.079.417.417,0,0,1,.319,0c0-.2.034-.407.049-.608a.545.545,0,0,0-.236,0,5.215,5.215,0,0,0-.54.226,1.1,1.1,0,0,1-.55.029c.044-.388-.029-.824-.491-.927-.55-.128-.692.545-1.148.623-.579.1-.491-.618-.829-.913-.025,0-.049-.025-.074-.044l-.2.4A.554.554,0,0,1,642.018,157.444Z" transform="translate(-297.376 -70.301)" fill="#e06234"/>
      <path id="Caminho_230" data-name="Caminho 230" d="M638.264,165.956a1.472,1.472,0,0,0,1.217-.108c.231-.113.432-.275.653-.4a.854.854,0,0,1,.491-.142c.162,0,.358.118.236.309a.289.289,0,0,0,0,.294.908.908,0,0,0,1.114.324,2.5,2.5,0,0,1,.329-.088c.255-.025.3.118.383.319a1.276,1.276,0,0,0,.353.52,1.872,1.872,0,0,0,.206.137l.1-.736a.755.755,0,0,1-.113-.182c-.142-.329-.294-.6-.687-.658a1.536,1.536,0,0,0-.628.083.854.854,0,0,1-.461.059.8.8,0,0,0-.609-.942c-.746-.182-1.212.491-1.865.687-.432.113-.77-.044-.78-.491a.775.775,0,0,0-.172-.545l-.373.648v.054A.982.982,0,0,0,638.264,165.956Z" transform="translate(-295.222 -74.146)" fill="#e06234"/>
      <path id="Caminho_231" data-name="Caminho 231" d="M634.41,172.8c.142.29.133.623.3.9a1.344,1.344,0,0,0,.53.491,1.148,1.148,0,0,0,.7.128A1.7,1.7,0,0,0,636.6,174a.55.55,0,0,1,.761.162c.133.2.128.417.343.564a2.171,2.171,0,0,0,1.708.049c.294-.093.633-.3.839.034a1.351,1.351,0,0,1,.108.226c.049-.245.1-.491.147-.741-.451-.407-.981-.059-1.472.049a1.639,1.639,0,0,1-.981-.025c-.2-.132-.24-.491-.432-.682a1.109,1.109,0,0,0-1.193-.177c-.265.132-.442.373-.765.29a.893.893,0,0,1-.594-.672,1.394,1.394,0,0,0-.888-1.08,1.771,1.771,0,0,0-.55-.093l-.265.432a.981.981,0,0,1,1.04.466Z" transform="translate(-293.037 -77.966)" fill="#e06234"/>
      <path id="Caminho_232" data-name="Caminho 232" d="M628.218,181.549a.981.981,0,0,1,.491.569,2.708,2.708,0,0,0,.167.653,1.222,1.222,0,0,0,.981.54,6.357,6.357,0,0,0,1.61-.383.947.947,0,0,1,.712.093c.255.182.216.53.231.81.034.491.25.731.77.7a4.022,4.022,0,0,0,.766-.128c.28-.074.53-.231.8-.3s.324.2.412.383a2,2,0,0,0,.373.589,1.6,1.6,0,0,0,.329.26c.069-.226.142-.451.206-.677a1.409,1.409,0,0,1-.378-.491c-.172-.353-.407-.712-.854-.7a2.032,2.032,0,0,0-.7.24,3.4,3.4,0,0,1-.981.231h-.167a1.574,1.574,0,0,1-.024-.4,1.63,1.63,0,0,0-.177-.7,1.256,1.256,0,0,0-1.119-.53c-.584,0-1.075.378-1.649.432a.854.854,0,0,1-.623-.162c-.191-.167-.157-.456-.245-.682a1.433,1.433,0,0,0-1.59-.864c-.083.123-.167.245-.245.368A1.546,1.546,0,0,1,628.218,181.549Z" transform="translate(-289.956 -82.6)" fill="#e06234"/>
      <path id="Caminho_233" data-name="Caminho 233" d="M621.631,192.2a1.29,1.29,0,0,1,.447.662,1.246,1.246,0,0,0,.913.873,2.4,2.4,0,0,0,1.472-.4,1.065,1.065,0,0,1,1.516.456c.108.245,0,.491.1.746a.741.741,0,0,0,.555.343,1.575,1.575,0,0,0,.692-.069,2.027,2.027,0,0,1,.785-.206c.28.044.265.348.3.574a1.187,1.187,0,0,0,.275.643,1.9,1.9,0,0,0,1.138.491c.1-.231.206-.456.3-.687a1.962,1.962,0,0,1-.78-.186c-.245-.128-.26-.353-.309-.6a.981.981,0,0,0-.883-.908,1.825,1.825,0,0,0-.707.132c-.2.069-.525.24-.756.162a1.669,1.669,0,0,0-1.212-1.639,1.8,1.8,0,0,0-1.227.137c-.373.167-.9.574-1.315.343-.324-.182-.393-.677-.589-.981a1.4,1.4,0,0,0-.878-.564,2.454,2.454,0,0,0-1.472.236c-.137.2-.27.4-.4.6a5.285,5.285,0,0,1,1.232-.339,1.256,1.256,0,0,1,.8.177Z" transform="translate(-286.024 -87.95)" fill="#e06234"/>
      <path id="Caminho_234" data-name="Caminho 234" d="M615.746,203.711c.186.412.25.918.643,1.2.569.417,1.129,0,1.688-.206a.9.9,0,0,1,.937.123c.265.27.069.648.113.981a.981.981,0,0,0,.981.81c.618.044,1.08-.393,1.668-.437a.652.652,0,0,1,.682.451c.079.285,0,.569.133.844a.981.981,0,0,0,.451.412c.128-.2.25-.4.373-.608a.364.364,0,0,1-.108-.049c-.24-.157-.123-.525-.191-.78a1.315,1.315,0,0,0-1.1-.923c-.653-.064-1.143.432-1.766.451-.324,0-.52-.093-.491-.442a1.472,1.472,0,0,0-.1-.883,1.33,1.33,0,0,0-1.369-.608,3.087,3.087,0,0,0-.9.329c-.358.167-.662.206-.869-.177s-.3-.927-.731-1.246a3,3,0,0,0-2.984.074c-.064.108-.128.216-.2.324a5.888,5.888,0,0,1,1.634-.319A1.439,1.439,0,0,1,615.746,203.711Z" transform="translate(-282.464 -93.594)" fill="#e06234"/>
      <path id="Caminho_235" data-name="Caminho 235" d="M608.679,212.347a1.438,1.438,0,0,1,.8.334c.236.211.26.491.4.746a1.207,1.207,0,0,0,1.173.535,13.608,13.608,0,0,0,1.575-.491.746.746,0,0,1,.662.142c.236.221.034.491,0,.731a1.021,1.021,0,0,0,.819,1.06,1.369,1.369,0,0,0,.815-.093c.25-.1.55-.393.78-.118.427.525.3,1.271.491,1.874a.942.942,0,0,0,.829.628l.427-.638a.753.753,0,0,1-.579-.177,1.276,1.276,0,0,1-.054-.407,4.252,4.252,0,0,0-.083-.491,2.193,2.193,0,0,0-.81-1.472c-.6-.329-.981.28-1.536.29a.456.456,0,0,1-.456-.285.751.751,0,0,1,.069-.4.937.937,0,0,0-.059-.672,1.266,1.266,0,0,0-1.124-.608c-.584,0-1.045.383-1.595.52a.932.932,0,0,1-.751-.074c-.216-.152-.265-.491-.427-.716a2.066,2.066,0,0,0-2.527-.393c-.064.128-.137.245-.2.373l-.044.083A3.062,3.062,0,0,1,608.679,212.347Z" transform="translate(-279.75 -98.353)" fill="#e06234"/>
      <path id="Caminho_236" data-name="Caminho 236" d="M604.873,220.638c.309,0,.368.093.437.378a2.5,2.5,0,0,0,.187.618,1.713,1.713,0,0,0,2.184.761c.236-.1.53-.319.77-.147a1.058,1.058,0,0,1,.314.77,1.664,1.664,0,0,0,.672,1.325.9.9,0,0,0,.584.113c.2-.034.491-.29.638-.162s.172.491.191.687a1.812,1.812,0,0,0,.182.736,1.212,1.212,0,0,0,.756.545c.133-.206.27-.412.407-.618a.981.981,0,0,1-.456-.137c-.24-.167-.231-.491-.26-.741a1.3,1.3,0,0,0-.623-1.109.731.731,0,0,0-.574,0c-.289.1-.491.324-.707,0-.314-.442-.172-1.084-.461-1.556a1.021,1.021,0,0,0-1.163-.491c-.491.142-.859.466-1.394.226s-.55-.594-.682-1.045a.893.893,0,0,0-1.016-.721,7.42,7.42,0,0,0-1.634.358c-.108.236-.211.491-.314.707h0A6.732,6.732,0,0,1,604.873,220.638Z" transform="translate(-277.524 -102.492)" fill="#e06234"/>
      <path id="Caminho_237" data-name="Caminho 237" d="M601.874,228.048c.28.044.358.3.437.54a1.825,1.825,0,0,0,.554.952,1.551,1.551,0,0,0,1.143.25c.447-.064.981-.447,1.266.083.231.4-.034.869.133,1.286a.742.742,0,0,0,.334.378c.172.088.412.044.564.132s.133.353.206.491a1.255,1.255,0,0,0,.363.451,2.822,2.822,0,0,0,1.335.491c.123-.206.245-.417.373-.623a.846.846,0,0,1-.329-.044c-.388-.064-.981-.167-1.163-.569-.083-.177-.059-.378-.172-.545a.721.721,0,0,0-.491-.3c-.2-.044-.427,0-.491-.25s.054-.491,0-.716a1.349,1.349,0,0,0-.574-.952,1.379,1.379,0,0,0-1.276,0,.873.873,0,0,1-1.168-.412,2.452,2.452,0,0,0-.525-.981,1.405,1.405,0,0,0-1.472,0,8.934,8.934,0,0,0-.981.427c-.088.245-.177.491-.26.736.451-.182.873-.461,1.34-.628a1.786,1.786,0,0,1,.854-.2Z" transform="translate(-275.879 -106.281)" fill="#e06234"/>
      <path id="Caminho_238" data-name="Caminho 238" d="M598.707,237.673c.417,0,.339.343.339.648a1.021,1.021,0,0,0,.128.564c.3.456.873.309,1.271.093.319-.177.613-.368.766.088a6.6,6.6,0,0,0,.206.692.932.932,0,0,0,.437.491c.275.123.491,0,.751,0,.368-.044.427.451.53.707a1.217,1.217,0,0,0,.427.564,2.115,2.115,0,0,0,1.349.25c.113-.226.231-.451.348-.672-.447.069-1.187.182-1.472-.216s-.236-.824-.628-1.1a.819.819,0,0,0-.52-.147c-.24,0-.491.211-.657-.054-.206-.348-.142-.795-.427-1.114a.883.883,0,0,0-1.1-.137c-.187.093-.383.289-.594.309-.314.034-.24-.3-.245-.52a.864.864,0,0,0-.491-.864,2.065,2.065,0,0,0-1.472.226l-.294.123-.133.574c.162-.074.324-.147.491-.206A2.836,2.836,0,0,1,598.707,237.673Z" transform="translate(-274.626 -111.214)" fill="#e06234"/>
      <path id="Caminho_239" data-name="Caminho 239" d="M598.046,248.427a1.556,1.556,0,0,0,1.045.692,1.757,1.757,0,0,0,.7-.039c.231-.054.422-.216.643-.275.334-.088.407.348.491.584a1.331,1.331,0,0,0,.407.574,1.266,1.266,0,0,0,1.232.177l.1-.044c.108-.275.226-.54.339-.81-.442.123-.9.525-1.31.172s-.309-.888-.751-1.168-.785.049-1.207.2a1.119,1.119,0,0,1-1.364-.491,2.115,2.115,0,0,0-1.016-.741,2.012,2.012,0,0,0-1.58.147,5.6,5.6,0,0,1-.049.564,1.531,1.531,0,0,1,1.035-.348A1.7,1.7,0,0,1,598.046,248.427Z" transform="translate(-273.862 -116.296)" fill="#e06234"/>
      <path id="Caminho_240" data-name="Caminho 240" d="M596.18,257.466a1.624,1.624,0,0,1,.584-.147c.27,0,.3.182.427.378a1.443,1.443,0,0,0,1.752.535c.29-.128.643-.628.981-.6s.491.491.726.628a.981.981,0,0,0,.888.177c.064-.24.128-.491.2-.731a.677.677,0,0,1-.564.162c-.319-.083-.491-.515-.785-.7a.918.918,0,0,0-.981,0c-.353.211-.589.6-1.04.574s-.594-.353-.864-.672a.981.981,0,0,0-.981-.255,3.205,3.205,0,0,0-.878.339c0,.211.029.427.044.638A1.614,1.614,0,0,1,596.18,257.466Z" transform="translate(-273.822 -121.193)" fill="#e06234"/>
      <path id="Caminho_241" data-name="Caminho 241" d="M597.841,264.219a1.963,1.963,0,0,0,1.86-.628c.294-.27.53-.491.932-.3a2.452,2.452,0,0,0,.658.245c.049-.142.093-.28.128-.407s.039-.142.054-.216a1.649,1.649,0,0,1-.658-.216c-.716-.314-1.187.147-1.7.589a1.413,1.413,0,0,1-.957.407c-.348,0-.633-.26-.981-.314a1.585,1.585,0,0,0-.869.118c.029.172.059.339.093.491a.982.982,0,0,1,.491-.137C597.252,263.856,597.507,264.121,597.841,264.219Z" transform="translate(-274.163 -124.153)" fill="#e06234"/>
      <path id="Caminho_242" data-name="Caminho 242" d="M598.575,270.415a.7.7,0,0,0,.741.083c.206-.113.3-.314.555-.329a.525.525,0,0,1,.427.2c.113-.191.226-.393.344-.6a1.153,1.153,0,0,0-1.286-.137,1.474,1.474,0,0,0-.29.236c-.088.079-.093.059-.206,0a2.223,2.223,0,0,0-.751-.324,1.423,1.423,0,0,0-.589.049c.049.157.093.309.142.461a.722.722,0,0,1,.231,0C598.177,270.057,598.354,270.263,598.575,270.415Z" transform="translate(-274.779 -127.67)" fill="#a5ddef"/>
      <path id="Caminho_243" data-name="Caminho 243" d="M598.226,228.654a.61.61,0,0,0,.083-.079l.064-.069.088-.108.074-.1.1-.133.088-.128.1-.147.1-.157c.034-.049.064-.1.1-.157s.078-.118.113-.182l.1-.157.123-.216.088-.147.133-.245.074-.132.152-.275a1.04,1.04,0,0,1,.054-.1l.162-.314a.228.228,0,0,1,.025-.049,16.023,16.023,0,0,0,.81-1.86c-.034-.55-.069-1.094-.083-1.639a47.017,47.017,0,0,1,.6-8.941,22.253,22.253,0,0,1,.947-4.416,18.723,18.723,0,0,1,1.06-1.963c1.026-1.914,2.066-3.823,3.077-5.751a40.387,40.387,0,0,0,2.512-5.609,23.627,23.627,0,0,0,1.148-6.149,41.869,41.869,0,0,0,0-4.642c-.373.55-.746,1.094-1.114,1.644-2.615,3.842-5.216,7.7-7.454,11.777h0c-.093.167-.191.334-.28.491a49.522,49.522,0,0,0-5.069,13.249,30.768,30.768,0,0,0,.059,13.818c.142.569.314,1.129.491,1.678,0,.054.761,1.384,1.315,1.3a.217.217,0,0,0,.093-.049A.147.147,0,0,0,598.226,228.654Z" transform="translate(-273.719 -84.53)" fill="rgba(173,72,36,0.73)" opacity="0.85"/>
      <path id="Caminho_244" data-name="Caminho 244" d="M593.224,138.664c-1.536-5.2-3.332-10.359-4.279-15.7-.118-.662-.221-1.335-.314-2a.373.373,0,0,0-.658-.182c-2.743,3.7-2.66,8.533-2.851,12.925a113.256,113.256,0,0,1-2.13,16.1c-1,5.3-2.115,10.658-2.758,16.056a61.834,61.834,0,0,0-.132,15,34.89,34.89,0,0,0,4.568,13.872A23.367,23.367,0,0,0,586.7,197.7c.952.432,2.012-.265,2.7-1.011a4.789,4.789,0,0,0,1.089-3.194c.034-1.32-.133-2.645-.172-3.96s-.029-2.772.039-4.156a52.579,52.579,0,0,1,1.065-8.21c.53-2.537,1.222-5.03,1.9-7.527,1.369-5,2.723-10.059,2.723-15.251C596.046,149.023,594.74,143.777,593.224,138.664Z" transform="translate(-265.709 -51.86)" fill="#ff8a5f"/>
      <path id="Caminho_245" data-name="Caminho 245" d="M593.838,131.489c.432.054.653-.162.952-.432a1.541,1.541,0,0,1,1.109-.358c-.039-.182-.083-.363-.123-.545a2.027,2.027,0,0,0-1.384.491c-.216.2-.324.319-.643.236a3.052,3.052,0,0,1-.682-.344c-.255-.152-.491-.314-.77-.447-.049.186-.088.378-.128.569.2.1.388.216.564.324A3.091,3.091,0,0,0,593.838,131.489Z" transform="translate(-272.054 -56.672)" fill="#e06234"/>
      <path id="Caminho_246" data-name="Caminho 246" d="M592.26,142.37a1.276,1.276,0,0,0,.981.294,1.673,1.673,0,0,0,.815-.559.711.711,0,0,1,.427-.275,1.011,1.011,0,0,1,.525.216,1.6,1.6,0,0,0,1.094.27,2.2,2.2,0,0,0,.726-.285c-.054-.191-.113-.383-.172-.574a1.173,1.173,0,0,1-1.266.132,1.555,1.555,0,0,0-1.085-.324c-.388.093-.6.407-.869.667-.491.447-.952,0-1.3-.378a2.11,2.11,0,0,0-1.084-.756h-.1v.491a.982.982,0,0,1,.319.128C591.667,141.629,591.9,142.066,592.26,142.37Z" transform="translate(-271.438 -62.127)" fill="#e06234"/>
      <path id="Caminho_247" data-name="Caminho 247" d="M591.747,153.947a1.423,1.423,0,0,0,.981.638,1.659,1.659,0,0,0,1.06-.491,2.174,2.174,0,0,1,1.276-.584c.525-.025.932.3,1.438.339a3.155,3.155,0,0,0,1.369-.383l.236-.108c-.064-.206-.123-.407-.186-.608-.182.083-.358.167-.54.24a1.8,1.8,0,0,1-.9.221c-.265-.044-.491-.191-.756-.26a2.355,2.355,0,0,0-1.413.074,10.066,10.066,0,0,0-1.222.829c-.54.309-.8-.294-1.173-.594a2.124,2.124,0,0,0-1.212-.442,2.416,2.416,0,0,0-.373,0,4.668,4.668,0,0,1-.049.52,1.731,1.731,0,0,1,.319,0A1.58,1.58,0,0,1,591.747,153.947Z" transform="translate(-271.092 -68.213)" fill="#e06234"/>
      <path id="Caminho_248" data-name="Caminho 248" d="M590.691,164.683a1.5,1.5,0,0,0,1.33.216,1.035,1.035,0,0,0,.491-.344c.162-.2.231-.491.427-.658.535-.491.947.128,1.33.437a1.654,1.654,0,0,0,1.33.324,4.715,4.715,0,0,0,1.281-.7c.491-.275.839.172,1.3.348a1.055,1.055,0,0,0,1.016-.152l-.191-.721a1.469,1.469,0,0,1-.25.221c-.3.2-.52,0-.78-.152a1.276,1.276,0,0,0-1.227-.142c-.422.186-.746.584-1.2.712-.658.177-.981-.3-1.423-.658a1.241,1.241,0,0,0-1.227-.172,1.153,1.153,0,0,0-.491.348c-.167.2-.226.491-.422.672-.491.412-1.1-.1-1.423-.442a4.015,4.015,0,0,0-1.286-1.1h-.034a3.6,3.6,0,0,1-.074.55C589.715,163.593,590.156,164.33,590.691,164.683Z" transform="translate(-270.526 -73.29)" fill="#e06234"/>
      <path id="Caminho_249" data-name="Caminho 249" d="M587.684,176.3c.348.52.491,1.163,1.134,1.433a1.875,1.875,0,0,0,1.585-.123c.491-.255,1.055-1.163,1.673-.981.285.079.432.417.638.608a1.743,1.743,0,0,0,.721.4,1.776,1.776,0,0,0,1.56-.368c.442-.339.981-.981,1.575-.491.221.186.294.491.559.638a1.192,1.192,0,0,0,.834.1,3.435,3.435,0,0,0,1.433-.775c-.039-.265-.074-.53-.118-.795a6.865,6.865,0,0,1-.981.731c-.211.113-.579.294-.815.162-.132-.074-.2-.26-.294-.373a1.37,1.37,0,0,0-.373-.319,1.433,1.433,0,0,0-1.555.093c-.491.329-.878.888-1.531.79s-.834-.864-1.472-1.031a1.849,1.849,0,0,0-1.639.677c-.447.407-1.183.854-1.776.393a3.923,3.923,0,0,1-.653-.981,2.668,2.668,0,0,0-.7-.712,1.522,1.522,0,0,0-.28-.147c-.029.167-.059.339-.093.491A1.879,1.879,0,0,1,587.684,176.3Z" transform="translate(-269.482 -79.662)" fill="#e06234"/>
      <path id="Caminho_250" data-name="Caminho 250" d="M585.44,188.493a1.808,1.808,0,0,0,.893,1.472,2.6,2.6,0,0,0,1.909-.206,4.39,4.39,0,0,0,.908-.55,2.154,2.154,0,0,1,.913-.491,1.379,1.379,0,0,1,1.472.844,1.025,1.025,0,0,0,1.443.491c.27-.128.491-.353.751-.491a1.143,1.143,0,0,1,1.026,0c.28.152.427.447.692.623a1.507,1.507,0,0,0,.873.2,4.878,4.878,0,0,0,2.051-.608l.27-.137q0-.432.029-.869l-.221.128a6.38,6.38,0,0,1-1.791.77,1.114,1.114,0,0,1-.937-.118,2.945,2.945,0,0,0-.731-.6,1.8,1.8,0,0,0-1.683.088c-.25.157-.491.432-.785.491-.383.074-.491-.417-.677-.662a1.963,1.963,0,0,0-1.418-.78,2.169,2.169,0,0,0-1.575.584,2.967,2.967,0,0,1-2.135.78c-.819-.152-.687-1.408-1.021-1.963a1.82,1.82,0,0,0-.692-.672l-.1.554A1.963,1.963,0,0,1,585.44,188.493Z" transform="translate(-268.352 -85.564)" fill="#e06234"/>
      <path id="Caminho_251" data-name="Caminho 251" d="M583.058,203.165a1.6,1.6,0,0,0,1.766.623,3.224,3.224,0,0,0,.981-.348c.4-.216.7-.491,1.188-.437.29.049.775.147.873.466a2.676,2.676,0,0,1,0,.525.981.981,0,0,0,.186.491,1.276,1.276,0,0,0,1.639.172c.329-.182.608-.456.952-.613a1.187,1.187,0,0,1,1.119.2c.334.186.314.491.555.765a1.2,1.2,0,0,0,.869.324,4.234,4.234,0,0,0,2.233-.559,2.258,2.258,0,0,1,.643-.255h.049c.059-.26.113-.52.172-.785a2.335,2.335,0,0,0-.922.221,4.729,4.729,0,0,1-2.11.643c-.226,0-.339,0-.451-.191a3.762,3.762,0,0,0-.186-.373,1.825,1.825,0,0,0-.785-.54,1.708,1.708,0,0,0-1.835.162,2.832,2.832,0,0,1-.937.564.55.55,0,0,1-.412-.049c-.191-.123-.147-.358-.157-.555-.029-.677-.491-.981-1.114-1.153a1.9,1.9,0,0,0-.937-.059,3.459,3.459,0,0,0-.913.491,2.611,2.611,0,0,1-1.237.353,1.027,1.027,0,0,1-.981-.667,2.944,2.944,0,0,0-1.07-1.256c-.029.172-.054.344-.083.515a2.118,2.118,0,0,1,.363.393A4.656,4.656,0,0,1,583.058,203.165Z" transform="translate(-266.951 -92.949)" fill="#e06234"/>
      <path id="Caminho_252" data-name="Caminho 252" d="M581.16,216.477a1.732,1.732,0,0,0,1.325,1.006,1.919,1.919,0,0,0,1.619-.564c.309-.27.613-.54,1.04-.334a3.165,3.165,0,0,1,.937.815,2.453,2.453,0,0,1,.461.947.918.918,0,0,0,.608.633,1.614,1.614,0,0,0,.927,0,3.492,3.492,0,0,0,.918-.53,1.61,1.61,0,0,1,1.9.343,3.463,3.463,0,0,0,.687.653,1.536,1.536,0,0,0,1.016.079,4.542,4.542,0,0,0,.608-.182l.255-.947-.319.157a2.5,2.5,0,0,1-.981.285c-.388,0-.579-.4-.849-.628a2.6,2.6,0,0,0-1.825-.667,1.825,1.825,0,0,0-.864.3c-.329.226-.584.52-1.016.535-.2,0-.393,0-.491-.206s-.1-.329-.167-.491a2.527,2.527,0,0,0-.623-.815,2.452,2.452,0,0,0-1.767-.849c-.7.064-1.026.741-1.659.849a1.188,1.188,0,0,1-1.026-.339,5.1,5.1,0,0,1-.491-.918,1.266,1.266,0,0,0-.981-.6c0,.182-.044.363-.059.55a.556.556,0,0,1,.152.029C580.924,215.746,581,216.153,581.16,216.477Z" transform="translate(-266.034 -99.921)" fill="#e06234"/>
      <path id="Caminho_253" data-name="Caminho 253" d="M581.466,228.432c.221-.157.461-.442.741-.491s.77.422.981.643a3.843,3.843,0,0,0,1.472,1.158,1.639,1.639,0,0,0,1.585-.432c.2-.2.4-.535.726-.368s.491.569.795.8a1.575,1.575,0,0,0,1.546.191c.613-.24.874-.873,1.526-1.035a2.664,2.664,0,0,1,1.148-.029c.054-.231.113-.456.167-.687a3.013,3.013,0,0,0-.981-.074,2.272,2.272,0,0,0-1.555.672c-.353.393-.815.8-1.374.491s-.711-.937-1.384-1.011c-.569-.064-.8.373-1.192.687-.559.451-1.148.1-1.57-.334a5.359,5.359,0,0,0-1.418-1.2c-.574-.265-1.031.074-1.472.417a1.59,1.59,0,0,1-1.021.437.82.82,0,0,1-.525-.221v.618c.029,0,.049.039.074.049A1.762,1.762,0,0,0,581.466,228.432Z" transform="translate(-265.683 -106.189)" fill="#e06234"/>
      <path id="Caminho_254" data-name="Caminho 254" d="M580.8,239.207a2.041,2.041,0,0,0,1.2.839,1.869,1.869,0,0,0,1.394-.221,1.4,1.4,0,0,0,.447-.491.893.893,0,0,1,.81-.491c.245,0,.623-.039.81.152s.231.491.491.7a1.222,1.222,0,0,0,1.364,0,3.535,3.535,0,0,0,.662-.608.461.461,0,0,1,.427-.2,1.785,1.785,0,0,1,.451.083c.319.093.461.314.7.52a1.33,1.33,0,0,0,.707.3,1.963,1.963,0,0,0,.795-.069c.039-.26.074-.52.118-.78a1.3,1.3,0,0,1-1.016.118c-.26-.108-.417-.388-.648-.545a2.046,2.046,0,0,0-.8-.275,1.393,1.393,0,0,0-.79,0c-.3.128-.491.437-.711.658a.908.908,0,0,1-.731.348c-.3-.059-.363-.437-.545-.638a1.766,1.766,0,0,0-1.472-.348,1.526,1.526,0,0,0-.682.231c-.26.172-.378.451-.594.662a1.222,1.222,0,0,1-1.4.142c-.569-.3-.756-1.011-1.291-1.364a1.246,1.246,0,0,0-.491-.191,2.826,2.826,0,0,0,.039.574A3.263,3.263,0,0,1,580.8,239.207Z" transform="translate(-265.861 -111.498)" fill="#e06234"/>
      <path id="Caminho_255" data-name="Caminho 255" d="M582.044,247.958c.491.157.55.819.952,1.1a1.163,1.163,0,0,0,1.138.079,1.1,1.1,0,0,0,.491-.388c.157-.26.142-.6.525-.623a2.3,2.3,0,0,1,1.585.451c.368.344.638.819,1.222.775s.658-.491.981-.81a.79.79,0,0,1,.653-.186c.27.039.412.24.648.343a1.05,1.05,0,0,0,.981-.142,8.8,8.8,0,0,1,.079-.952.057.057,0,0,0,0,.025c-.177.142-.451.417-.687.442s-.456-.231-.667-.3a1.57,1.57,0,0,0-1.3.191,2.053,2.053,0,0,0-.442.456c-.064.083-.152.236-.26.27s-.339-.113-.447-.206a2.493,2.493,0,0,0-1.286-.707,2.787,2.787,0,0,0-1.472.039c-.388.2-.491.7-.952.824-.608.177-.756-.535-1.1-.864a1.472,1.472,0,0,0-1.34-.28l-.142.029.088.461a1.4,1.4,0,0,1,.746-.034Z" transform="translate(-266.472 -116.44)" fill="#e06234"/>
      <path id="Caminho_256" data-name="Caminho 256" d="M584.389,257.839c.491.191.741.682,1.212.888a1.762,1.762,0,0,0,2.2-.8c.3-.53,1.06,0,1.305.334s.559.682,1.075.491a2.542,2.542,0,0,0,1.178-.913c.137-.191.226-.427.491-.491a1.516,1.516,0,0,1,.564.064v-.7a2.89,2.89,0,0,0-.368-.054,1.178,1.178,0,0,0-1.124.52,3.245,3.245,0,0,1-.442.53,2.22,2.22,0,0,1-.3.216c-.133.079-.226.157-.348.064s-.24-.344-.388-.491a2,2,0,0,0-.574-.363,1.507,1.507,0,0,0-1.345,0c-.353.231-.432.687-.844.869a1.133,1.133,0,0,1-1.173-.177,2.257,2.257,0,0,0-1.384-.54,2.39,2.39,0,0,0-.324,0c.044.137.093.27.137.4A1.2,1.2,0,0,1,584.389,257.839Z" transform="translate(-267.792 -121.13)" fill="#e06234"/>
      <path id="Caminho_257" data-name="Caminho 257" d="M588.525,266.527c.555.078.981.447,1.541.53a1.241,1.241,0,0,0,1.089-.378c.118-.113.245-.3.407-.368s.393.113.55.236c.319.245.736.491,1.119.2a2.305,2.305,0,0,0,.319-.427,1.359,1.359,0,0,1,.4-.324,3.782,3.782,0,0,1,.491-.211,4.477,4.477,0,0,0-.039-.726,5.156,5.156,0,0,0-.981.456,1.633,1.633,0,0,0-.422.378,2.494,2.494,0,0,1-.152.221c0,.1-.059.1-.1.025l-.083-.054a1.541,1.541,0,0,0-1.119-.491c-.412.054-.643.363-.932.618-.432.373-.981,0-1.472-.118a2.6,2.6,0,0,0-1.654.088c.069.142.133.29.206.427A1.751,1.751,0,0,1,588.525,266.527Z" transform="translate(-269.671 -125.412)" fill="#e06234"/>
      <path id="Caminho_258" data-name="Caminho 258" d="M566.485,198.959c-.417-1.345-.893-2.655-1.2-4.029-1.241-5.55-.824-11.286-.334-16.92.206-2.375.407-4.755.574-7.14a.529.529,0,0,1,.025-.083,1.03,1.03,0,0,0,0-.456c.216-3.332.344-6.674.24-10.02a53.3,53.3,0,0,0-2.723-16.031,35.871,35.871,0,0,0-7.439-12.557c-.417-.451-.854-.893-1.3-1.32a.373.373,0,0,0-.608.373,61.649,61.649,0,0,1,.869,15.5c-.309,5.216-1.03,10.393-1.619,15.585a104.308,104.308,0,0,0-.824,14.481,45.577,45.577,0,0,0,2.4,14.122,33.679,33.679,0,0,0,7.071,11.635,8.711,8.711,0,0,1,.819.829,2.512,2.512,0,0,0,1.56,1.114,2.4,2.4,0,0,0,2.453-1.472A4.874,4.874,0,0,0,566.485,198.959Z" transform="translate(-251.664 -56.783)" fill="#ff8a5f"/>
      <path id="Caminho_259" data-name="Caminho 259" d="M557.732,138.57c.236-.2.442-.815.78-.78s.442.427.731.491a.937.937,0,0,0,.839-.221l.039-.034c-.088-.113-.177-.221-.26-.334a.712.712,0,0,1-.216.162c-.26.118-.412,0-.584-.191a.741.741,0,0,0-.785-.294c-.378.113-.491.491-.731.756-.334.388-.721.074-1.035-.191.025.2.044.393.069.594a1.408,1.408,0,0,0,.226.123.868.868,0,0,0,.927-.079Z" transform="translate(-253.893 -60.367)" fill="#e06234"/>
      <path id="Caminho_260" data-name="Caminho 260" d="M558.633,146a.9.9,0,0,0,.942,0,.628.628,0,0,0,.25-.388c.039-.206-.113-.491.1-.643a1.438,1.438,0,0,1,.761-.093,1.737,1.737,0,0,1,.7.343,1.212,1.212,0,0,0,1.08.064,1.574,1.574,0,0,0,.294-.167c-.088-.152-.172-.3-.26-.451a.785.785,0,0,1-.491.24,1.531,1.531,0,0,1-.721-.324,1.433,1.433,0,0,0-.7-.167c-.348,0-.927,0-1.158.329a.79.79,0,0,0-.1.55c.039.437-.3.334-.559.182a5.031,5.031,0,0,0-1.4-.608l-.172-.034c0,.172.024.343.034.515l.128.029a6.28,6.28,0,0,1,1.271.623Z" transform="translate(-254.244 -63.97)" fill="#e06234"/>
      <path id="Caminho_261" data-name="Caminho 261" d="M558.808,153.185a1.379,1.379,0,0,0,2.262.2c.839-.932,2.046.4,2.988-.348a7.976,7.976,0,0,0,.594-.545c-.093-.211-.182-.432-.28-.643a3,3,0,0,0-.353.309c-.226.24-.407.559-.775.545a6.2,6.2,0,0,1-.844-.2,1.786,1.786,0,0,0-1.511.255c-.211.172-.339.432-.589.554a.854.854,0,0,1-.864-.079c-.427-.319-.574-.854-1.075-1.109a1.845,1.845,0,0,0-.981-.177v.393a1.624,1.624,0,0,1,.221,0A1.526,1.526,0,0,1,558.808,153.185Z" transform="translate(-254.336 -67.754)" fill="#e06234"/>
      <path id="Caminho_262" data-name="Caminho 262" d="M557.71,163.428a3.224,3.224,0,0,0,1.089,1.178c.844.432,1.551-.152,2.076-.766a3.345,3.345,0,0,1,.839-.824c.491-.265.893.1,1.246.407a2.689,2.689,0,0,0,3.072.6,2.845,2.845,0,0,0,.54-.4c-.064-.245-.133-.491-.2-.736a2.316,2.316,0,0,1-1.192.736,2.164,2.164,0,0,1-1.811-.682,1.963,1.963,0,0,0-1.389-.662,1.727,1.727,0,0,0-1.08.574c-.589.608-1.256,1.9-2.2,1.016-.491-.461-.731-1.153-1.354-1.472l-.177-.074v.525A2.371,2.371,0,0,1,557.71,163.428Z" transform="translate(-254.229 -73.066)" fill="#e06234"/>
      <path id="Caminho_263" data-name="Caminho 263" d="M557.521,177a3.646,3.646,0,0,0,1.624.54,2.454,2.454,0,0,0,1.59-.221,1.526,1.526,0,0,0,.491-.491,2.022,2.022,0,0,0,.211-.731c.128-.55,1.315-.064,1.609.132.815.545,1.408,1.6,2.552,1.241a3.072,3.072,0,0,0,1.31-1.05c.083-.108.182-.221.28-.329-.039-.3-.083-.6-.128-.893a10.381,10.381,0,0,0-.981,1.026c-.363.4-.829.751-1.369.456a11.567,11.567,0,0,1-1.163-.981c-.677-.491-2.566-1.06-2.807.2a1.267,1.267,0,0,1-.231.712,1.183,1.183,0,0,1-.859.334,3.17,3.17,0,0,1-1.855-.456c-.54-.388-.824-1.035-1.291-1.472a2.263,2.263,0,0,0-.451-.339,5.716,5.716,0,0,1-.064.574C556.564,175.745,556.976,176.594,557.521,177Z" transform="translate(-253.628 -79.376)" fill="#e06234"/>
      <path id="Caminho_264" data-name="Caminho 264" d="M555.5,190.139a2.9,2.9,0,0,0,1.394,1.217,1.708,1.708,0,0,0,1.443-.294,6.383,6.383,0,0,1,1.276-.9c.491-.172.908.177,1.246.491a4.519,4.519,0,0,0,1.114.913,1.551,1.551,0,0,0,1.443-.074c.491-.28.942-.864,1.551-.878s1.418.839,2.036.447v-1.075c-.137.231-.3.451-.442.437a2.773,2.773,0,0,1-.525-.265,3.188,3.188,0,0,0-.451-.177,1.874,1.874,0,0,0-1.04-.025,5.657,5.657,0,0,0-1.374.883.981.981,0,0,1-1.3-.167c-.692-.613-1.369-1.531-2.424-1.188-.918.3-1.737,1.879-2.792,1.143-.608-.427-.893-1.173-1.516-1.585a1.59,1.59,0,0,0-.623-.25,4.028,4.028,0,0,1-.049.417A2.487,2.487,0,0,1,555.5,190.139Z" transform="translate(-252.854 -86.568)" fill="#e06234"/>
      <path id="Caminho_265" data-name="Caminho 265" d="M555.524,205.663a2.718,2.718,0,0,0,1.286,1.124,1.575,1.575,0,0,0,1.4-.4,6.332,6.332,0,0,1,1.232-1.035,1.752,1.752,0,0,1,1.781.437c.491.407.731.942,1.472.839s1.138-.8,1.821-.829c.569,0,.981.491,1.472.579l.044-.741a3.307,3.307,0,0,1-.7-.4,1.791,1.791,0,0,0-1.011-.167,2.017,2.017,0,0,0-.844.339c-.28.191-.584.52-.942.535s-.525-.358-.751-.569a3.25,3.25,0,0,0-.8-.55,2.189,2.189,0,0,0-1.7-.132,3.7,3.7,0,0,0-1.256.981c-.412.407-.869.775-1.418.334s-.8-.981-1.271-1.408a3.288,3.288,0,0,0-2.453-.918l-.044.491A3.343,3.343,0,0,1,555.524,205.663Z" transform="translate(-252.024 -94.152)" fill="#e06234"/>
      <path id="Caminho_266" data-name="Caminho 266" d="M553.394,217.592c.751.24.981.834,1.325,1.472a1.791,1.791,0,0,0,1.472,1.035,2.5,2.5,0,0,0,1.762-.569c.451-.363.878-.913,1.516-.638a6.94,6.94,0,0,1,1.271.932,1.865,1.865,0,0,0,1.472.437,3.845,3.845,0,0,0,1.433-.9.775.775,0,0,1,.908-.049,2.1,2.1,0,0,0,.726.191l.059-.716a.981.981,0,0,1-.3-.049,2.536,2.536,0,0,0-.981-.29,1.59,1.59,0,0,0-.795.319c-.422.3-.864.923-1.448.81a3.269,3.269,0,0,1-1.34-.883,2.125,2.125,0,0,0-1.472-.579c-.741.064-1.129.682-1.693,1.065a1.359,1.359,0,0,1-1.924-.177c-.4-.569-.555-1.222-1.163-1.624a3.3,3.3,0,0,0-1.963-.422v.491h.113A3.469,3.469,0,0,1,553.394,217.592Z" transform="translate(-251.728 -100.903)" fill="#e06234"/>
      <path id="Caminho_267" data-name="Caminho 267" d="M553.226,230.833a9.583,9.583,0,0,1,1.472,1.178,2.233,2.233,0,0,0,1.639.53,3.234,3.234,0,0,0,1.335-.795.908.908,0,0,1,.707-.231,4.417,4.417,0,0,1,1.1.378,4.771,4.771,0,0,0,1.688.712,2.527,2.527,0,0,0,1.344-.491c.427-.255.844-.55,1.354-.368a2.626,2.626,0,0,0,1.026.182c0-.245.034-.491.054-.736a1.129,1.129,0,0,1-.667-.064,2.036,2.036,0,0,0-.795-.177,2.88,2.88,0,0,0-1.34.54c-.466.285-.869.545-1.413.28-.981-.491-2.331-1.408-3.386-.613-.451.343-.829.864-1.472.756a3.91,3.91,0,0,1-1.664-1.045,2.454,2.454,0,0,0-1.556-.677.981.981,0,0,0-.172.025,2.383,2.383,0,0,0,.034.491,1.393,1.393,0,0,1,.711.128Z" transform="translate(-251.84 -107.652)" fill="#e06234"/>
      <path id="Caminho_268" data-name="Caminho 268" d="M555.389,243.978c.4.29.7.692,1.124.947a1.757,1.757,0,0,0,2.453-.677c.1-.2.162-.427.275-.623.2-.339.54-.285.854-.137a2.775,2.775,0,0,1,.716.491,5.731,5.731,0,0,0,.579.613c.491.329,1.148-.162,1.575-.388a2.134,2.134,0,0,1,1.752-.358c.285.123.491.378.766.491a1.075,1.075,0,0,0,.24.059v-.761a1.782,1.782,0,0,1-.388-.27,1.625,1.625,0,0,0-.761-.3,2.866,2.866,0,0,0-1.629.339c-.265.132-.52.285-.785.417-.108.059-.314.206-.432.152s-.236-.27-.314-.348c-.653-.633-2.022-1.433-2.7-.417-.28.417-.314.952-.81,1.2a1.212,1.212,0,0,1-1.389-.28,3.038,3.038,0,0,0-1.374-.839,1.821,1.821,0,0,0-.589,0c.029.147.064.294.1.437A1.241,1.241,0,0,1,555.389,243.978Z" transform="translate(-252.895 -114.035)" fill="#e06234"/>
      <path id="Caminho_269" data-name="Caminho 269" d="M557.853,253.238a2.586,2.586,0,0,1,1.188.981c.26.309.638.923,1.129.79a.981.981,0,0,0,.491-.451,5.063,5.063,0,0,1,.643-.766,1.5,1.5,0,0,1,.314-.275c.182-.1.329,0,.491.074.314.152.623.314.932.491.491.26.981.569,1.546.211s.893-.834,1.443-1.124a1.507,1.507,0,0,1,.795-.2,1.065,1.065,0,0,1,.442.162c-.03-.28-.054-.554-.074-.834h-.049a2.2,2.2,0,0,0-1.639.339,6,6,0,0,0-.657.491c-.206.182-.535.6-.815.613s-.648-.27-.883-.388c-.324-.157-.643-.334-.981-.491-.594-.26-1.021.059-1.433.491a4.548,4.548,0,0,0-.549.677c-.059.088-.133.3-.206.358l-.029.025s.025-.034,0-.059a1.856,1.856,0,0,1-.191-.2,5.923,5.923,0,0,0-1.2-1.153,1.909,1.909,0,0,0-1.33-.221c.054.152.113.3.172.447A1.163,1.163,0,0,1,557.853,253.238Z" transform="translate(-254.26 -118.894)" fill="#e06234"/>
      <path id="Caminho_270" data-name="Caminho 270" d="M564.7,262.387a1.752,1.752,0,0,0,1.438,0,3.141,3.141,0,0,0,1.016-.981c.289-.388.7-.981,1.271-.883.491.1.844.555,1.359.648a1.8,1.8,0,0,0,.864-.079.735.735,0,0,0-.044-.172l-.1-.491c-.559.211-.942-.059-1.433-.339-1.035-.594-1.875.108-2.454.942-.289.4-.653.981-1.217.942a5.355,5.355,0,0,1-.864-.2,2.6,2.6,0,0,0-.677-.034,2.65,2.65,0,0,0-1.271.456c.078.137.152.275.231.407A2.331,2.331,0,0,1,564.7,262.387Z" transform="translate(-256.989 -122.768)" fill="#e06234"/>
      <path id="Caminho_271" data-name="Caminho 271" d="M569.176,270.2a3.437,3.437,0,0,1,.736.142,1.864,1.864,0,0,0,.687.152c.491-.039.692-.491,1.026-.8a1.791,1.791,0,0,1,1.354-.442,10.228,10.228,0,0,1,1.192.329l-.059-.216-.187-.594-.137-.049a2.6,2.6,0,0,0-2.664.491c-.172.157-.275.4-.452.54s-.412,0-.633-.039a4.328,4.328,0,0,0-1.526-.108,4.548,4.548,0,0,0-1.4.378c.128.167.26.324.388.491A3.8,3.8,0,0,1,569.176,270.2Z" transform="translate(-259.291 -127.188)" fill="#e06234"/>
      <path id="Caminho_272" data-name="Caminho 272" d="M561.826,235.915a17.612,17.612,0,0,0-2.944-2.733c-2.041-1.556-4.308-2.792-6.492-4.142a43.256,43.256,0,0,0,2.282,11.7,33.678,33.678,0,0,0,7.071,11.635,8.722,8.722,0,0,1,.819.829,2.513,2.513,0,0,0,1.56,1.114,2.4,2.4,0,0,0,2.453-1.472,4.969,4.969,0,0,0,0-3.587c-.417-1.345-.893-2.655-1.2-4.029a33.863,33.863,0,0,1-.677-4.593c-.157-.3-.3-.613-.461-.913A20.524,20.524,0,0,0,561.826,235.915Z" transform="translate(-251.795 -107.067)" fill="rgba(173,72,36,0.73)" opacity="0.85"/>
      <path id="Caminho_273" data-name="Caminho 273" d="M642.735,221.2c-6.728,3.891-13.5,7.783-20.821,10.462-3.538,1.291-7.164,2.38-10.589,3.97a35.556,35.556,0,0,0-8.739,5.751,33.495,33.495,0,0,0-4.009,4.249,9.178,9.178,0,0,0-2.208,4.392.775.775,0,0,0,.309.815c1.3,1.035,3.2.81,4.725.206,1.87-.746,3.293-2.233,4.809-3.5a30.84,30.84,0,0,1,16.36-6.943c2.012-.221,4.039-.3,6.031-.677a11.536,11.536,0,0,0,5.2-2.257,13.74,13.74,0,0,0,3.366-4.308c2.036-3.828,2.944-8.381,6.021-11.576a.373.373,0,0,0-.451-.584Z" transform="translate(-274.182 -103.049)" fill="#ff8a5f"/>
      <path id="Caminho_274" data-name="Caminho 274" d="M686.761,224.286a2.117,2.117,0,0,0,.054-.432.663.663,0,0,0-.407-.555l-.9.491.27-.049c.167-.025.491-.064.491.191s-.133.554.064.824a.918.918,0,0,0,.55.324l.319-.491a.643.643,0,0,1-.393-.123.2.2,0,0,1-.049-.182Z" transform="translate(-319.592 -104.143)" fill="#e06234"/>
      <path id="Caminho_275" data-name="Caminho 275" d="M682.145,229.334c.024-.132.186-.285.245-.4a.7.7,0,0,0-.157-.869,1.134,1.134,0,0,0-1.084-.113c-.172.049-.442.162-.618.064s-.088-.353-.069-.515a1.4,1.4,0,0,0-.034-.608l-.54.3a1.969,1.969,0,0,1-.025.4.849.849,0,0,0,.373.927,1.428,1.428,0,0,0,1.109-.029c.142-.034.422-.128.535,0s-.054.27-.118.368a.751.751,0,0,0-.088.883,1.109,1.109,0,0,0,.677.373l.24-.55-.132-.029C682.326,229.525,682.115,229.505,682.145,229.334Z" transform="translate(-316.703 -105.972)" fill="#e06234"/>
      <path id="Caminho_276" data-name="Caminho 276" d="M676.227,235.816a.77.77,0,0,0-.525-.427c-.3-.069-.608.108-.893.029-.422-.113-.319-.491-.275-.834a.9.9,0,0,0-.113-.667,1.1,1.1,0,0,0-1.232-.28c-.3.069-.692.221-.8-.182a7.423,7.423,0,0,1-.034-.815,1.6,1.6,0,0,0-.555-.981c-.152.083-.3.167-.461.245a1.075,1.075,0,0,1,.437.623c.133.491-.108,1.045.24,1.472s.932.26,1.418.167a.785.785,0,0,1,.412,0c.2.1.118.309.093.491a1.315,1.315,0,0,0,.029.716,1.06,1.06,0,0,0,1.207.618c.152,0,.378-.1.491.074.059.088.025.285.034.388a1.507,1.507,0,0,0,.172.7,1.794,1.794,0,0,0,.152.211c.118-.255.231-.491.343-.77a1.141,1.141,0,0,1-.024-.137A1.963,1.963,0,0,0,676.227,235.816Z" transform="translate(-312.375 -108.401)" fill="#e06234"/>
      <path id="Caminho_277" data-name="Caminho 277" d="M669.272,243.055a2.7,2.7,0,0,0-.815-.132c-.412-.074-.1-.545,0-.78a3.481,3.481,0,0,0,.275-.981c.069-.535.044-1.163-.574-1.325a2.543,2.543,0,0,0-.795,0h-.491a1.8,1.8,0,0,1-.608-.029c-.118-.054-.093,0,0-.152a2.144,2.144,0,0,0,.206-.353,1.163,1.163,0,0,0,0-.824,1.335,1.335,0,0,0-1.138-.829c-.289-.025-.682.1-.942-.044s-.074-.6,0-.844a1.241,1.241,0,0,0-.231-1.359l-.6.285a.491.491,0,0,1,.339.643c-.118.491-.466.981-.157,1.506s.927.407,1.443.427a.682.682,0,0,1,.692.491c.064.348-.26.54-.363.844-.186.574.334.834.81.883a6.38,6.38,0,0,0,1.016.029c.152,0,.309-.034.461-.029s.216.083.221.294a2.507,2.507,0,0,1-.24,1.016,2.159,2.159,0,0,0-.285.908.918.918,0,0,0,.981.9.78.78,0,0,1,.628.211c.162-.177.319-.363.491-.55a1.184,1.184,0,0,0-.324-.206Z" transform="translate(-308.413 -110.306)" fill="#e06234"/>
      <path id="Caminho_278" data-name="Caminho 278" d="M657.571,248.293c-.3-.064-.7-.059-.873-.353-.348-.589.388-1.286.491-1.855a.923.923,0,0,0-.711-1.124c-.231-.034-.559.074-.751-.1s0-.643.083-.893a1.261,1.261,0,0,0-.491-1.472,3.021,3.021,0,0,0-1.6-.216c-.4,0-.824-.093-.707-.589.093-.378.285-.712.344-1.1a1.761,1.761,0,0,0,0-.324l-.53.216a.789.789,0,0,1-.054.206,7,7,0,0,0-.368,1.08.952.952,0,0,0,.8,1.045c.555.137,1.32-.132,1.8.206.584.407-.088,1.2-.039,1.737a1.05,1.05,0,0,0,1.139.864c.147,0,.289-.044.383.1s0,.334-.054.451c-.137.309-.339.579-.447.9a1.413,1.413,0,0,0,.417,1.61c.491.339,1.207.147,1.516.707,0,.029.034.064.054.1.226-.059.451-.118.677-.186a1.822,1.822,0,0,0-.383-.643A1.472,1.472,0,0,0,657.571,248.293Z" transform="translate(-302.728 -112.786)" fill="#e06234"/>
      <path id="Caminho_279" data-name="Caminho 279" d="M646.922,251.385c-.083-.064-.186-.1-.27-.162s-.132-.1-.083-.27c.078-.29.236-.555.314-.844a1.124,1.124,0,0,0-.314-1.237c-.152-.133-.339-.226-.491-.353a.628.628,0,0,1-.162-.766,3.037,3.037,0,0,0,.294-1.369,1.03,1.03,0,0,0-.815-.815c-.491-.128-1.472-.108-1.2-.859.142-.432.716-.731.54-1.232l-.422.147a.392.392,0,0,1-.059.157c-.118.211-.348.343-.466.564a1.1,1.1,0,0,0,0,1.212,2.316,2.316,0,0,0,1.3.491c.255.054.491.137.55.432a1.571,1.571,0,0,1-.191.766,1.634,1.634,0,0,0-.108,1.335,1.261,1.261,0,0,0,.383.437c.167.128.422.231.525.422.28.491-.4,1.173-.417,1.673a.623.623,0,0,0,.186.491c.147.147.393.2.515.358v.025h.093l.613-.059A.953.953,0,0,0,646.922,251.385Z" transform="translate(-298.252 -114.421)" fill="#e06234"/>
      <path id="Caminho_280" data-name="Caminho 280" d="M636.566,254.166a3.536,3.536,0,0,1,.236-.766,1.08,1.08,0,0,0-.466-1.31c-.177-.108-.388-.172-.564-.285-.348-.221-.206-.564-.054-.878a2.232,2.232,0,0,0,.344-1.644,1.163,1.163,0,0,0-.4-.589,1.1,1.1,0,0,0-.285-.162,1.327,1.327,0,0,0-.2-.044.334.334,0,0,1,.029-.3,1.07,1.07,0,0,0-.162-1.075l-.515.191a.4.4,0,0,1,.157.054c.3.206.064.574,0,.815a.726.726,0,0,0,.039.6c.162.24.451.182.648.363.53.491-.029,1.232-.25,1.722a1.094,1.094,0,0,0,.152,1.33c.344.309,1.06.353.981.937-.083.491-.422.908-.26,1.433a.9.9,0,0,0,.339.456c.3-.093.6-.177.9-.26l-.118-.079C636.826,254.549,636.557,254.5,636.566,254.166Z" transform="translate(-293.628 -116.27)" fill="#e06234"/>
      <path id="Caminho_281" data-name="Caminho 281" d="M627.253,257.466a.815.815,0,0,0-.417-1.222,3.764,3.764,0,0,1-.913-.265c-.344-.24-.123-.564,0-.868a1.1,1.1,0,0,0-.329-1.359c-.226-.152-.648-.123-.81-.329s-.029-.584.039-.829c.137-.491.083-.981-.447-1.163-.3.147-.6.3-.9.461a1.237,1.237,0,0,1,.79.093c.137.123.093.24.044.407s-.074.211-.1.314a1.57,1.57,0,0,0-.049.6.9.9,0,0,0,.653.78c.236.074.491.074.6.339s-.059.491-.152.731a1.035,1.035,0,0,0,.1,1.134,1.31,1.31,0,0,0,.52.339,4.623,4.623,0,0,1,.756.206c.245.162,0,.451-.128.638a1.238,1.238,0,0,0-.191.613.741.741,0,0,0,.422.638c.285-.132.569-.265.859-.388-.147-.054-.294-.083-.451-.142C626.778,258.089,627.141,257.7,627.253,257.466Z" transform="translate(-288 -118.47)" fill="#e06234"/>
      <path id="Caminho_282" data-name="Caminho 282" d="M620.751,260.343a1.252,1.252,0,0,0-.613-.123c-.26,0-.491,0-.515-.3a7.364,7.364,0,0,1,.162-1.634.888.888,0,0,0-.491-.981c-.245-.088-.491-.044-.716-.231a.766.766,0,0,1-.147-.829c.108-.4.294-.981-.078-1.3h0c-.245.152-.491.3-.731.456.167-.025.324-.029.378.044a4.148,4.148,0,0,1-.191.878,1.271,1.271,0,0,0,.348,1.183,1.192,1.192,0,0,0,.589.314c.1.025.339,0,.4.093a.577.577,0,0,1,.034.339,15.876,15.876,0,0,0-.191,1.585.981.981,0,0,0,.54.957,1.876,1.876,0,0,0,.677.083c.339.025.393.206.4.525s-.059.574-.059.869l.692-.432V261.5A1.232,1.232,0,0,0,620.751,260.343Z" transform="translate(-285.016 -120.263)" fill="#e06234"/>
      <path id="Caminho_283" data-name="Caminho 283" d="M613.573,266.157c-.363-.216-1.536.132-1.472-.52a5.108,5.108,0,0,0,.142-.819,1.536,1.536,0,0,0-.177-.643,1.649,1.649,0,0,0-1.011-.834,2.492,2.492,0,0,0-.716-.039c-.142,0-.383.024-.442-.157s.064-.294.1-.407a.667.667,0,0,0-.491-.913,1.368,1.368,0,0,0-.285-.034l-.334.29-.147.137a1.119,1.119,0,0,1,.525-.025c.422.093.2.393.118.653a.746.746,0,0,0,.569.981c.491.123.981-.093,1.4.353a1.011,1.011,0,0,1,.27.638,5.948,5.948,0,0,1-.172.81.952.952,0,0,0,.712,1.006,3.879,3.879,0,0,0,.923.069c.265.024.191.324.221.535a1.6,1.6,0,0,0,.083.309l.574-.432C613.9,266.761,613.937,266.378,613.573,266.157Z" transform="translate(-280.493 -123.746)" fill="#e06234"/>
      <path id="Caminho_284" data-name="Caminho 284" d="M607.512,272.768c0-.113.083-.28.088-.4a.663.663,0,0,0-.059-.334.794.794,0,0,0-.4-.363c-.491-.231-1.143-.186-1.34-.81-.137-.422.123-1.021-.339-1.315a1.119,1.119,0,0,0-.682-.083c-.157,0-.393.034-.491-.093s0-.417.054-.574c.1-.388.029-.844-.422-.952a2.649,2.649,0,0,0-.667-.054c-.137.157-.28.3-.417.461.491-.039.981,0,1.065.118s-.128.491-.172.628a.785.785,0,0,0,.074.628c.25.407.707.368,1.119.388.2,0,.285,0,.285.226v.368a1.6,1.6,0,0,0,.152.638,1.659,1.659,0,0,0,1.05.815c.157.049.417.054.54.167s-.039.432,0,.638a.756.756,0,0,0,.231.491c.167-.128.329-.26.491-.393a.289.289,0,0,1-.162-.191Z" transform="translate(-277.489 -126.799)" fill="#e06234"/>
      <path id="Caminho_285" data-name="Caminho 285" d="M602.43,277.5a1.055,1.055,0,0,0-.638-.079c-.191,0-.407,0-.491-.182a1.33,1.33,0,0,1-.069-.491,1.472,1.472,0,0,0-.339-1.021,1.339,1.339,0,0,0-1.04-.245c-.4.025-.707.049-.834-.388-.108-.358-.221-.741-.6-.883-.074.118-.147.24-.216.368a.807.807,0,0,1,.108.083,1.385,1.385,0,0,1,.182.579.981.981,0,0,0,.633.775,6,6,0,0,0,1.109.049c.417.054.378.466.4.795a1.31,1.31,0,0,0,.348.981,1.026,1.026,0,0,0,.559.191,2.355,2.355,0,0,0,.373,0h.167a.055.055,0,0,0,0,.024.3.3,0,0,1,.034.088c.088-.029.172-.054.255-.088s.221-.1.329-.152A.7.7,0,0,0,602.43,277.5Z" transform="translate(-275.125 -130.072)" fill="#a5ddef"/>
      <path id="Caminho_286" data-name="Caminho 286" d="M608.693,263.129a30.841,30.841,0,0,1,16.36-6.943c2.012-.221,4.038-.3,6.031-.677a11.536,11.536,0,0,0,5.2-2.257l.2-.167c-2.493-.152-4.937-.854-7.41-1.183a13.429,13.429,0,0,0-4.387.059,13.664,13.664,0,0,0-3.518,1.271c-2.287,1.158-4.323,2.738-6.531,4.019a16.636,16.636,0,0,1-3.484,1.585,30.106,30.106,0,0,1-4.593.712,8.013,8.013,0,0,0-3.759,1.359c-.824.623-2,1.963-1.423,3.1.7,1.349,2.5.054,3.435-.27A11.733,11.733,0,0,1,608.693,263.129Z" transform="translate(-276.663 -118.633)" fill="rgba(173,72,36,0.73)" opacity="0.85"/>
      <path id="Caminho_287" data-name="Caminho 287" d="M542.608,244.828a13.247,13.247,0,0,0-1.668-2.611,3.757,3.757,0,0,1-.25-.3,34.463,34.463,0,0,0-8.342-9.947c-.981-.746-2.022-1.433-3.072-2.09a14.665,14.665,0,0,0-1.291-.79c-3.926-2.326-8.136-4.2-12.2-6.3a54.193,54.193,0,0,1-9.132-5.7.388.388,0,0,0-.638.186c-.8,4.186.815,8.4,3.435,11.63,2.831,3.5,6.816,5.756,10.849,7.621,4.132,1.889,8.45,3.391,12.405,5.658a25.518,25.518,0,0,1,5.354,3.965,7.759,7.759,0,0,0,2.37,1.894,1.806,1.806,0,0,0,2.3-.667A2.834,2.834,0,0,0,542.608,244.828Z" transform="translate(-228.072 -100.925)" fill="#ff8a5f"/>
      <path id="Caminho_288" data-name="Caminho 288" d="M507.969,227.958c.491-.294,1.065-.034,1.58.083a1.313,1.313,0,0,0,1.673-.716,8.678,8.678,0,0,1,.275-.981c.221-.422.795-.2,1.173-.265a1.771,1.771,0,0,0,1.035-.658l-.339-.191a1.133,1.133,0,0,1-.491.432c-.422.2-.878-.034-1.3.137-.677.275-.52,1.065-.849,1.58-.285.442-.873.334-1.31.226a2.557,2.557,0,0,0-1.3-.118,1.713,1.713,0,0,0-.746.53c.044.132.088.265.142.4A1.237,1.237,0,0,1,507.969,227.958Z" transform="translate(-228.866 -105.126)" fill="#e06234"/>
      <path id="Caminho_289" data-name="Caminho 289" d="M513.914,233.19a1.521,1.521,0,0,0,2.12-1.315,2.185,2.185,0,0,1,.265-.667c.2-.29.412-.27.746-.25a1.354,1.354,0,0,0,1.114-.491,5.854,5.854,0,0,0,.672-1.2.107.107,0,0,0,.025-.039l-.491-.24c-.142.27-.255.559-.412.824a1.325,1.325,0,0,1-.589.6c-.265.093-.535-.025-.8,0a1.246,1.246,0,0,0-.888.815c-.182.422-.187,1.075-.559,1.394a1.315,1.315,0,0,1-.937.147c-.353,0-.7-.079-1.05-.108a2.847,2.847,0,0,0-2.454.618l.137.216C511.691,232.817,512.878,233.058,513.914,233.19Z" transform="translate(-230.547 -107.041)" fill="#e06234"/>
      <path id="Caminho_290" data-name="Caminho 290" d="M517.945,238.5c.824.029,1.771-.177,1.9-1.134.059-.461-.186-1.094.206-1.472s1.251-.123,1.8-.236a1.658,1.658,0,0,0,.981-.672,1.778,1.778,0,0,0,.265-.559c.074-.294.074-.574.373-.746.417-.24.981-.118,1.31-.53a1.144,1.144,0,0,0,.162-.329l-.491-.24a.584.584,0,0,1-.216.373,2.366,2.366,0,0,1-.613.167,1.6,1.6,0,0,0-.525.26c-.373.294-.319.672-.491,1.08a1.394,1.394,0,0,1-1.325.869,2.748,2.748,0,0,0-1.349.206,1.153,1.153,0,0,0-.491.947c-.059.422.029,1.006-.319,1.32a2.153,2.153,0,0,1-1.443.275,7.531,7.531,0,0,0-2.105.083c.1.108.216.2.319.3a3.19,3.19,0,0,1,.447-.049C516.9,238.419,517.42,238.483,517.945,238.5Z" transform="translate(-233.047 -108.87)" fill="#e06234"/>
      <path id="Caminho_291" data-name="Caminho 291" d="M506.542,222.467a.8.8,0,0,0,.653.029.447.447,0,0,0,.226-.491c-.039-.221-.236-.515.1-.574s.53.147.79.2a1.055,1.055,0,0,0,.712-.093,1.374,1.374,0,0,0,.437-.348l-.3-.2a.922.922,0,0,1-.515.339c-.491.1-.883-.412-1.374-.162a.491.491,0,0,0-.29.4.888.888,0,0,0,.049.3c.034.1.142.275.054.373-.157.172-.608-.074-.79-.1a1.58,1.58,0,0,0-.456,0v.24a1.619,1.619,0,0,1,.7.088Z" transform="translate(-228.087 -102.967)" fill="#e06234"/>
      <path id="Caminho_292" data-name="Caminho 292" d="M525.2,243.156a4.1,4.1,0,0,0,.913.079,1.291,1.291,0,0,0,1.07-.795c.221-.545-.059-1.374.613-1.649.52-.211.981.309,1.536.172a1.168,1.168,0,0,0,.844-.981,3.108,3.108,0,0,0-.118-.77c-.034-.432.54-.432.829-.427a1.845,1.845,0,0,0,1.472-.491,1.472,1.472,0,0,0,.4-1.34l-.628-.324a.964.964,0,0,0,.044.226,1.08,1.08,0,0,1-.039.888,1.114,1.114,0,0,1-.677.491c-.55.133-1.158-.113-1.624.314a.756.756,0,0,0-.26.491c-.039.324.182.6.123.932a.667.667,0,0,1-.667.559c-.285,0-.525-.231-.815-.265a1.212,1.212,0,0,0-1.183.608c-.285.525,0,1.241-.451,1.693a1.251,1.251,0,0,1-1.158.216,3.961,3.961,0,0,0-1.05,0,8.8,8.8,0,0,0-1.575.353l.339.236c.319-.054.633-.123.947-.172A3.822,3.822,0,0,1,525.2,243.156Z" transform="translate(-236.725 -110.932)" fill="#e06234"/>
      <path id="Caminho_293" data-name="Caminho 293" d="M534.754,248.061a1.394,1.394,0,0,0,.231-.618c.029-.167.044-.3.226-.368a1.811,1.811,0,0,1,.432-.034,2.542,2.542,0,0,0,1.241-.491,2.454,2.454,0,0,0,.844-1.07c.216-.52.2-1.114.893-1.158a3.762,3.762,0,0,0,2.561-.731,2.046,2.046,0,0,0,.584-1.413,7.452,7.452,0,0,0-.034-.873c-.182-.108-.368-.211-.555-.314a8.935,8.935,0,0,1,.029,1.305,1.472,1.472,0,0,1-1.085,1.281,7.358,7.358,0,0,1-1.668.191,1.217,1.217,0,0,0-1.045.937,2.453,2.453,0,0,1-.923,1.472,1.964,1.964,0,0,1-.775.3,2.983,2.983,0,0,0-.81.108c-.594.27-.324,1.035-.869,1.349a2.527,2.527,0,0,1-1.129.226h-.054l.981.491A1.6,1.6,0,0,0,534.754,248.061Z" transform="translate(-241.843 -113.153)" fill="#e06234"/>
      <path id="Caminho_294" data-name="Caminho 294" d="M543.136,253.5a1.438,1.438,0,0,0,1.227-.393,3.534,3.534,0,0,0,.569-1.251,1.4,1.4,0,0,1,.432-.672,1.335,1.335,0,0,1,.922-.152,2.051,2.051,0,0,0,1.521-.245.981.981,0,0,0,.339-.491c.069-.25-.108-.608.113-.79s.682-.034.981,0a1.673,1.673,0,0,0,.731,0c.53-.147.7-.643.766-1.138a3.533,3.533,0,0,1,.108-.589c-.133-.1-.26-.216-.4-.319l-.029-.025c-.172.407-.118.854-.28,1.266-.265.667-1.242.093-1.762.191a.834.834,0,0,0-.731.908c.039.358,0,.613-.4.731a3.336,3.336,0,0,1-1.06,0,1.5,1.5,0,0,0-1.315.491,5.263,5.263,0,0,0-.579,1.394,1.085,1.085,0,0,1-.525.648,2.974,2.974,0,0,1-1.085.044,6.5,6.5,0,0,0-1.344.172l.559.236A7.853,7.853,0,0,1,543.136,253.5Z" transform="translate(-246.167 -116.433)" fill="#e06234"/>
      <path id="Caminho_295" data-name="Caminho 295" d="M554.148,258.763c.981-.059,2.13.24,2.547-.9a9.23,9.23,0,0,1,.334-1.266c.314-.564,1.07-.221,1.57-.182a1.673,1.673,0,0,0,1.286-.491c-.128-.157-.26-.3-.388-.456a1.06,1.06,0,0,1-.6.378c-.555.113-1.109-.211-1.673-.049a1.241,1.241,0,0,0-.8.952c-.108.412-.078.981-.388,1.31-.4.432-1.237.221-1.767.25a5.265,5.265,0,0,0-3.121,1.148l.4.186a5.959,5.959,0,0,1,.8-.442A5.236,5.236,0,0,1,554.148,258.763Z" transform="translate(-251.158 -120.527)" fill="#e06234"/>
      <path id="Caminho_296" data-name="Caminho 296" d="M560.424,264.421c.412.093.981.3,1.374.064a1.089,1.089,0,0,0,.417-.981c0-.314,0-.677.339-.8a.785.785,0,0,1,.7.113.908.908,0,0,0,1.153,0,1.434,1.434,0,0,0,.378-.564c.049-.118.088-.24.137-.363.093-.231.245-.27.491-.265s.447,0,.662,0c-.133-.2-.28-.393-.417-.589h-.108c-.491,0-.878.039-1.094.491a7.605,7.605,0,0,1-.29.721.377.377,0,0,1-.491.216,2.882,2.882,0,0,1-.314-.182,1.207,1.207,0,0,0-1.055-.029,1.031,1.031,0,0,0-.574.888,5.7,5.7,0,0,1-.044.707c-.093.4-.451.363-.78.309a2.762,2.762,0,0,0-1.845.034l.324.177A2.3,2.3,0,0,1,560.424,264.421Z" transform="translate(-255.192 -123.359)" fill="#e06234"/>
      <path id="Caminho_297" data-name="Caminho 297" d="M566.8,269.808c.4.1.716.422,1.143.417.9,0,.922-1.1,1.325-1.654a.52.52,0,0,1,.491-.265,4.906,4.906,0,0,1,.559.221,1.56,1.56,0,0,0,1.3-.3l-.123-.162a3.735,3.735,0,0,1-.25-.3v-.029a.8.8,0,0,1-.79.2c-.378-.1-.638-.324-1.05-.191a1.344,1.344,0,0,0-.756.7,4.319,4.319,0,0,1-.491,1.124c-.3.329-.888-.123-1.256-.186a1.472,1.472,0,0,0-1.1.245c.118.079.235.157.348.24a1.05,1.05,0,0,1,.657-.054Z" transform="translate(-258.619 -126.754)" fill="#e06234"/>
      <path id="Caminho_298" data-name="Caminho 298" d="M552.765,261.46a34.31,34.31,0,0,0-3.469-2.743,18.728,18.728,0,0,0-3.926-1.811,17.7,17.7,0,0,1-3.867-1.875,16.284,16.284,0,0,0-3.469-1.963,9.294,9.294,0,0,0-4.328-.265c-1.124.152-2.257.432-3.4.667.815.422,1.644.829,2.454,1.207,4.132,1.889,8.45,3.391,12.405,5.658a25.518,25.518,0,0,1,5.354,3.965,7.76,7.76,0,0,0,2.37,1.894,1.806,1.806,0,0,0,2.3-.667,2.454,2.454,0,0,0,.108-1.924c-.236-.206-.491-.4-.707-.589Z" transform="translate(-240.549 -119.098)" fill="rgba(173,72,36,0.73)" opacity="0.85"/>
      <path id="Caminho_299" data-name="Caminho 299" d="M572.871,269.88c-10.761,0-19.481.667-19.481,1.5l4.416,32.916a1.767,1.767,0,0,0,1.752,1.531h26.616a1.766,1.766,0,0,0,1.752-1.531l4.416-32.916C592.352,270.547,583.622,269.88,572.871,269.88Z" transform="translate(-252.304 -127.866)" fill="#ea7449"/>
      <path id="Caminho_300" data-name="Caminho 300" d="M597.131,276.972c-2.669,3.052-4.691,6.674-7.778,9.348a13.878,13.878,0,0,1-2.454,1.713c-.8.437-1.639.795-2.453,1.237A6.757,6.757,0,0,0,582.4,290.9a6.662,6.662,0,0,0-1.143,2.429c-.26.913-.427,1.845-.751,2.733a8.434,8.434,0,0,1-1.565,2.571c-1.3,1.526-2.9,2.807-3.926,4.534a5.981,5.981,0,0,0-.888,4.043h22.572a1.767,1.767,0,0,0,1.752-1.531l4.416-32.916a.211.211,0,0,0-.108-.162A16.733,16.733,0,0,0,597.131,276.972Z" transform="translate(-262.834 -129.252)" fill="#be522b"/>
    </g>
  </g>
</svg>
