<svg xmlns="http://www.w3.org/2000/svg" xmlns:xlink="http://www.w3.org/1999/xlink" width="265.774" height="320.004" viewBox="0 0 265.774 320.004">
  <defs>
    <filter id="Caminho_15" x="160.126" y="26.066" width="74.572" height="74.572" filterUnits="userSpaceOnUse">
      <feOffset dy="3" input="SourceAlpha"/>
      <feGaussianBlur stdDeviation="3" result="blur"/>
      <feFlood flood-opacity="0.161"/>
      <feComposite operator="in" in2="blur"/>
      <feComposite in="SourceGraphic"/>
    </filter>
    <filter id="Caminho_16" x="172.34" y="97.151" width="72.303" height="72.303" filterUnits="userSpaceOnUse">
      <feOffset dy="3" input="SourceAlpha"/>
      <feGaussianBlur stdDeviation="3" result="blur-2"/>
      <feFlood flood-opacity="0.161"/>
      <feComposite operator="in" in2="blur-2"/>
      <feComposite in="SourceGraphic"/>
    </filter>
    <filter id="Caminho_58" x="5.109" y="71.168" width="59.887" height="49.582" filterUnits="userSpaceOnUse">
      <feOffset dy="3" input="SourceAlpha"/>
      <feGaussianBlur stdDeviation="3" result="blur-3"/>
      <feFlood flood-opacity="0.161"/>
      <feComposite operator="in" in2="blur-3"/>
      <feComposite in="SourceGraphic"/>
    </filter>
    <clipPath id="clip-path">
      <rect id="Retângulo_66" data-name="Retângulo 66" width="175.065" height="282.794" fill="none"/>
    </clipPath>
    <linearGradient id="linear-gradient" x1="0.5" y1="1" x2="0.5" gradientUnits="objectBoundingBox">
      <stop offset="0" stop-color="#153556"/>
      <stop offset="1" stop-color="#fff"/>
    </linearGradient>
    <clipPath id="clip-path-2">
      <rect id="Retângulo_67" data-name="Retângulo 67" width="9.902" height="5.341" fill="none"/>
    </clipPath>
    <filter id="Caminho_133" x="40.874" y="33.464" width="65.465" height="57.045" filterUnits="userSpaceOnUse">
      <feOffset dy="3" input="SourceAlpha"/>
      <feGaussianBlur stdDeviation="3" result="blur-4"/>
      <feFlood flood-opacity="0.161"/>
      <feComposite operator="in" in2="blur-4"/>
      <feComposite in="SourceGraphic"/>
    </filter>
  </defs>
  <g id="_3775330" data-name="3775330" transform="translate(-34.911 5.67)" style="isolation: isolate">
    <g id="BACKGROUND" transform="translate(34.911 26.396)">
      <path id="Caminho_13" data-name="Caminho 13" d="M290.812,198.78A79.2,79.2,0,1,0,370,277.974a79.2,79.2,0,0,0-79.185-79.194Z" transform="translate(-108.472 -92.096)" fill="#fff" style="mix-blend-mode: soft-light;isolation: isolate"/>
      <path id="Caminho_14" data-name="Caminho 14" d="M142.938,214.552a41.649,41.649,0,1,1-41.649-41.642A41.65,41.65,0,0,1,142.938,214.552Z" transform="translate(-59.64 -83.783)" fill="#fff" style="mix-blend-mode: soft-light;isolation: isolate"/>
      <g transform="matrix(1, 0, 0, 1, 0, -32.07)" filter="url(#Caminho_15)" style="mix-blend-mode: soft-light;isolation: isolate">
        <path id="Caminho_15-2" data-name="Caminho 15" d="M365.422,69.866A28.286,28.286,0,1,1,337.136,41.58,28.286,28.286,0,0,1,365.422,69.866Z" transform="translate(-139.72 -9.51)" fill="#fff"/>
      </g>
    </g>
    <g id="OBJECTS" transform="translate(38.255 -5.67)">
      <g transform="matrix(1, 0, 0, 1, -3.34, 0)" filter="url(#Caminho_16)">
        <path id="Caminho_16-2" data-name="Caminho 16" d="M378.053,186.056a27.146,27.146,0,1,1-11.5-36.647A27.146,27.146,0,0,1,378.053,186.056Z" transform="translate(-145.51 -43.17)" fill="#fff"/>
      </g>
      <rect id="Retângulo_59" data-name="Retângulo 59" width="4.744" height="6.033" transform="translate(213.944 106.961) rotate(-62.41)" fill="#fff"/>
      <rect id="Retângulo_60" data-name="Retângulo 60" width="4.737" height="11.205" rx="2" transform="translate(213.238 102.691) rotate(-62.42)" fill="#fff"/>
      <rect id="Retângulo_61" data-name="Retângulo 61" width="3.617" height="4.601" transform="matrix(0.954, -0.3, 0.3, 0.954, 229.758, 120.749)" fill="#fff"/>
      <rect id="Retângulo_62" data-name="Retângulo 62" width="3.617" height="8.544" rx="1.809" transform="translate(231.678 118.094) rotate(-17.42)" fill="#fff"/>
      <path id="Caminho_17" data-name="Caminho 17" d="M375.664,186.116a21.4,21.4,0,1,1-9.06-28.87A21.4,21.4,0,0,1,375.664,186.116Z" transform="translate(-151.565 -45.9)" fill="#f1772e"/>
      <path id="Caminho_18" data-name="Caminho 18" d="M368.429,186.327a3.862,3.862,0,1,1-1.636-5.205,3.862,3.862,0,0,1,1.636,5.205Z" transform="translate(-159.871 -54.214)" fill="#fff"/>
      <path id="Caminho_19" data-name="Caminho 19" d="M366.529,179.132a.326.326,0,0,1-.136-.434l8.11-15.521a.312.312,0,0,1,.434-.136.319.319,0,0,1,.136.434L366.97,179a.333.333,0,0,1-.441.136Z" transform="translate(-161.547 -48.532)" fill="#fff"/>
      <path id="Caminho_20" data-name="Caminho 20" d="M379.555,161.111a.319.319,0,0,1-.143-.434l.489-.93a.312.312,0,0,1,.434-.136.319.319,0,0,1,.142.434l-.489.93a.326.326,0,0,1-.434.136Z" transform="translate(-165.731 -47.43)" fill="#fff"/>
      <path id="Caminho_21" data-name="Caminho 21" d="M352.918,212.192a.319.319,0,0,1-.136-.434l.489-.93a.322.322,0,1,1,.57.3l-.482.93a.319.319,0,0,1-.441.136Z" transform="translate(-157.173 -63.846)" fill="#fff"/>
      <path id="Caminho_22" data-name="Caminho 22" d="M375.093,159.226a.326.326,0,0,1-.21-.407l.319-1a.321.321,0,0,1,.611.2l-.312,1a.326.326,0,0,1-.407.21Z" transform="translate(-164.282 -46.794)" fill="#fff"/>
      <path id="Caminho_23" data-name="Caminho 23" d="M357.683,214.164a.326.326,0,0,1-.21-.407l.319-1a.319.319,0,0,1,.407-.21.326.326,0,0,1,.2.407l-.312,1a.326.326,0,0,1-.407.21Z" transform="translate(-158.687 -64.447)" fill="#fff"/>
      <path id="Caminho_24" data-name="Caminho 24" d="M370.377,158.211a.326.326,0,0,1-.278-.366l.136-1.038a.326.326,0,0,1,.645.081l-.143,1.045a.319.319,0,0,1-.36.278Z" transform="translate(-162.749 -46.457)" fill="#fff"/>
      <path id="Caminho_25" data-name="Caminho 25" d="M362.77,215.282a.319.319,0,0,1-.271-.366l.136-1.038a.322.322,0,1,1,.638.081L363.136,215a.326.326,0,0,1-.366.278Z" transform="translate(-160.306 -64.791)" fill="#fff"/>
      <path id="Caminho_26" data-name="Caminho 26" d="M365.53,157.927a.319.319,0,0,1-.339-.305l-.041-1.052a.339.339,0,1,1,.679,0l.048,1.052a.333.333,0,0,1-.346.305Z" transform="translate(-161.159 -46.357)" fill="#fff"/>
      <path id="Caminho_27" data-name="Caminho 27" d="M367.96,215.542a.326.326,0,0,1-.333-.312l-.048-1.052a.326.326,0,0,1,.645,0l.048,1.052A.333.333,0,0,1,367.96,215.542Z" transform="translate(-161.94 -64.888)" fill="#fff"/>
      <path id="Caminho_28" data-name="Caminho 28" d="M360.648,158.562a.312.312,0,0,1-.38-.244l-.231-1.025a.333.333,0,0,1,.251-.387.319.319,0,0,1,.38.244l.231,1.032a.326.326,0,0,1-.251.38Z" transform="translate(-159.514 -46.572)" fill="#fff"/>
      <path id="Caminho_29" data-name="Caminho 29" d="M373.047,214.852a.333.333,0,0,1-.387-.244l-.224-1.032a.319.319,0,1,1,.624-.136l.231,1.025a.319.319,0,0,1-.244.387Z" transform="translate(-163.498 -64.66)" fill="#fff"/>
      <path id="Caminho_30" data-name="Caminho 30" d="M355.95,160.015a.319.319,0,0,1-.421-.176l-.4-.97a.326.326,0,1,1,.6-.244l.4.97a.326.326,0,0,1-.176.421Z" transform="translate(-157.925 -47.047)" fill="#fff"/>
      <path id="Caminho_31" data-name="Caminho 31" d="M377.939,213.316a.326.326,0,0,1-.421-.176l-.4-.97a.319.319,0,0,1,.176-.421.312.312,0,0,1,.414.176l.407.97a.326.326,0,0,1-.176.421Z" transform="translate(-164.997 -64.189)" fill="#fff"/>
      <path id="Caminho_32" data-name="Caminho 32" d="M351.589,162.3a.319.319,0,0,1-.441-.1l-.563-.889a.319.319,0,0,1,.1-.448.326.326,0,0,1,.448.1l.563.889a.312.312,0,0,1-.1.441Z" transform="translate(-156.461 -47.831)" fill="#fff"/>
      <path id="Caminho_33" data-name="Caminho 33" d="M382.5,210.956a.333.333,0,0,1-.448-.1l-.563-.889a.333.333,0,0,1,.1-.448.319.319,0,0,1,.441.1l.57.889a.319.319,0,0,1-.1.448Z" transform="translate(-166.394 -63.464)" fill="#fff"/>
      <path id="Caminho_34" data-name="Caminho 34" d="M347.682,165.293a.319.319,0,0,1-.455,0l-.713-.774a.322.322,0,1,1,.455-.455l.713.774a.319.319,0,0,1,0,.455Z" transform="translate(-155.14 -48.844)" fill="#fff"/>
      <path id="Caminho_35" data-name="Caminho 35" d="M386.573,207.848a.319.319,0,0,1-.455,0l-.679-.774a.322.322,0,0,1,.475-.434l.679.774A.319.319,0,0,1,386.573,207.848Z" transform="translate(-167.652 -62.522)" fill="#fff"/>
      <path id="Caminho_36" data-name="Caminho 36" d="M344.33,168.9a.326.326,0,0,1-.455.061l-.835-.679a.319.319,0,0,1-.061-.448.326.326,0,0,1,.455-.061l.835.638a.326.326,0,0,1,.061.489Z" transform="translate(-154.014 -50.043)" fill="#fff"/>
      <path id="Caminho_37" data-name="Caminho 37" d="M390.031,204.061a.326.326,0,0,1-.455.061l-.828-.645a.312.312,0,0,1-.061-.448.326.326,0,0,1,.455-.061l.828.638a.326.326,0,0,1,.061.455Z" transform="translate(-168.701 -61.355)" fill="#fff"/>
      <path id="Caminho_38" data-name="Caminho 38" d="M341.709,173.056a.326.326,0,0,1-.434.136l-.93-.489a.319.319,0,0,1-.143-.434.333.333,0,0,1,.441-.136l.93.489a.319.319,0,0,1,.136.434Z" transform="translate(-153.131 -51.455)" fill="#fff"/>
      <path id="Caminho_39" data-name="Caminho 39" d="M392.792,199.739a.312.312,0,0,1-.434.136l-.93-.482a.322.322,0,0,1,.3-.57l.93.482a.312.312,0,0,1,.136.434Z" transform="translate(-169.548 -60.032)" fill="#fff"/>
      <path id="Caminho_40" data-name="Caminho 40" d="M339.832,177.653a.312.312,0,0,1-.4.2l-1-.312a.326.326,0,0,1,.2-.618l1,.319a.319.319,0,0,1,.21.407Z" transform="translate(-152.509 -53.005)" fill="#fff"/>
      <path id="Caminho_41" data-name="Caminho 41" d="M394.772,195.006a.319.319,0,0,1-.407.21l-1-.312a.326.326,0,0,1,.2-.618l1,.319a.305.305,0,0,1,.21.4Z" transform="translate(-170.164 -58.584)" fill="#fff"/>
      <path id="Caminho_42" data-name="Caminho 42" d="M338.752,182.4a.319.319,0,0,1-.366.271l-1.038-.136a.322.322,0,0,1,.081-.638l1.045.136A.326.326,0,0,1,338.752,182.4Z" transform="translate(-152.135 -54.604)" fill="#fff"/>
      <path id="Caminho_43" data-name="Caminho 43" d="M395.875,190a.319.319,0,0,1-.36.278l-1.038-.136a.326.326,0,0,1-.278-.366.319.319,0,0,1,.36-.278l1.045.143a.312.312,0,0,1,.271.36Z" transform="translate(-170.493 -57.046)" fill="#fff"/>
      <path id="Caminho_44" data-name="Caminho 44" d="M338.526,187.292a.319.319,0,0,1-.312.333l-1.045.048a.326.326,0,0,1-.339-.312.319.319,0,0,1,.312-.333l1.045-.047a.319.319,0,0,1,.339.312Z" transform="translate(-152.059 -56.238)" fill="#fff"/>
      <path id="Caminho_45" data-name="Caminho 45" d="M396.107,184.855a.319.319,0,0,1-.312.339l-1.045.048a.332.332,0,0,1-.339-.312.326.326,0,0,1,.312-.339l1.052-.041a.319.319,0,0,1,.333.305Z" transform="translate(-170.562 -55.457)" fill="#fff"/>
      <path id="Caminho_46" data-name="Caminho 46" d="M339.229,192.08a.326.326,0,0,1-.244.387l-1.025.224a.326.326,0,0,1-.143-.631l1.025-.224a.319.319,0,0,1,.387.244Z" transform="translate(-152.306 -57.796)" fill="#fff"/>
      <path id="Caminho_47" data-name="Caminho 47" d="M395.443,179.688a.319.319,0,0,1-.244.38l-1.025.231a.333.333,0,0,1-.387-.251.319.319,0,0,1,.251-.38l1.025-.231a.326.326,0,0,1,.38.251Z" transform="translate(-170.359 -53.812)" fill="#fff"/>
      <path id="Caminho_48" data-name="Caminho 48" d="M340.635,196.693a.326.326,0,0,1-.176.421l-.97.4a.326.326,0,0,1-.421-.176.319.319,0,0,1,.17-.421l.977-.407a.326.326,0,0,1,.421.183Z" transform="translate(-152.769 -59.293)" fill="#fff"/>
      <path id="Caminho_49" data-name="Caminho 49" d="M393.92,174.711a.333.333,0,0,1-.183.421l-.95.387a.333.333,0,0,1-.428-.176.326.326,0,0,1,.176-.421l.97-.4A.326.326,0,0,1,393.92,174.711Z" transform="translate(-169.895 -52.228)" fill="#fff"/>
      <path id="Caminho_50" data-name="Caminho 50" d="M342.911,200.979a.333.333,0,0,1-.1.448l-.882.563a.326.326,0,0,1-.353-.543l.9-.57a.319.319,0,0,1,.441.1Z" transform="translate(-153.545 -60.688)" fill="#fff"/>
      <path id="Caminho_51" data-name="Caminho 51" d="M391.547,170.079a.319.319,0,0,1-.1.448l-.882.563a.326.326,0,0,1-.448-.1.319.319,0,0,1,.1-.448l.882-.563a.319.319,0,0,1,.448.1Z" transform="translate(-169.165 -50.759)" fill="#fff"/>
      <path id="Caminho_52" data-name="Caminho 52" d="M345.891,204.825a.319.319,0,0,1,0,.455l-.774.679a.324.324,0,1,1-.461-.455l.78-.679a.319.319,0,0,1,.455,0Z" transform="translate(-154.544 -61.942)" fill="#fff"/>
      <path id="Caminho_53" data-name="Caminho 53" d="M388.445,165.964a.326.326,0,0,1,0,.455l-.78.713a.322.322,0,1,1-.434-.475l.774-.679a.333.333,0,0,1,.441-.014Z" transform="translate(-168.221 -49.46)" fill="#fff"/>
      <path id="Caminho_54" data-name="Caminho 54" d="M349.51,208.088a.326.326,0,0,1,.054.455l-.638.821a.326.326,0,0,1-.455.061.319.319,0,0,1-.054-.448l.638-.842A.333.333,0,0,1,349.51,208.088Z" transform="translate(-155.761 -62.999)" fill="#fff"/>
      <path id="Caminho_55" data-name="Caminho 55" d="M384.659,162.424a.319.319,0,0,1,.054.448l-.638.835a.326.326,0,0,1-.455.061.333.333,0,0,1-.061-.455l.679-.835A.319.319,0,0,1,384.659,162.424Z" transform="translate(-167.055 -48.329)" fill="#fff"/>
      <path id="Caminho_56" data-name="Caminho 56" d="M344.134,70.051c.048-.176.088-.36.129-.543a5.251,5.251,0,0,0,.115-.638c0-.217.081-.434.088-.679s.034-.373.047-.55c.909.333,4.662,1.52,7.947.122,3.767-1.615,5.49-6.033,5.49-6.033s-4.384-1.805-8.144-.2c-2.993,1.283-4.7,4.343-5.266,5.538v-.109a3.776,3.776,0,0,0,0-.556c0-.176,0-.346,0-.5v-.36a1.77,1.77,0,0,1,0-.319.726.726,0,0,0-.224-.624.749.749,0,0,0-1.018,1.1h0a1.832,1.832,0,0,1,.2.238,2.6,2.6,0,0,1,.19.285c.048.1.088.224.143.36a1.8,1.8,0,0,1,.1.475c0,.176.054.36.061.556s0,.4,0,.6a3.811,3.811,0,0,1-.034.618,4.754,4.754,0,0,1-.075.624,2.19,2.19,0,0,1-.075.421c-5.049-5.7-11.992-2.036-14.116,4.309-1.832,5.429.156,11.965,4.751,15.127a3.047,3.047,0,0,0,3.034.271,2.667,2.667,0,0,0,2.077,1.581c5.694.713,11.537-3.57,13.4-9.182C355.088,75.582,352.658,68.823,344.134,70.051Z" transform="translate(-149.55 -15.712)" fill="#f1772e"/>
      <path id="Caminho_57" data-name="Caminho 57" d="M126.631,196.807c-.048-.143-.1-.285-.149-.434s-.1-.339-.149-.509a4.518,4.518,0,0,1-.129-.523l-.081-.441a9.574,9.574,0,0,1-6.474.767c-3.21-1-4.988-4.459-4.988-4.459s3.393-1.846,6.637-.848a9.288,9.288,0,0,1,4.751,4.072.447.447,0,0,1,0-.1c0-.149-.034-.3-.034-.448v-.964a.578.578,0,1,1,.991.238h0a1.937,1.937,0,0,0-.143.21,1.439,1.439,0,0,0-.136.251q-.041.129-.081.305a1.4,1.4,0,0,0-.034.394v.455l.041.5a4.539,4.539,0,0,0,.081.5,4.121,4.121,0,0,0,.109.5l.1.339c3.644-5.083,9.616-2.674,11.89,2.321a11.171,11.171,0,0,1-2.586,12.752,2.491,2.491,0,0,1-2.45.475,2.2,2.2,0,0,1-1.561,1.466c-4.588,1.059-9.7-1.941-11.714-6.366C118.162,202.236,119.573,196.495,126.631,196.807Z" transform="translate(-80.664 -57.229)" fill="#fff"/>
      <g transform="matrix(1, 0, 0, 1, -3.34, 0)" filter="url(#Caminho_58)">
        <path id="Caminho_58-2" data-name="Caminho 58" d="M120.783,119.848a2.178,2.178,0,0,0-2.715,1.412l.679-2.1a2.811,2.811,0,1,0-5.355-1.71l-2.321,7.289-18.039-5.748L95.36,111.7a2.811,2.811,0,1,0-5.355-1.71l-.679,2.1a2.185,2.185,0,1,0-4.153-1.357L80.539,125.27a2.185,2.185,0,1,0,4.153,1.357l-.679,2.1a2.81,2.81,0,1,0,5.341,1.683l2.321-7.262,18.025,5.748-2.328,7.3a2.81,2.81,0,0,0,5.341,1.683l.679-2.1a2.18,2.18,0,0,0,4.153,1.323l4.669-14.51a2.178,2.178,0,0,0-1.432-2.742Z" transform="translate(-66.32 -30.87)" fill="#fff"/>
      </g>
      <path id="Caminho_59" data-name="Caminho 59" d="M139.085,408.9c-5.429-1.425-12.277-4.981-18.222-7.777A189.69,189.69,0,0,1,85.79,379.6c-7.743-5.986-15.684-14.448-19.335-23.719-1.751-4.459-3.2-11.7.041-15.853,7.886-10.125,28.958,6.108,34.835,11.775,15.941,15.3,29.65,36.342,37.753,57.095Z" transform="translate(-64.567 -104.375)" fill="#f1772e"/>
      <path id="Caminho_60" data-name="Caminho 60" d="M81.17,339.074l-.414-.244c-.041.068-4.072,7.038-3.834,13.709-6.223-7.126-9.942-11.856-10.058-12l-.38.3c.115.143,3.8,4.825,9.969,11.9-6.786-2.314-11.13-1.473-11.313-1.432l.1.475c.048,0,4.751-.93,11.856,1.69,4.357,4.975,9.868,11.042,16.193,17.516-12.012-5.246-21.439-5.477-21.534-5.477v.482c.1,0,10,.237,22.429,5.911h0c4.818,4.907,10.085,10.017,15.65,15.039-13.064-4.751-20.427-4.377-20.5-4.377v.482c.081,0,7.75-.366,21.425,4.751h0c4.337,3.889,8.822,7.709,13.478,11.333-10.356-3.644-15.412-3.936-15.466-3.943v.482c.054,0,5.477.319,16.695,4.4,4.479,3.461,9.046,6.725,13.641,9.671l.258-.407c-4.588-2.939-9.155-6.2-13.627-9.657-3.882-7.146-1.038-18.724-1.011-18.839l-.461-.115c-.034.115-2.715,10.94.6,18.276-4.751-3.705-9.372-7.621-13.817-11.6-3.8-10.858,2.172-22.144,2.233-22.26l-.428-.224c-.061.109-5.836,11.028-2.518,21.839-5.667-5.1-11.021-10.3-15.914-15.276-3.108-7.621,3.834-21.717,3.9-21.886l-.428-.217c-.285.563-6.569,13.356-4.262,21.3C87.291,364.178,81.76,358.09,77.4,353.1,76.942,346.411,81.129,339.142,81.17,339.074Z" transform="translate(-64.751 -105.035)" fill="#9b9b9b" style="mix-blend-mode: color-burn;isolation: isolate"/>
      <path id="Caminho_61" data-name="Caminho 61" d="M103.264,347.195A59.755,59.755,0,0,0,93.6,341.27s17.34,44.214,49.012,64.309l.19-2.715-17.109-36.1Z" transform="translate(-73.897 -105.819)" fill="#c1c1c1" opacity="0.5" style="mix-blend-mode: multiply;isolation: isolate"/>
      <path id="Caminho_62" data-name="Caminho 62" d="M145.935,375.872c-.862-3.651-8.89-10.791-11.659-14.252a425.513,425.513,0,0,1-25.443-35.086c-12.691-19.742-25.707-46.583-24.852-70.62.312-8.9,3.665-23.9,14.788-24.615,8.313-.536,14.93,8.49,18.88,14.8,10.3,16.579,15.263,35.968,19.593,54.828,4.981,21.656,7.954,43.915,11.042,65.992Z" transform="translate(-70.793 -70.473)" fill="#f1772e"/>
      <path id="Caminho_63" data-name="Caminho 63" d="M135.226,346.431c-.339-19.484,5.253-32.331,5.307-32.46l-.679-.285c-.054.129-5.429,12.385-5.382,31.116-3.509-7.879-6.725-15.473-9.671-22.728,2.083-26.406,9.06-35.853,9.128-35.968l-.563-.434c-.292.373-6.922,9.338-9.155,34.91-3.868-9.589-7.255-18.6-10.18-26.908.882-24.14,9.718-36.382,9.806-36.5l-.577-.421c-.088.115-8.619,11.931-9.854,35.154-3.638-10.329-6.59-19.559-8.965-27.492-1.4-18.554,5.755-27.743,5.823-27.825l-.55-.448c-.075.088-6.637,8.49-6.108,25.361-5.4-18.412-7.465-29.114-7.465-29.358l-.679.129c.048.258,2.226,11.666,8.028,31.218-2.85-2.674-11.646-10.417-18.907-11.618l-.115.679c8.3,1.357,19.1,11.978,19.437,12.3,2.362,7.893,5.3,17.055,8.911,27.309-2.9-3.135-11.069-10.505-25.565-12.7l-.1.679c18.167,2.762,26.223,13.736,26.3,13.851l.041.048c2.918,8.2,6.257,17.082,10.058,26.528-2.715-2.572-10.071-8.144-23.712-10.01l-.1.679c17.543,2.389,24.431,10.987,24.52,11.076h0q4.113,10.18,8.965,21.126c-2.314-2.036-7.18-4.852-17.455-7.146l-.156.679c13.763,3.067,17.577,7.017,18.6,8.694q5.558,12.44,12.114,25.789l.638-.312Q140.588,358.444,135.226,346.431Z" transform="translate(-70.963 -70.75)" fill="#9b9b9b" style="mix-blend-mode: color-burn;isolation: isolate"/>
      <path id="Caminho_64" data-name="Caminho 64" d="M331.837,364.382c-1.541-5.375-2-13.1-2.647-19.633a189.586,189.586,0,0,1,.543-41.147c1.174-9.712,4.384-20.869,10.485-28.748,2.932-3.787,8.4-8.741,13.641-8.083,12.731,1.595,9.549,28.021,7.709,35.968-4.988,21.527-16.05,44.072-29.732,61.655Z" transform="translate(-149.326 -81.86)" fill="#f1772e"/>
      <path id="Caminho_65" data-name="Caminho 65" d="M362.573,278.384V277.9c-.088,0-8.144.122-13.749,3.719,2.945-8.992,5.1-14.6,5.171-14.774l-.455-.176c-.061.17-2.2,5.735-5.124,14.652-1.493-7.031-4.425-10.316-4.561-10.458l-.353.326c.034.041,3.217,3.59,4.615,11.055-2.036,6.284-4.438,14.13-6.786,22.871-1.636-13-6.264-21.215-6.311-21.3l-.421.244c.048.081,4.913,8.707,6.4,22.294h0c-1.744,6.651-3.441,13.79-4.907,21.14-2.633-13.641-6.691-19.789-6.732-19.851l-.4.271c.041.061,4.276,6.468,6.882,20.841h0c-1.12,5.721-2.09,11.537-2.837,17.38-2.172-10.763-4.506-15.256-4.527-15.3l-.428.224c0,.048,2.525,4.873,4.751,16.6-.679,5.619-1.147,11.218-1.323,16.668h.482c.176-5.429.638-11.042,1.323-16.654,4.153-6.99,15.548-10.472,15.663-10.505l-.136-.462c-.109.034-10.777,3.292-15.392,9.874.76-5.965,1.751-11.951,2.9-17.815,7.39-8.822,20.136-9.467,20.264-9.467v-.482c-.129,0-12.467.624-20.054,9.012,1.486-7.465,3.21-14.74,4.981-21.493,4.954-6.576,20.645-7.838,20.8-7.852l-.034-.475c-.631.048-14.835,1.194-20.475,7.241,2.328-8.775,4.751-16.641,6.786-22.938C354.1,278.512,362.491,278.384,362.573,278.384Z" transform="translate(-149.237 -81.846)" fill="#9b9b9b" style="mix-blend-mode: color-burn;isolation: isolate"/>
      <path id="Caminho_66" data-name="Caminho 66" d="M364.563,275.29a44.318,44.318,0,0,1,2.878,14.584l-27.75,74.9-.21-20.638S344.5,307.492,364.563,275.29Z" transform="translate(-152.91 -84.616)" fill="#c1c1c1" opacity="0.5" style="mix-blend-mode: multiply;isolation: isolate"/>
      <path id="Caminho_67" data-name="Caminho 67" d="M334.62,377.792c0-8.252,2.5-19.416,4.248-28.958a280.751,280.751,0,0,1,17.543-58.215c5.633-13.315,14.74-27.825,26.61-36.552,5.707-4.18,15.507-8.985,22.667-5.918,17.435,7.465,2.138,43.692-3.705,54.211C386.116,330.864,361.223,358.41,334.62,377.792Z" transform="translate(-151.348 -75.583)" fill="#f1772e"/>
      <path id="Caminho_68" data-name="Caminho 68" d="M413.311,268.612l.19-.679c-.122-.034-11.585-3.135-21.038-.319,7.845-11.578,13.2-18.67,13.363-18.887l-.57-.428c-.156.217-5.463,7.241-13.247,18.717.747-10.594-2.09-16.451-2.212-16.7l-.638.312c.034.068,3.108,6.406,2.036,17.577-5.429,8.1-12.06,18.262-18.928,29.732,2.972-19.138-.251-32.691-.285-32.833l-.679.17c.034.143,3.427,14.367,0,34.272v.048c-5.185,8.727-10.505,18.181-15.609,28.021,1.826-20.448-1.432-30.831-1.466-30.94l-.679.224c0,.1,3.441,10.926,1.276,32.4h0c-3.923,7.662-7.682,15.555-11.116,23.522,1.3-16.165-.176-23.5-.2-23.576l-.679.149c0,.075,1.6,7.947,0,25.51-3.258,7.7-6.2,15.46-8.673,23.135l.679.217c2.47-7.669,5.429-15.419,8.673-23.108,8.741-8.232,26.352-8.537,26.528-8.537V345.9c-.176,0-16.647.285-25.884,7.75,3.509-8.144,7.357-16.288,11.374-24.112,14.089-9.5,32.46-5.239,32.643-5.192l.163-.679c-.176-.048-17.957-4.187-32.154,4.622,5.158-10.017,10.567-19.627,15.84-28.5,9.718-7.309,32.507-2.715,32.738-2.66l.149-.679c-.916-.19-21.554-4.35-32.032,1.934,6.888-11.5,13.5-21.717,19-29.806C401.238,265.334,413.189,268.578,413.311,268.612Z" transform="translate(-151.201 -75.943)" fill="#9b9b9b" style="mix-blend-mode: color-burn;isolation: isolate"/>
      <ellipse id="Elipse_13" data-name="Elipse 13" cx="66.637" cy="7.791" rx="66.637" ry="7.791" transform="translate(59.207 304.422)" fill="rgba(255,255,255,0.6)" style="mix-blend-mode: color-burn;isolation: isolate"/>
      <rect id="Retângulo_63" data-name="Retângulo 63" width="118.397" height="245.475" rx="5" transform="translate(68.96 65.985)" fill="#0e263f"/>
      <rect id="Retângulo_64" data-name="Retângulo 64" width="113.878" height="201.356" transform="translate(71.22 81.445)" fill="#d6e7f2"/>
      <circle id="Elipse_14" data-name="Elipse 14" cx="7.54" cy="7.54" r="7.54" transform="translate(120.619 289.336)" fill="#d6e7f2"/>
      <path id="Caminho_69" data-name="Caminho 69" d="M256.443,428.589c0,3.176-11.5,3.176-11.5,0a5.755,5.755,0,0,1,11.5,0Z" transform="translate(-122.53 -132.093)" fill="#95b3c6" opacity="0.5"/>
      <path id="Caminho_70" data-name="Caminho 70" d="M169.51,334.415V97.24H283.388Z" transform="translate(-98.29 -27.4)" fill="#fff" opacity="0.4" style="mix-blend-mode: soft-light;isolation: isolate"/>
      <g id="Grupo_30" data-name="Grupo 30" transform="translate(38.312)" clip-path="url(#clip-path)">
        <path id="Caminho_71" data-name="Caminho 71" d="M230.779,374.781c2.382,22.667,12.521,78,14.9,85.1,8.9,26.406,13.057,76.124,13.057,76.124s.638,1.418,10.22,1.724,11.537-2.246,11.537-2.246.679-8.748.713-23.278c0-27.431-4.594-59.911-4.594-65.15,0-35.6-1.154-67.152-3.217-107.688,0,0-43.949-.109-81.058-.109a971.605,971.605,0,0,0-1.568,102.571c1.4,39.572,13.749,65.49,14.93,94.685.163,3.169,19.823,3.8,19.932.122,0,0-1.249-48.184-6.216-81.357Z" transform="translate(-143.213 -105.173)" fill="#95b3c6"/>
        <path id="Caminho_72" data-name="Caminho 72" d="M192.91,341.743c4.235,5.959,28.076,9.1,38.588,9.1s37.326-1.731,42.979-8.313l-.129-3.638L236.52,337.82l-43.23.964Z" transform="translate(-144.122 -104.71)" fill="#c1c1c1" opacity="0.4" style="mix-blend-mode: color-burn;isolation: isolate"/>
        <path id="Caminho_73" data-name="Caminho 73" d="M196.225,189.531c0,23.787,2.28,44.323.943,60.868-1.188,14.584-3.712,17.1-3.7,25.9,0,4.187,78.723,7.7,81.058.109.129-9.542-3.624-23.149-3.475-37.78.149-15.31,1.452-30.723.339-41.4l5.158-41.628s-13.987-12.216-38.914-12.216S198.8,153.705,198.8,153.705A305.908,305.908,0,0,0,196.225,189.531Z" transform="translate(-144.302 -42.23)" fill="#153556"/>
        <path id="Caminho_74" data-name="Caminho 74" d="M217.9,86.241c.5,3.726,3.393,8.517,6.169,7.072a6.159,6.159,0,0,0,3.617-6.834c-.489-3.733-2.45-5.565-5.429-6.162C219.067,79.672,217.411,82.5,217.9,86.241Z" transform="translate(-152.125 -21.932)" fill="#f29a86"/>
        <path id="Caminho_75" data-name="Caminho 75" d="M219.24,81.518a3.141,3.141,0,0,1,4.751,1.663l-.339-2.647a4.262,4.262,0,0,0-2.253-.285,2.9,2.9,0,0,0-2.158,1.269Z" transform="translate(-152.583 -21.926)" fill="#ffaf99"/>
        <path id="Caminho_76" data-name="Caminho 76" d="M284.259,86.241c-.5,3.726-3.393,8.517-6.162,7.072a6.163,6.163,0,0,1-3.624-6.834c.489-3.733,2.457-5.565,5.429-6.162C283.092,79.672,284.755,82.5,284.259,86.241Z" transform="translate(-170.307 -21.932)" fill="#f29a86"/>
        <path id="Caminho_77" data-name="Caminho 77" d="M285.391,81.518a3.14,3.14,0,0,0-4.751,1.663l.339-2.647a4.276,4.276,0,0,1,2.26-.285A2.925,2.925,0,0,1,285.391,81.518Z" transform="translate(-172.314 -21.926)" fill="#ffaf99"/>
        <path id="Caminho_78" data-name="Caminho 78" d="M256.484,115.407c-1.174,4.072.17,15.534.441,17.828,1.357.183,6.244,2.864,7.655,3.393-.679,4.113-6.271,15.114-19.844,15.114s-21.771-9.983-22.647-13.573c2.864-1.127,6.189-4.6,7.961-4.859,0,0,2.192-11.2.774-17.91Z" transform="translate(-153.499 -33.236)" fill="#ffaf99"/>
        <path id="Caminho_79" data-name="Caminho 79" d="M260.486,115.647a26.34,26.34,0,0,0-.366,5.429S252.756,129,247.517,129s-12.121-7.316-12.121-7.316a34.792,34.792,0,0,0-.536-6.786Z" transform="translate(-157.602 -33.075)" fill="#f29a86"/>
        <path id="Caminho_80" data-name="Caminho 80" d="M225.7,67.855a18.819,18.819,0,1,0,37.638,0c0-13.953-8.429-20.665-18.819-20.665S225.7,54.194,225.7,67.855Z" transform="translate(-154.659 -11.317)" fill="#ffaf99"/>
        <path id="Caminho_81" data-name="Caminho 81" d="M225.7,77.64c0,10.064,0,18.486,3.834,23.963,2.314,3.291,8.313,8.958,12.664,10.39a12.677,12.677,0,0,0,5.246-.2c4.316-1.527,9.847-7.044,12.053-10.18,3.841-5.477,3.841-13.9,3.841-23.963" transform="translate(-154.659 -21.102)" fill="#ffaf99"/>
        <path id="Caminho_82" data-name="Caminho 82" d="M236.59,86.2c0,1.7,1.025,3.095,2.3,3.095s2.3-1.357,2.3-3.095-1.032-3.1-2.287-3.1S236.59,84.484,236.59,86.2Z" transform="translate(-158.158 -22.856)" fill="#0e263f"/>
        <path id="Caminho_83" data-name="Caminho 83" d="M262.83,86.2c0,1.7,1.032,3.095,2.307,3.095s2.3-1.357,2.3-3.095-1.032-3.1-2.3-3.1S262.83,84.484,262.83,86.2Z" transform="translate(-166.591 -22.856)" fill="#0e263f"/>
        <path id="Caminho_84" data-name="Caminho 84" d="M240.72,76.826l-.333.034c-.21,0-.509.041-.869.075l-1.222.115c-.448.061-.923.088-1.391.17s-.95.115-1.357.2-.862.122-1.208.2c-.679.149-1.188.21-1.188.21h0a.2.2,0,0,1-.115-.373s.434-.231,1.133-.523a9.747,9.747,0,0,1,1.222-.373,10.692,10.692,0,0,1,1.446-.265c.489-.075.991-.081,1.459-.109a6.873,6.873,0,0,1,1.269.048c.373.048.679.081.9.115a1.834,1.834,0,0,1,.333.075h0a.2.2,0,0,1-.081.394Z" transform="translate(-156.981 -20.634)" fill="#0e263f"/>
        <path id="Caminho_85" data-name="Caminho 85" d="M262.758,76.446a2.887,2.887,0,0,1,.333-.068c.217,0,.529-.075.9-.109s.808-.034,1.276-.041a5.989,5.989,0,0,1,1.459.115,10.593,10.593,0,0,1,1.439.258,8.77,8.77,0,0,1,1.222.366c.679.285,1.14.509,1.14.509a.2.2,0,0,1-.115.373h0s-.489-.068-1.188-.224c-.346-.088-.767-.115-1.208-.21s-.909-.136-1.357-.21-.943-.1-1.391-.163-.862-.088-1.222-.109-.679-.061-.869-.068h-.339a.2.2,0,0,1-.183-.217.2.2,0,0,1,.149-.176Z" transform="translate(-166.532 -20.648)" fill="#0e263f"/>
        <path id="Caminho_86" data-name="Caminho 86" d="M255.075,102.15c-1.208-.57-5.545-.611-6.569,0s2.172,1.432,3.285,1.432S256.038,102.68,255.075,102.15Z" transform="translate(-161.923 -28.836)" fill="#f29a86"/>
        <path id="Caminho_87" data-name="Caminho 87" d="M257.619,108.738c-3.909,1.452-10.18,2.036-13.987,2-.468,0-.638.1,0,.278,1.106.326,4.649,3.909,7.465,3.6s5.87-4.975,6.725-5.653C258.162,108.67,258,108.6,257.619,108.738Z" transform="translate(-160.287 -31.073)" fill="#fff"/>
        <path id="Caminho_88" data-name="Caminho 88" d="M237.146,273.034c-2.47,3.936-8.727,4.459-13.973,1.167s-7.465-9.162-5.022-13.1,8.727-4.459,13.973-1.16S239.616,269.1,237.146,273.034Z" transform="translate(-151.914 -78.988)" fill="#afc8d8"/>
        <path id="Caminho_89" data-name="Caminho 89" d="M218.62,259.781l3.78-6.121,18.71,12.087-3.929,6.576-14.577-4.71Z" transform="translate(-152.384 -77.666)" fill="#afc8d8"/>
        <path id="Caminho_90" data-name="Caminho 90" d="M242.1,264.642c-2.47,3.936-8.7,4.479-13.919,1.2s-7.431-9.121-4.961-13.057,8.707-4.479,13.919-1.2S244.579,260.679,242.1,264.642Z" transform="translate(-153.538 -76.31)" fill="#d6e7f2"/>
        <path id="Caminho_91" data-name="Caminho 91" d="M253.273,237.807s-6.963-2.85-6.59-8.28c.217-3.034,2.81.271,5.626,2.117,4.14,2.715,6.786,3.943,9.725,10.967h-6.271Z" transform="translate(-161.397 -69.515)" fill="#ffaf99"/>
        <path id="Caminho_92" data-name="Caminho 92" d="M256.047,226.517l-6.108-4-16.125,24.716h0a3.656,3.656,0,1,0,6.216,3.841Z" transform="translate(-157.072 -67.659)" fill="#95b3c6"/>
        <path id="Caminho_93" data-name="Caminho 93" d="M257.74,236.608c1.228.977,15.236,7.7,15.236,7.7,5.429,2.715,19.382,7.655,19.382,7.655s-10.424-22.477-10.424-34.238c0-8.51,22.986-7.995,22.986-7.995s8.605,45.408,9.08,55.249c.2,4.228-5.382,13.166-9.65,12.684-15.1-1.717-52.066-28.754-54.448-29.827-1.106-.5-14.374,0-16.22-6.983-2.62-4.751,6.637-15.147,9.969-13.01a3.4,3.4,0,0,0,.814,4.676c1.9,1.283,4.221,1.025,5.151-.414" transform="translate(-157.076 -63.546)" fill="#ffaf99"/>
        <path id="Caminho_94" data-name="Caminho 94" d="M262.977,231.444c-2.47,3.936-8.727,4.459-13.973,1.161s-7.465-9.155-5.015-13.091,8.727-4.459,13.973-1.16S265.454,227.508,262.977,231.444Z" transform="translate(-160.216 -65.623)" fill="#afc8d8"/>
        <path id="Caminho_95" data-name="Caminho 95" d="M244.46,218.191l3.773-6.121,18.71,12.087-3.929,6.569-14.577-4.7Z" transform="translate(-160.687 -64.301)" fill="#afc8d8"/>
        <path id="Caminho_96" data-name="Caminho 96" d="M267.934,223.05c-2.47,3.936-8.707,4.479-13.919,1.2s-7.465-9.121-4.968-13.064,8.707-4.472,13.926-1.194S270.4,219.113,267.934,223.05Z" transform="translate(-161.834 -62.942)" fill="#d6e7f2"/>
        <path id="Caminho_97" data-name="Caminho 97" d="M310.167,241.507c-1.561-4.54-1.194-10.858,2.362-11.042S326.1,229,329.787,220.842l-.523-1.982-23.644,6.406S307.493,236.858,310.167,241.507Z" transform="translate(-180.341 -66.483)" fill="#f29a86"/>
        <path id="Caminho_98" data-name="Caminho 98" d="M310.225,161.44c6.359,6.576,13.892,17.468,17.014,37.149.054,7.418-19.532,11.646-23.984,8.225-1.636-6.4-4.995-26.427-4.995-26.427l11.965-18.948" transform="translate(-177.976 -48.031)" fill="#153556"/>
        <path id="Caminho_99" data-name="Caminho 99" d="M234.427,247.83c-.319,2.715,2.09,6.787,5.959,7.424a14.727,14.727,0,0,1-4.214-3.454A8.347,8.347,0,0,1,234.427,247.83Z" transform="translate(-157.454 -75.792)" fill="#f29a86"/>
        <path id="Caminho_100" data-name="Caminho 100" d="M236.847,243.67a7.455,7.455,0,0,0,5.965,7.424,14.632,14.632,0,0,1-4.214-3.454,8.409,8.409,0,0,1-1.751-3.97Z" transform="translate(-158.232 -74.455)" fill="#f29a86"/>
        <path id="Caminho_101" data-name="Caminho 101" d="M158.855,370.38a7.442,7.442,0,0,0,2.945,9.053,14.6,14.6,0,0,1-2.715-4.751,8.341,8.341,0,0,1-.231-4.3Z" transform="translate(-132.999 -115.174)" fill="#f29a86"/>
        <path id="Caminho_102" data-name="Caminho 102" d="M153.629,371.08c-1.256,2.43.2,6.42,3.59,8.375a8.639,8.639,0,0,1-2.979-4.072A12.894,12.894,0,0,1,153.629,371.08Z" transform="translate(-131.355 -115.399)" fill="#f29a86"/>
        <path id="Caminho_103" data-name="Caminho 103" d="M150.034,372a6.813,6.813,0,0,0,3.23,6.99,6.719,6.719,0,0,1-2.525-3.719,18.8,18.8,0,0,1-.706-3.271Z" transform="translate(-130.326 -115.694)" fill="#f29a86"/>
        <path id="Caminho_104" data-name="Caminho 104" d="M240.207,239.91c-.319,2.715,2.09,6.786,5.959,7.424a14.632,14.632,0,0,1-4.214-3.454A8.429,8.429,0,0,1,240.207,239.91Z" transform="translate(-159.312 -73.247)" fill="#f29a86"/>
        <text id="_1" data-name="1" transform="matrix(0.66, -0.751, 0.751, 0.661, 96.836, 157.344)" fill="#919191" font-size="11" font-family="Helvetica-Bold, Helvetica" font-weight="700" style="mix-blend-mode: color-burn;isolation: isolate"><tspan x="0" y="0">1</tspan></text>
        <path id="Caminho_105" data-name="Caminho 105" d="M281.058,89.34s1.357,1.513,1.154,2.348-1.622,1.988-1.622,1.988Z" transform="translate(-172.298 -24.861)" fill="#ffaf99"/>
        <path id="Caminho_106" data-name="Caminho 106" d="M225.206,89.34s-1.357,1.513-1.147,2.348,1.622,1.988,1.622,1.988Z" transform="translate(-154.125 -24.861)" fill="#ffaf99"/>
        <path id="Caminho_107" data-name="Caminho 107" d="M243.763,52.054c2.674,0,4.927-1.133,7.75-1.832,5.049-1.256,7.465,4.167,7.465,4.167,2.891,4.751,2.273,19.681,2.314,20.522s1.188.97,1.215,0c0,0,1.975-11.306,1.785-17.353-.258-8-3.02-18-13.3-15.833-7.832-8.822-19.348-.909-26.875-4.14-.414-.176-.889.36-.74.821,2.09,6.508,2.5,9.63,1.174,18.12-1.2,7.716.407,16.165.407,18.127,0,1.127,1.262.984,1.262-.041,0-1.588-.468-17.217,2.5-21.642C232.335,47.616,241.171,52.054,243.763,52.054Z" transform="translate(-153.903 -8.166)" fill="#0e263f"/>
        <line id="Linha_26" data-name="Linha 26" x2="2.45" y2="53.478" transform="translate(127.179 236.421)" fill="none" stroke="#fff" stroke-miterlimit="10" stroke-width="1"/>
        <line id="Linha_27" data-name="Linha 27" x2="2.389" y2="53.104" transform="translate(124.912 236.795)" fill="none" stroke="#fff" stroke-miterlimit="10" stroke-width="1"/>
        <line id="Linha_28" data-name="Linha 28" x1="2.681" y2="54.285" transform="translate(49.46 235.614)" fill="none" stroke="#fff" stroke-miterlimit="10" stroke-width="1"/>
        <line id="Linha_29" data-name="Linha 29" x1="2.484" y2="53.953" transform="translate(51.781 235.946)" fill="none" stroke="#fff" stroke-miterlimit="10" stroke-width="1"/>
        <rect id="Retângulo_65" data-name="Retângulo 65" width="114" height="60.203" transform="translate(32.786 223.724)" fill="url(#linear-gradient)" style="mix-blend-mode: multiply;isolation: isolate"/>
        <path id="Caminho_108" data-name="Caminho 108" d="M160.771,298.664c5.606,6.162,3.034,13.234,3.21,18.181.122,3.393,1.595,7.3-1.1,5.911-4.839-2.5-3.135-10.757-3.135-10.757a3.006,3.006,0,0,0-1.71,2.783c-.122,3.638.645,7.363,2.45,7.228.115,3.963-9.1,1.669-10.824-.142-4.072-4.309-3.278-17.713-3.135-18.914.312-2.6,1.086-9.969,1.086-9.969,1.4-12.3,5.68-47.607,8.144-59.552a325.97,325.97,0,0,1,9.277-33.186l18.412-1.846-1.357,19.884s-.414,10.18-12.141,27.329C169.532,261.956,158.864,288.735,160.771,298.664Z" transform="translate(-129.166 -59.908)" fill="#ffaf99"/>
        <path id="Caminho_109" data-name="Caminho 109" d="M147.45,343.471a3.129,3.129,0,0,0,2.09,0c1.045-.421,2.606-1.5,2.9-2.531l8.395.224.1-.835-9.148-.889-1.988,1.622-2.267,1.276Z" transform="translate(-129.513 -105.231)" fill="#f29a86"/>
        <path id="Caminho_110" data-name="Caminho 110" d="M162.771,338.256l-9.711-.685.319-4.18,9.712.685Z" transform="translate(-131.316 -103.287)" fill="#153556"/>
        <path id="Caminho_111" data-name="Caminho 111" d="M167.878,336.527c-.088,1.161-.4,2.077-.679,2.036s-.468-.984-.38-2.138.4-2.07.679-2.036S167.967,335.374,167.878,336.527Z" transform="translate(-135.731 -103.608)" fill="#153556"/>
        <path id="Caminho_112" data-name="Caminho 112" d="M155.554,333.54a7.7,7.7,0,0,1,.1,1.914,7.464,7.464,0,0,1-.536,2.267l8.313.584.319-4.18Z" transform="translate(-131.978 -103.335)" fill="none"/>
        <path id="Caminho_113" data-name="Caminho 113" d="M154.892,333.492l-1.513-.1-.319,4.18,1.4.1a7.464,7.464,0,0,0,.536-2.267,7.7,7.7,0,0,0-.1-1.914Z" transform="translate(-131.316 -103.287)" fill="#153556" opacity="0.5" style="mix-blend-mode: multiply;isolation: isolate"/>
        <path id="Caminho_114" data-name="Caminho 114" d="M149.828,333.577c-.231,2.979-2.036,5.266-4.072,5.11s-3.488-2.715-3.258-5.673,2.036-5.273,4.072-5.117S150.059,330.6,149.828,333.577Z" transform="translate(-127.914 -101.519)" fill="#153556"/>
        <path id="Caminho_115" data-name="Caminho 115" d="M150.975,333.667c-.224,2.979-2.036,5.266-4.072,5.11s-3.5-2.715-3.264-5.674,2.036-5.273,4.072-5.117S151.206,330.708,150.975,333.667Z" transform="translate(-128.281 -101.548)" fill="#153556"/>
        <path id="Caminho_116" data-name="Caminho 116" d="M148.876,333.965c-.183,2.416-1.669,4.262-3.305,4.14s-2.823-2.185-2.64-4.594,1.669-4.262,3.305-4.133S149.08,331.555,148.876,333.965Z" transform="translate(-128.055 -101.995)" fill="#d6e7f2"/>
        <path id="Caminho_117" data-name="Caminho 117" d="M147.5,335.237c-.054.679-.441,1.249-.869,1.215s-.733-.631-.679-1.357.441-1.249.875-1.215S147.559,334.531,147.5,335.237Z" transform="translate(-129.032 -103.444)" fill="#153556"/>
        <line id="Linha_30" data-name="Linha 30" x1="1.093" y1="2.586" transform="translate(16.607 229.146)" fill="none" stroke="#153556" stroke-linecap="round" stroke-linejoin="round" stroke-width="0.5"/>
        <line id="Linha_31" data-name="Linha 31" x2="1.588" y2="0.713" transform="translate(17.699 231.732)" fill="none" stroke="#153556" stroke-linecap="round" stroke-linejoin="round" stroke-width="0.5"/>
        <path id="Caminho_118" data-name="Caminho 118" d="M144.2,337.752l3.665-8.239a2.45,2.45,0,0,0-3.325-.156c-1.988,1.357-2.036,4.323-1.8,5.748A5.687,5.687,0,0,0,144.2,337.752Z" transform="translate(-127.969 -101.806)" fill="#fff" style="mix-blend-mode: soft-light;isolation: isolate"/>
        <path id="Caminho_119" data-name="Caminho 119" d="M183.973,240.558c1.778-3.346-10.248-4.493-13.492-9.3a16.885,16.885,0,0,1-2.932-9.623l19.769,11.109S185.392,237.544,183.973,240.558Z" transform="translate(-135.972 -67.373)" fill="#f29a86"/>
        <path id="Caminho_120" data-name="Caminho 120" d="M190.423,158.61c-6.271,4.689-14.252,12.372-22.565,39.226-3.929,12.67,19.274,16.288,20.231,14.252s5.8-17.1,5.8-17.1" transform="translate(-135.928 -47.121)" fill="#153556"/>
      </g>
      <circle id="Elipse_15" data-name="Elipse 15" cx="12.996" cy="12.996" r="12.996" transform="translate(109.296 261.076) rotate(-70.74)" fill="#fff" opacity="0.8"/>
      <line id="Linha_32" data-name="Linha 32" y2="10.119" transform="translate(127.683 248.013)" fill="none" stroke="#153556" stroke-linecap="round" stroke-miterlimit="10" stroke-width="3"/>
      <line id="Linha_33" data-name="Linha 33" y2="10.119" transform="translate(124.012 248.013)" fill="none" stroke="#153556" stroke-linecap="round" stroke-miterlimit="10" stroke-width="3"/>
      <path id="Caminho_121" data-name="Caminho 121" d="M293.334,363.952a6.922,6.922,0,1,1-6.922-6.922A6.922,6.922,0,0,1,293.334,363.952Z" transform="translate(-133.632 -110.884)" fill="#fff" opacity="0.8"/>
      <path id="Caminho_122" data-name="Caminho 122" d="M291.9,368.523a.21.21,0,0,1-.217-.21v-4.554a.217.217,0,1,1,.428,0v4.554a.21.21,0,0,1-.21.21Z" transform="translate(-137.548 -112.964)" fill="#153556"/>
      <path id="Caminho_123" data-name="Caminho 123" d="M290.494,366.192l-3.074,2.192V364Z" transform="translate(-136.181 -113.123)" fill="#153556"/>
      <path id="Caminho_124" data-name="Caminho 124" d="M287.32,368.5a.225.225,0,0,1-.1,0,.2.2,0,0,1-.115-.19V363.9a.21.21,0,0,1,.115-.19.224.224,0,0,1,.224,0l3.074,2.192a.2.2,0,0,1,.088.17.224.224,0,0,1-.088.176l-3.074,2.192A.224.224,0,0,1,287.32,368.5Zm.217-4.187v3.556l2.491-1.778Z" transform="translate(-136.081 -113.019)" fill="#153556"/>
      <path id="Caminho_125" data-name="Caminho 125" d="M200.16,363.952a6.922,6.922,0,1,1,6.922,6.922,6.922,6.922,0,0,1-6.922-6.922Z" transform="translate(-108.14 -110.884)" fill="#fff" opacity="0.8"/>
      <path id="Caminho_126" data-name="Caminho 126" d="M207.99,363.56a.217.217,0,0,1,.217.217v4.554a.217.217,0,0,1-.217.21.21.21,0,0,1-.21-.21v-4.554a.21.21,0,0,1,.21-.217Z" transform="translate(-110.588 -112.982)" fill="#153556"/>
      <path id="Caminho_127" data-name="Caminho 127" d="M208.09,366.192,211.164,364v4.384Z" transform="translate(-110.688 -113.123)" fill="#153556"/>
      <path id="Caminho_128" data-name="Caminho 128" d="M211.065,363.688a.271.271,0,0,1,.1,0,.224.224,0,0,1,.115.19v4.384a.217.217,0,0,1-.115.19.2.2,0,0,1-.224,0l-3.074-2.192a.224.224,0,0,1-.088-.176.21.21,0,0,1,.088-.17l3.074-2.192A.217.217,0,0,1,211.065,363.688Zm-.21,4.18v-3.556l-2.5,1.778Z" transform="translate(-110.588 -113.022)" fill="#153556"/>
      <line id="Linha_34" data-name="Linha 34" x2="91.754" transform="translate(79.961 271.983)" fill="none" stroke="#d6e7f2" stroke-miterlimit="10" stroke-width="1" opacity="0.5"/>
      <line id="Linha_35" data-name="Linha 35" x2="20.455" transform="translate(79.961 271.983)" fill="none" stroke="#c7daea" stroke-miterlimit="10" stroke-width="1"/>
      <path id="Caminho_129" data-name="Caminho 129" d="M213.481,394.239a1.826,1.826,0,1,1-1.819-1.819A1.825,1.825,0,0,1,213.481,394.239Z" transform="translate(-111.247 -122.256)" fill="#c7daea"/>
      <g id="Grupo_31" data-name="Grupo 31" transform="translate(170.452 84.906)" clip-path="url(#clip-path-2)">
        <path id="Caminho_130" data-name="Caminho 130" d="M325.525,119.437H316.7a.129.129,0,0,0-.122.129v1.3H315.9a.129.129,0,0,0-.122.129v2.219a.129.129,0,0,0,.122.129h.679v1.3a.122.122,0,0,0,.122.122h8.822a.122.122,0,0,0,.122-.122v-5.083a.129.129,0,0,0-.122-.129ZM324.3,123.4h-2.769v-2.592H324.3Z" transform="translate(-315.746 -119.437)" fill="#fff"/>
      </g>
      <path id="Caminho_131" data-name="Caminho 131" d="M310.294,122.145h0a1.907,1.907,0,1,0-3.393,0h0l.081.122.075.129,1.357,2.192c.17.278.292.21.407,0l1.357-2.206.075-.129Zm-1.7-1.8a.947.947,0,1,1-.007,0Z" transform="translate(-142.373 -34.511)" fill="#fff"/>
      <rect id="Retângulo_68" data-name="Retângulo 68" width="0.563" height="2.09" transform="translate(157.13 87.736)" fill="#fff" stroke="#fff" stroke-linecap="round" stroke-linejoin="round" stroke-width="1"/>
      <rect id="Retângulo_69" data-name="Retângulo 69" width="0.563" height="3.502" transform="translate(158.996 86.331)" fill="#fff" stroke="#fff" stroke-linecap="round" stroke-linejoin="round" stroke-width="1"/>
      <rect id="Retângulo_70" data-name="Retângulo 70" width="0.563" height="4.852" transform="translate(160.89 84.974)" fill="#fff" stroke="#fff" stroke-linecap="round" stroke-linejoin="round" stroke-width="1"/>
      <path id="Caminho_132" data-name="Caminho 132" d="M188.688,132.567a2.369,2.369,0,0,0,1.357-2.151h0a2.375,2.375,0,0,0-1.208-2.07,4.832,4.832,0,0,0-4.818-3.617,4.751,4.751,0,0,0-4.873,3.984,2.348,2.348,0,0,0-.726,1.7,2.375,2.375,0,0,0,2.368,2.368.17.17,0,0,0,.17-.163V128.21a.17.17,0,0,0-.17-.17,2.628,2.628,0,0,0-.326,0,3.963,3.963,0,0,1,7.119,0,.176.176,0,0,0-.075.136v4.411a.17.17,0,0,0,.17.163h.163A3.741,3.741,0,0,0,188.688,132.567Z" transform="translate(-101.154 -36.232)" fill="#fff"/>
      <g transform="matrix(1, 0, 0, 1, -3.34, 0)" filter="url(#Caminho_133)">
        <path id="Caminho_133-2" data-name="Caminho 133" d="M169.4,52.48H144.355A11.266,11.266,0,0,0,133.13,63.691V75.079a11.259,11.259,0,0,0,11.225,11.232h18.7l3.563,4.608a1.608,1.608,0,0,0,2.715-.319l2.036-4.479a11.272,11.272,0,0,0,9.23-11.042V63.691A11.266,11.266,0,0,0,169.4,52.48Zm-25.049,20.4a3.1,3.1,0,1,1,3.1-3.081A3.1,3.1,0,0,1,144.355,72.88Zm12.589,0a3.1,3.1,0,1,1,3.1-3.081A3.1,3.1,0,0,1,156.944,72.88Zm12.589,0a3.1,3.1,0,1,1,3.1-3.081,3.1,3.1,0,0,1-3.1,3.081Z" transform="translate(-83.26 -13.02)" fill="#f1772e"/>
      </g>
    </g>
  </g>
</svg>
