<svg xmlns="http://www.w3.org/2000/svg" width="342.792" height="261.108" viewBox="0 0 342.792 261.108">
  <g id="Grupo_43" data-name="Grupo 43" transform="translate(-15.352 -166.911)">
    <path id="Caminho_449" data-name="Caminho 449" d="M136.206,57.862C199.607-5.612,303.143,72.979,303.143,160.3S191.5,271.018,108.986,271.018-39.648,155.863-39.648,68.538,72.8,121.336,136.206,57.862Z" transform="translate(55 157)" fill="rgba(255,255,255,0.44)"/>
    <g id="Grupo_42" data-name="Grupo 42">
      <g id="Background_Complete" data-name="Background Complete" transform="translate(63.797 162)">
        <path id="Caminho_306" data-name="Caminho 306" d="M76.015,388.208c11.207-6.929,14.435-20.787,14.73-33.357.046-2.1.4-4.3-.491-6.2s-3.153-3.285-5.081-2.506c-1.6.641-2.379,2.419-3.337,3.869a12.253,12.253,0,0,1-5.2,4.417c-1.374.618-3.054.953-4.331.15-1.732-1.1-1.825-3.615-1.692-5.7l.728-11.664a19.455,19.455,0,0,0-.277-6.236,6.514,6.514,0,0,0-3.822-4.619,3.92,3.92,0,0,0-5.006,2.362,20.3,20.3,0,0,0-.208,2.593,2.219,2.219,0,0,1-1.4,1.992,2.56,2.56,0,0,1-2.24-1.086,27.81,27.81,0,0,1-4.556-7.8,38.474,38.474,0,0,0-4.2-8.026,11.3,11.3,0,0,0-7.408-4.717c-2.979-.335-6.253,1.322-7.177,4.209s.624,5.982,2.362,8.471a46.615,46.615,0,0,0,9.175,9.816A3.84,3.84,0,0,1,48.109,336c.37,1.42-1.022,2.725-2.425,3.107-1.582.427-3.262.173-4.9.271s-3.464.722-4.14,2.223c-.976,2.084.681,4.417,2.356,5.982a39.928,39.928,0,0,0,11.421,7.506,13.583,13.583,0,0,1,4.267,2.385c1.178,1.149,1.819,3.066.987,4.492s-2.777,1.79-4.371,1.4a27.427,27.427,0,0,1-4.475-2.009c-2.806-1.241-6.525-1.259-8.5,1.12a6.57,6.57,0,0,0-1.034,5.774,15.342,15.342,0,0,0,2.887,5.335A40.142,40.142,0,0,0,56.637,386.6c6.525,2.679,12.645,3.655,19.4,1.611" transform="translate(-34.772 -159.523)" fill="#be522b"/>
        <path id="Caminho_307" data-name="Caminho 307" d="M78.173,398.678a91.449,91.449,0,0,0-2.437-17.392,187.273,187.273,0,0,0-6.282-20.55c-.652-1.79-1.293-3.563-1.923-5.3s-1.265-3.464-1.986-5.116a94.356,94.356,0,0,0-4.683-9.239c-1.634-2.887-3.285-5.526-4.85-8s-3.072-4.752-4.538-6.767a74.033,74.033,0,0,0-7.593-9c-.982-.993-1.732-1.732-2.31-2.229l-.618-.577-.214-.179a1.225,1.225,0,0,0,.191.208l.577.577c.52.514,1.282,1.27,2.24,2.275a77.9,77.9,0,0,1,7.506,9.054c1.444,2.021,2.933,4.3,4.492,6.779s3.187,5.168,4.81,8.055a94.485,94.485,0,0,1,4.619,9.21c.716,1.64,1.34,3.349,1.975,5.093l1.917,5.3a192.393,192.393,0,0,1,6.305,20.5A93.26,93.26,0,0,1,77.879,398.7" transform="translate(-37.294 -160.661)" fill="#e0e0e0"/>
        <path id="Caminho_308" data-name="Caminho 308" d="M83.51,359.938a4.483,4.483,0,0,0,.283-.883c.144-.577.323-1.4.525-2.431.416-2.061.883-4.925,1.4-8.084s1.016-6.011,1.461-8.084c.219-1.028.4-1.853.537-2.425a3.846,3.846,0,0,0,.167-.9,4.666,4.666,0,0,0-.312.86c-.179.577-.4,1.38-.658,2.4-.508,2.044-1.068,4.9-1.576,8.084s-.941,5.947-1.282,8.084c-.162.976-.3,1.8-.4,2.454A3.8,3.8,0,0,0,83.51,359.938Z" transform="translate(-55.368 -170.296)" fill="#e0e0e0"/>
        <path id="Caminho_309" data-name="Caminho 309" d="M37.54,365.317a5.9,5.9,0,0,0,1.062.185c.681.1,1.674.243,2.887.45,2.442.4,5.774,1.086,9.464,1.992s6.929,1.882,9.308,2.656c1.155.375,2.131.7,2.783.93a6.352,6.352,0,0,0,1.034.318,5.2,5.2,0,0,0-.982-.462c-.641-.266-1.576-.635-2.748-1.051-2.31-.837-5.624-1.854-9.3-2.772a95.714,95.714,0,0,0-9.5-1.853c-1.23-.173-2.235-.277-2.922-.329A5.672,5.672,0,0,0,37.54,365.317Z" transform="translate(-35.941 -182.206)" fill="#e0e0e0"/>
        <path id="Caminho_310" data-name="Caminho 310" d="M100.83,404.881a1.266,1.266,0,0,0,.2-.318l.514-.941c.445-.826,1.051-2.032,1.784-3.528,1.467-3,3.366-7.212,5.4-11.883s3.886-8.892,5.289-11.918c.687-1.472,1.253-2.685,1.674-3.58l.45-.982a1.437,1.437,0,0,0,.133-.352,1.438,1.438,0,0,0-.2.318c-.139.254-.312.577-.514.947-.445.82-1.051,2.027-1.784,3.528-1.467,3-3.366,7.206-5.4,11.883s-3.886,8.892-5.289,11.918l-1.674,3.58-.45.976a1.437,1.437,0,0,0-.133.352Z" transform="translate(-62.687 -184.77)" fill="#e0e0e0"/>
        <path id="Caminho_311" data-name="Caminho 311" d="M40.21,406a1.509,1.509,0,0,0,.346.167l1.016.4,3.747,1.455c3.164,1.23,7.506,2.974,12.322,4.908s9.175,3.643,12.368,4.8c1.594.577,2.887,1.039,3.788,1.34l1.045.335a1.11,1.11,0,0,0,.37.092,1.506,1.506,0,0,0-.346-.167l-1.016-.4-3.736-1.444c-3.164-1.23-7.506-2.974-12.322-4.914s-9.175-3.643-12.362-4.8c-1.6-.577-2.887-1.039-3.794-1.334L40.6,406.1A1.73,1.73,0,0,0,40.21,406Z" transform="translate(-37.07 -199.4)" fill="#e0e0e0"/>
        <path id="Caminho_312" data-name="Caminho 312" d="M426.565,326.13s-4.446-1.438-6.536,8.823a119.71,119.71,0,0,0-2.379,15.936s-.687,2.217-2.31,1.345-4.377-3.869-6.4-2.633-2.142,4.042-.67,7.662,4.417,11.675,4.677,12.4.139,1.905-1.068,1.49-8.863-5.3-10.971-1.53,3.661,13.182,4.273,14.222.525,1.582.064,2.009-2.887-1.455-5.1-2.76-5.052-2.414-6.08-.139.577,10.087,11.369,20.521l5.3,4.5,6.623-2.24c13.858-5.659,18.31-12.293,18.206-14.787s-3.135-2.512-5.693-2.142-5.5,1.218-5.774.652-.144-1.1.814-1.836,9.816-7.316,9.273-11.6-9.464-2.6-10.746-2.673-.941-1.218-.433-1.784,6.248-6.929,8.967-9.758,3.707-5.381,2.24-7.356-5.081-.15-6.929.052-1.657-2.119-1.657-2.119a121.4,121.4,0,0,0,3.742-15.671c1.9-10.3-2.887-10.613-2.887-10.613" transform="translate(-186.491 -165.618)" fill="#f1772e"/>
        <path id="Caminho_313" data-name="Caminho 313" d="M421.82,416.268c1.426-7.558,4.18-20.954,6.49-32.468s4.383-21.941,5.843-29.477l1.732-8.95.468-2.431c.058-.271.1-.479.127-.629a1.984,1.984,0,0,1,.052-.214,1.257,1.257,0,0,1-.029.219c-.029.144-.064.358-.1.635-.1.577-.248,1.386-.433,2.437-.375,2.119-.941,5.2-1.657,8.961-1.42,7.558-3.464,17.986-5.774,29.494s-5.093,24.9-6.554,32.45" transform="translate(-198.335 -172.397)" fill="#e0e0e0"/>
        <path id="Caminho_314" data-name="Caminho 314" d="M426.35,374.37a2.55,2.55,0,0,1,.294.41c.179.266.427.664.728,1.155.577.987,1.4,2.373,2.246,3.915l2.165,3.961.664,1.2a2.4,2.4,0,0,1,.225.445,2.163,2.163,0,0,1-.3-.4c-.179-.271-.427-.664-.722-1.155-.577-1-1.368-2.39-2.217-3.938s-1.611-2.887-2.194-3.944l-.67-1.2a1.732,1.732,0,0,1-.219-.45Z" transform="translate(-200.249 -186.034)" fill="#e0e0e0"/>
        <path id="Caminho_315" data-name="Caminho 315" d="M438.42,387.848c-.029-.046,2.754-1.813,6.219-3.944s6.3-3.811,6.351-3.765-2.754,1.819-6.219,3.949S438.454,387.9,438.42,387.848Z" transform="translate(-205.35 -188.471)" fill="#e0e0e0"/>
        <path id="Caminho_316" data-name="Caminho 316" d="M430.91,420.935a1.957,1.957,0,0,1,.491-.162l1.345-.37c1.155-.312,2.7-.751,4.417-1.3s3.245-1.091,4.354-1.5l1.311-.479a2.121,2.121,0,0,1,.491-.15,2.684,2.684,0,0,1-.456.231c-.3.133-.745.323-1.288.543-1.1.439-2.627,1.01-4.348,1.559s-3.3.964-4.446,1.241c-.577.133-1.039.237-1.363.3A2.828,2.828,0,0,1,430.91,420.935Z" transform="translate(-202.176 -204.04)" fill="#e0e0e0"/>
        <path id="Caminho_317" data-name="Caminho 317" d="M416.18,408.94a2,2,0,0,1,.364.3l.947.883c.791.751,1.871,1.8,3.054,2.962s2.252,2.235,3.014,3.014l.895.93a1.917,1.917,0,0,1,.306.364,2,2,0,0,1-.364-.3l-.947-.883c-.791-.751-1.871-1.8-3.055-2.968s-2.252-2.235-3.014-3.008l-.895-.935a1.806,1.806,0,0,1-.306-.358Z" transform="translate(-195.952 -200.643)" fill="#e0e0e0"/>
        <path id="Caminho_318" data-name="Caminho 318" d="M406.14,434.87a3.7,3.7,0,0,1,.468.393l1.213,1.126c1.016.958,2.414,2.31,3.944,3.77s2.916,2.835,3.909,3.817l1.155,1.155a2.748,2.748,0,0,1,.41.45,3.141,3.141,0,0,1-.468-.393l-1.213-1.126c-1.016-.953-2.414-2.31-3.949-3.77s-2.887-2.829-3.9-3.817l-1.155-1.155A2.885,2.885,0,0,1,406.14,434.87Z" transform="translate(-191.709 -211.6)" fill="#e0e0e0"/>
        <path id="Caminho_319" data-name="Caminho 319" d="M425,448.9a3.276,3.276,0,0,1,.612-.219l1.692-.531c1.426-.45,3.4-1.074,5.549-1.83s4.088-1.484,5.48-2.021l1.657-.635a4.161,4.161,0,0,1,.618-.214,3.366,3.366,0,0,1-.577.289c-.381.173-.935.416-1.628.7-1.38.577-3.309,1.328-5.468,2.079s-4.134,1.363-5.578,1.773c-.722.208-1.3.364-1.732.468A5.431,5.431,0,0,1,425,448.9Z" transform="translate(-199.679 -215.226)" fill="#e0e0e0"/>
        <path id="Caminho_321" data-name="Caminho 321" d="M79.173,9.04,70.2,21.7h6.53l-4.423,9.614,10.2-13.482-6.155.127Z" transform="translate(-36.469 -3.8)" fill="#e0e0e0"/>
        <path id="Caminho_323" data-name="Caminho 323" d="M73.4,159.176H71.816l-3.464-4.8v-3.153s-2.437-.15-2.154,3.978,0,3.078,0,3.078-5.2,0-5.612.468c-.312.329-.456,5.48-.508,8.268a3.02,3.02,0,0,0,2.142,3.049,2.31,2.31,0,0,0,.577.075c1.293,0,7.9-1.051,7.9-1.051h2.731Z" transform="translate(-45.464 -91.732)" fill="#e0e0e0"/>
        <path id="Caminho_324" data-name="Caminho 324" d="M65.308,115.3l-.976,10.8h-2.7V115.519Z" transform="translate(-32.847 -48.704)" fill="#e0e0e0"/>
      </g>
      <g id="Floor" transform="translate(57 405.554)">
        <path id="Caminho_325" data-name="Caminho 325" d="M284.8,470.127c0,.081-58.613.15-130.9.15S23,470.208,23,470.127,81.59,470,153.9,470,284.8,470.046,284.8,470.127Z" transform="translate(-23 -470)" fill="#263238"/>
      </g>
      <g id="Character" transform="translate(113.372 166.911)">
        <path id="Caminho_326" data-name="Caminho 326" d="M198.9,368.731l2.824-20.411L214.94,349l-7.356,21.924Z" transform="translate(-140.432 -152.087)" fill="#ffbe9d"/>
        <path id="Caminho_327" data-name="Caminho 327" d="M230.811,431.244l-.046.577s9.545,4.85,9.487,6.738l-19.632-1.836.878-6.513A11.3,11.3,0,0,0,230.811,431.244Z" transform="translate(-162.885 -214.542)" fill="#be522b"/>
        <g id="Grupo_34" data-name="Grupo 34" transform="translate(59.752 217.921)" opacity="0.6">
          <path id="Caminho_328" data-name="Caminho 328" d="M224.753,434.122a.808.808,0,0,0-.635.866.779.779,0,0,0,.849.641.849.849,0,0,0,.67-.918.8.8,0,0,0-.959-.577" transform="translate(-224.114 -434.111)" fill="#ffe5d6"/>
        </g>
        <g id="Grupo_35" data-name="Grupo 35" transform="translate(57.723 220.599)" opacity="0.6">
          <path id="Caminho_329" data-name="Caminho 329" d="M220.6,440.321l.208-1.571,18.748,2.31s.843.462.687,1.074Z" transform="translate(-220.6 -438.75)" fill="#ffe5d6"/>
        </g>
        <path id="Caminho_330" data-name="Caminho 330" d="M236.917,432.99c0,.092-.5.092-1,.358s-.785.641-.872.577.11-.577.722-.895S236.945,432.9,236.917,432.99Z" transform="translate(-168.973 -215.659)" fill="#263238"/>
        <path id="Caminho_331" data-name="Caminho 331" d="M240.705,434.861c0,.092-.416.219-.78.577s-.5.791-.577.78-.1-.577.358-1.022S240.711,434.769,240.705,434.861Z" transform="translate(-170.781 -216.485)" fill="#263238"/>
        <path id="Caminho_332" data-name="Caminho 332" d="M243.3,438.2c-.092,0-.179-.485.115-.982s.762-.67.8-.577-.271.341-.508.756S243.388,438.2,243.3,438.2Z" transform="translate(-172.431 -217.25)" fill="#263238"/>
        <path id="Caminho_333" data-name="Caminho 333" d="M105.11,323.593l14.447-10.353,11.41,6.2-20.712,11.733Z" transform="translate(-100.797 -137.263)" fill="#ffbe9d"/>
        <path id="Caminho_334" data-name="Caminho 334" d="M131.237,385.7l-.491.323s2.067,10.5.543,11.617L120.63,381.051l5.549-3.511a11.82,11.82,0,0,0,5.058,8.165Z" transform="translate(-120.63 -192.284)" fill="#be522b"/>
        <g id="Grupo_36" data-name="Grupo 36" transform="translate(3.698 188.068)" opacity="0.6">
          <path id="Caminho_335" data-name="Caminho 335" d="M128.325,382.6a.814.814,0,0,0-1.08.029.774.774,0,0,0,0,1.062.849.849,0,0,0,1.155-.035.808.808,0,0,0-.144-1.109" transform="translate(-127.034 -382.41)" fill="#ffe5d6"/>
        </g>
        <g id="Grupo_37" data-name="Grupo 37" transform="translate(0.006 187.964)" opacity="0.6">
          <path id="Caminho_336" data-name="Caminho 336" d="M120.64,383.033l1.363-.8,9.718,16.2s.156.947-.422,1.2Z" transform="translate(-120.64 -382.23)" fill="#ffe5d6"/>
        </g>
        <path id="Caminho_337" data-name="Caminho 337" d="M136.755,391.628c-.087.052-.381-.335-.9-.577s-.993-.225-1-.318.525-.277,1.155,0S136.842,391.6,136.755,391.628Z" transform="translate(-126.639 -197.797)" fill="#263238"/>
        <path id="Caminho_338" data-name="Caminho 338" d="M137.421,395.765c-.069.069-.433-.2-.953-.248s-.93.1-.982,0,.381-.427,1.022-.346S137.514,395.714,137.421,395.765Z" transform="translate(-126.907 -199.729)" fill="#263238"/>
        <path id="Caminho_339" data-name="Caminho 339" d="M136.324,399.854c-.064-.064.266-.439.843-.514s1,.191.953.266-.433,0-.907.063S136.382,399.929,136.324,399.854Z" transform="translate(-127.259 -201.491)" fill="#263238"/>
        <circle id="Elipse_18" data-name="Elipse 18" cx="3.083" cy="3.083" r="3.083" transform="translate(94.689 68.522)" fill="#263238"/>
        <path id="Caminho_340" data-name="Caminho 340" d="M229.59,131.73a18.818,18.818,0,0,1,13.806,13.7c1.27,4.821,4.088,26.076,4.088,26.076l16.987-13.113,5.254,6.981-15.55,17.68c-3.464,4.2-10.249,5.2-15.411,3.464h0c-5.861-1.969-6.161-6.022-5.491-12.166Z" transform="translate(-166.676 -88.406)" fill="#ffbe9d"/>
        <path id="Caminho_341" data-name="Caminho 341" d="M297.337,177.216l5.6-6.126-8.707-4.619c-.612.37-4.394,6.588-4.394,6.588l-.231,1.068s5.364,5.832,5.514,5.93A24.3,24.3,0,0,0,297.337,177.216Z" transform="translate(-192.035 -103.087)" fill="#ffbe9d"/>
        <path id="Caminho_342" data-name="Caminho 342" d="M308.414,174.006a.68.68,0,0,1-.1.162c-.577.733-3.355,3.609-3.828,3.4s-1.316-1.409-1.022-1.853S307.1,172.2,307.1,172.2s.577-.45,1.542.242C309.251,172.874,308.414,174.006,308.414,174.006Z" transform="translate(-197.869 -105.45)" fill="#ffbe9d"/>
        <path id="Caminho_343" data-name="Caminho 343" d="M307.1,169.326a.776.776,0,0,1-.092.162c-.577.739-3.361,3.615-3.834,3.4s-1.311-1.4-1.016-1.853,3.626-3.511,3.626-3.511.577-.45,1.547.242C307.941,168.2,307.1,169.326,307.1,169.326Z" transform="translate(-197.315 -103.472)" fill="#ffbe9d"/>
        <path id="Caminho_344" data-name="Caminho 344" d="M304.994,165.623a.68.68,0,0,1-.1.162c-.577.733-3.361,3.609-3.834,3.4s-1.311-1.409-1.016-1.859,3.626-3.511,3.626-3.511.577-.45,1.547.248C305.831,164.491,304.994,165.623,304.994,165.623Z" transform="translate(-196.423 -101.905)" fill="#ffbe9d"/>
        <path id="Caminho_345" data-name="Caminho 345" d="M302.848,161.986a.679.679,0,0,1-.1.162c-.577.739-3.355,3.615-3.828,3.4s-1.311-1.4-1.016-1.853,3.626-3.511,3.626-3.511.577-.45,1.547.242C303.708,160.86,302.848,161.986,302.848,161.986Z" transform="translate(-195.519 -100.37)" fill="#ffbe9d"/>
        <path id="Caminho_346" data-name="Caminho 346" d="M304.89,174.887a8.266,8.266,0,0,0,1.472-1.293,7.725,7.725,0,0,0,1.282-1.444,7.743,7.743,0,0,0-1.478,1.288A7.067,7.067,0,0,0,304.89,174.887Z" transform="translate(-198.497 -105.488)" fill="#eb996e"/>
        <path id="Caminho_347" data-name="Caminho 347" d="M301.89,171.229a14.932,14.932,0,0,0,2.067-1.865,14.535,14.535,0,0,0,1.894-2.044A31.141,31.141,0,0,0,301.89,171.229Z" transform="translate(-197.229 -103.446)" fill="#eb996e"/>
        <g id="Grupo_38" data-name="Grupo 38" transform="translate(103.05 62.089)" opacity="0.78">
          <path id="Caminho_348" data-name="Caminho 348" d="M299.1,168.139a30.167,30.167,0,0,0,3.961-3.909,15.329,15.329,0,0,0-2.067,1.865A14.979,14.979,0,0,0,299.1,168.139Z" transform="translate(-299.1 -164.23)" fill="#eb996e"/>
        </g>
        <path id="Caminho_349" data-name="Caminho 349" d="M293.38,172.744l.387-3.291a5.636,5.636,0,0,1,2.009-3.684l.855-.7,5.457,5.722s-2.431,1.571-3.649-.3l.289,3.066Z" transform="translate(-193.633 -102.496)" fill="#ffbe9d"/>
        <path id="Caminho_350" data-name="Caminho 350" d="M300.327,173.66c-.04,0,.156-.341.277-.964a3.6,3.6,0,0,0-.456-2.512l-.433-.71.664.508,1.524,1.155h-.035a2.154,2.154,0,0,0,2.31-.115,1.438,1.438,0,0,0,.133-.127v.248c-1.605-1.553-3.043-2.979-4.013-4.042-.491-.543-.872-.993-1.155-1.311a2.085,2.085,0,0,1-.364-.52,20.359,20.359,0,0,1,1.674,1.651c1.016,1.039,2.471,2.425,4.088,3.978l.127.121-.115.127a1.081,1.081,0,0,1-.185.179A2.16,2.16,0,0,1,303,171.8a3.026,3.026,0,0,1-1.3-.323h0l-1.5-1.207.225-.2a3.632,3.632,0,0,1,.364,2.714,1.888,1.888,0,0,1-.456.878Z" transform="translate(-195.915 -102.58)" fill="#eb996e"/>
        <path id="Caminho_351" data-name="Caminho 351" d="M305.863,175.323c.064.029-.191.346-.289.872a.7.7,0,0,0,.318.716,1.033,1.033,0,0,0,1-.219c.687-.549,1.363-1.028,1.8-1.4s.693-.641.739-.606-.144.358-.577.8a16.745,16.745,0,0,1-1.767,1.507,1.322,1.322,0,0,1-1.363.225.941.941,0,0,1-.422-1.068,1.685,1.685,0,0,1,.341-.652C305.771,175.369,305.846,175.311,305.863,175.323Z" transform="translate(-198.656 -106.559)" fill="#eb996e"/>
        <path id="Caminho_352" data-name="Caminho 352" d="M257.426,207.832a2.886,2.886,0,0,1-.237-1.068,8.6,8.6,0,0,1,.144-2.639,8.327,8.327,0,0,1,.941-2.477,2.888,2.888,0,0,1,.647-.878,16.231,16.231,0,0,0-1.293,3.412A16.538,16.538,0,0,0,257.426,207.832Z" transform="translate(-178.321 -117.582)" fill="#eb996e"/>
        <path id="Caminho_353" data-name="Caminho 353" d="M263.56,130.8l6.519,6.559,1.778-2.067-6.455-5.97Z" transform="translate(-167.756 -59.54)" fill="#263238"/>
        <path id="Caminho_354" data-name="Caminho 354" d="M187.8,112.521c.41-2.24-.837-4.943.7-6.629,1.062-1.155,2.956-1.155,4.186-2.131,1.582-1.288,1.472-3.667,1.651-5.693a14.655,14.655,0,0,1,3.949-8.736c.907-.953,2.038-2.1,1.663-3.361a3.39,3.39,0,0,0-.774-1.184L187.894,71.923a13.454,13.454,0,0,0-3.13-2.887,4.51,4.51,0,0,0-4.082-.427c-2.263,1.045-2.65,4.094-4.261,5.993-1.455,1.732-3.915,2.477-4.989,4.452-1.022,1.888-.473,4.371-1.611,6.19-1.513,2.431-5.289,2.575-6.865,4.966-1.38,2.09-.577,5.162-2.136,7.108-1.426,1.767-4.042,1.767-6.149,2.662,0,0,2.4,2.633,3.464,4.146s4.758,1.628,6.38.525,1.946-2.038,2.945-3.083a9.117,9.117,0,0,1,2.743-1.732s-2.933,2.211-2.743,3.193-2.714,4.585-3.407,4.348,7.656,5.139,7.656,5.139Z" transform="translate(-135.015 -61.604)" fill="#263238"/>
        <path id="Caminho_355" data-name="Caminho 355" d="M226.614,69.36c-.115,1.536.9,2.887,1.923,4.042s2.165,2.356,2.385,3.88c.393,2.7-2.258,5.2-1.732,7.887.294,1.438,1.467,2.593,1.674,4.042a4.945,4.945,0,0,1-1.478,3.846c-.93,1.068-2.067,1.952-2.887,3.106a25.329,25.329,0,0,0-1.969,4.007,7.047,7.047,0,0,1-2.772,3.412c-1.975,1.074-4.735.577-6.248,2.229s-1,4.527-2.8,5.734" transform="translate(-159.542 -62.049)" fill="#263238"/>
        <path id="Caminho_356" data-name="Caminho 356" d="M195.5,66.36c-.04-1.392,1.247-2.471,2.546-2.979a18.914,18.914,0,0,0,3.88-1.484,17.477,17.477,0,0,0,2.581-2.645,8.586,8.586,0,0,1,14.435,3.938,5.636,5.636,0,0,1-1.409,5.653c-1.819,1.536-4.51,1.2-6.837.716s-4.96-.947-6.929.422a10.185,10.185,0,0,0-2.558,3.407,6.079,6.079,0,0,1-2.974,2.974c-1.357.468-3.193-.341-3.245-1.773" transform="translate(-152.054 -56.699)" fill="#263238"/>
        <path id="Caminho_357" data-name="Caminho 357" d="M203.868,71.6a2.31,2.31,0,0,0-2.079,2.367h0l1.392,31.509c.058,3.719,5.5,5.815,9.481,5.722h0c4.042-.1,4.152-2.067,4.2-5.612.081-5.913.075-8.13.075-8.084s5.087-.855,6.121-7.506c.52-3.3.341-8.707.052-13.124-.26-3.978-2.887-8.857-6.871-8.43Z" transform="translate(-154.927 -61.65)" fill="#ffbe9d"/>
        <path id="Caminho_358" data-name="Caminho 358" d="M235.3,89.056a.849.849,0,0,1-.814.86.808.808,0,0,1-.878-.762.855.855,0,0,1,.814-.866.814.814,0,0,1,.878.768Z" transform="translate(-168.374 -70.047)" fill="#263238"/>
        <path id="Caminho_359" data-name="Caminho 359" d="M234.227,87.279c-.1.115-.751-.364-1.669-.358s-1.582.462-1.68.352.058-.248.346-.462a2.344,2.344,0,0,1,1.351-.422,2.235,2.235,0,0,1,1.328.427C234.181,87.031,234.279,87.233,234.227,87.279Z" transform="translate(-167.208 -69.246)" fill="#263238"/>
        <path id="Caminho_360" data-name="Caminho 360" d="M219.518,89.436a.849.849,0,0,1-.82.86.814.814,0,0,1-.878-.768.855.855,0,0,1,.82-.86.814.814,0,0,1,.878.768Z" transform="translate(-161.702 -70.208)" fill="#263238"/>
        <path id="Caminho_361" data-name="Caminho 361" d="M218.642,87.609c-.1.115-.751-.364-1.669-.358s-1.582.462-1.686.352.058-.248.352-.462a2.344,2.344,0,0,1,1.351-.422,2.235,2.235,0,0,1,1.322.427C218.572,87.361,218.694,87.563,218.642,87.609Z" transform="translate(-160.618 -69.386)" fill="#263238"/>
        <path id="Caminho_362" data-name="Caminho 362" d="M226.572,94.417a5.74,5.74,0,0,1,1.484-.271c.237-.029.456-.075.5-.231a1.2,1.2,0,0,0-.162-.693l-.693-1.778a31.734,31.734,0,0,1-1.565-4.654,31.36,31.36,0,0,1,1.934,4.515c.231.624.456,1.218.67,1.79a1.385,1.385,0,0,1,.121.918.577.577,0,0,1-.387.341,1.466,1.466,0,0,1-.393.058,5.953,5.953,0,0,1-1.507.006Z" transform="translate(-165.211 -69.415)" fill="#263238"/>
        <path id="Caminho_363" data-name="Caminho 363" d="M221.5,117.044a16.866,16.866,0,0,1-8.886-2.344s2.165,4.55,8.805,3.915Z" transform="translate(-159.5 -81.21)" fill="#eb996e"/>
        <path id="Caminho_364" data-name="Caminho 364" d="M224.242,103.375a1.68,1.68,0,0,0-1.484-.612,1.519,1.519,0,0,0-1.039.577.964.964,0,0,0-.069,1.091,1.12,1.12,0,0,0,1.2.306,3.412,3.412,0,0,0,1.155-.7.988.988,0,0,0,.266-.271.306.306,0,0,0,0-.341" transform="translate(-163.262 -76.161)" fill="#eb996e"/>
        <path id="Caminho_365" data-name="Caminho 365" d="M222.124,101.11c.15,0,.156.987,1,1.692s1.911.577,1.923.728-.237.2-.687.208a2.448,2.448,0,0,1-1.6-.577,2.154,2.154,0,0,1-.78-1.415C221.951,101.352,222.06,101.1,222.124,101.11Z" transform="translate(-163.459 -75.467)" fill="#263238"/>
        <path id="Caminho_366" data-name="Caminho 366" d="M218.773,85c-.092.248-1,.133-2.079.26s-1.946.427-2.084.208c-.064-.11.087-.341.433-.577a3.661,3.661,0,0,1,3.17-.358C218.611,84.678,218.807,84.874,218.773,85Z" transform="translate(-160.339 -68.372)" fill="#263238"/>
        <path id="Caminho_367" data-name="Caminho 367" d="M233.827,82.669c-.162.208-.791,0-1.553,0s-1.4.144-1.547-.075c-.064-.1.035-.312.318-.508a2.177,2.177,0,0,1,1.259-.346,2.148,2.148,0,0,1,1.236.416C233.81,82.351,233.9,82.565,233.827,82.669Z" transform="translate(-167.148 -67.28)" fill="#263238"/>
        <path id="Caminho_368" data-name="Caminho 368" d="M197.37,92.386a5.9,5.9,0,0,0,7.01-6.513c-.208-1.628-1.086-3.285-.52-4.827.745-2.038,3.6-2.668,4.359-4.7.439-1.155.046-2.564.543-3.724A4.206,4.206,0,0,1,211.5,70.5a10.877,10.877,0,0,0,3.245-1.409,2.555,2.555,0,0,0,.918-3.124,62.591,62.591,0,0,0-14.493,3.522,5.57,5.57,0,0,0-2.858,1.848,5.968,5.968,0,0,0-.577,3.557l.831,17.865" transform="translate(-153.06 -60.617)" fill="#263238"/>
        <path id="Caminho_369" data-name="Caminho 369" d="M185.117,65.57a2.934,2.934,0,0,1-.375.427,4.62,4.62,0,0,1-1.363.883,8.448,8.448,0,0,1-2.5.577c-1,.121-2.148.1-3.4.127a10.15,10.15,0,0,0-3.955.8,4.227,4.227,0,0,0-1.681,1.473,10.809,10.809,0,0,0-.964,2.188,3.909,3.909,0,0,1-1.565,2.067,12.016,12.016,0,0,1-2.518.935,3.805,3.805,0,0,0-2.165,1.449,7.558,7.558,0,0,0-.97,2.593,13.436,13.436,0,0,1-.82,2.748,6.756,6.756,0,0,1-1.732,2.2,6.675,6.675,0,0,1-2.379,1.282,9.181,9.181,0,0,1-2.564.306,5.889,5.889,0,0,0-2.31.393,3.216,3.216,0,0,0-.9.635,4.3,4.3,0,0,0-.624.895c-.647,1.3-.855,2.7-1.432,3.846a5.774,5.774,0,0,1-2.39,2.419,6.086,6.086,0,0,1-2.46.733,5.7,5.7,0,0,1-1.623-.115c-.185-.046-.318-.1-.4-.121l-.139-.052a6.686,6.686,0,0,0,2.154.173,6.022,6.022,0,0,0,2.39-.768,5.543,5.543,0,0,0,2.275-2.367c.577-1.109.745-2.5,1.409-3.863a4.2,4.2,0,0,1,.658-.953,3.4,3.4,0,0,1,.976-.7,6.172,6.172,0,0,1,2.431-.427,9.325,9.325,0,0,0,2.489-.3,6.467,6.467,0,0,0,2.269-1.236,6.352,6.352,0,0,0,1.651-2.108,12.824,12.824,0,0,0,.8-2.685,7.841,7.841,0,0,1,1.016-2.7,3.464,3.464,0,0,1,1.039-.993,5.861,5.861,0,0,1,1.282-.577,11.583,11.583,0,0,0,2.46-.9,3.562,3.562,0,0,0,1.455-1.923,10.97,10.97,0,0,1,1.01-2.235,4.388,4.388,0,0,1,1.79-1.49,10.03,10.03,0,0,1,4.042-.791c1.265,0,2.39,0,3.384-.087a8.592,8.592,0,0,0,2.471-.543A5.324,5.324,0,0,0,185.117,65.57Z" transform="translate(-130.459 -60.448)" fill="#263238"/>
        <path id="Caminho_370" data-name="Caminho 370" d="M194.073,129.276c-7.951.751-13.252,3.638-17.293,7.547l5.324,15.9s4.908,9.366,4.573,16.023-3.568,9.412-6.207,18.4l36.677,5.37s-2.067-21.474-2.512-26.133,4.995-10.642,3.355-16.826c-3.643-13.731-9.088-18.477-9.088-18.477S200.956,128.167,194.073,129.276Z" transform="translate(-144.359 -87.263)" fill="#f1772e"/>
        <path id="Caminho_371" data-name="Caminho 371" d="M188.51,207.379a3.078,3.078,0,0,0,3.158.115,6.479,6.479,0,0,0,2.356-2.31,8.548,8.548,0,0,0,1.634-5.82,4.727,4.727,0,0,0-3.955-4.134s-.173,2.887-.358,3.817S188.51,207.379,188.51,207.379Z" transform="translate(-149.316 -115.241)" fill="#ffbe9d"/>
        <path id="Caminho_372" data-name="Caminho 372" d="M225.2,170a2.143,2.143,0,0,1-.092.577,10.054,10.054,0,0,1-.5,1.582,11.97,11.97,0,0,1-7.934,7.079,9.954,9.954,0,0,1-1.634.323,2.212,2.212,0,0,1-.606,0c0-.058.86-.133,2.177-.549a12.6,12.6,0,0,0,7.8-6.969C224.978,170.819,225.157,169.965,225.2,170Z" transform="translate(-160.273 -104.578)" fill="#263238"/>
        <path id="Caminho_373" data-name="Caminho 373" d="M228.111,198.7a3.1,3.1,0,0,1-.139.71,7.254,7.254,0,0,1-.225.814c-.1.318-.2.681-.358,1.068a21.631,21.631,0,0,1-1.207,2.673,21.942,21.942,0,0,1-4.394,5.659,20.943,20.943,0,0,1-2.31,1.83,15.144,15.144,0,0,1-1.68,1.034,3.338,3.338,0,0,1-.658.312c0-.052.883-.537,2.211-1.519a23.4,23.4,0,0,0,6.565-7.449,24.169,24.169,0,0,0,1.253-2.616C227.811,199.681,228.059,198.683,228.111,198.7Z" transform="translate(-161.414 -116.707)" fill="#263238"/>
        <g id="Grupo_39" data-name="Grupo 39" transform="translate(52.942 83.055)" opacity="0.3">
          <path id="Caminho_374" data-name="Caminho 374" d="M225.773,200.552c-1.368,2.194-3.464,4.579-6.051,5.387-1.109.352-2.275.468-3.412.728a5.936,5.936,0,0,0-3.072,1.536,2.581,2.581,0,0,0,2.113,4.515,6.265,6.265,0,0,0,2.927-1.155,18.314,18.314,0,0,0,7.506-11.023" transform="translate(-212.32 -200.54)"/>
        </g>
        <path id="Caminho_375" data-name="Caminho 375" d="M196.964,130.44a2.364,2.364,0,0,1,.185.335c.115.225.271.577.473,1,.4.872.959,2.142,1.559,3.753a40.6,40.6,0,0,1,1.7,5.774,28.812,28.812,0,0,1,.618,7.362,21.474,21.474,0,0,1-1.576,7.212,17.9,17.9,0,0,1-3.228,5.1,15.011,15.011,0,0,1-3.106,2.616c-.41.254-.739.433-.964.543a1.9,1.9,0,0,1-.352.156s.462-.26,1.253-.8a16.167,16.167,0,0,0,3.014-2.662,18.089,18.089,0,0,0,3.124-5.058,21.559,21.559,0,0,0,1.536-7.108,29.447,29.447,0,0,0-.577-7.287,43.507,43.507,0,0,0-1.628-5.774c-.577-1.611-1.1-2.887-1.461-3.776-.179-.416-.318-.756-.427-1.016A1.733,1.733,0,0,1,196.964,130.44Z" transform="translate(-150.904 -87.861)" fill="#fafafa"/>
        <path id="Caminho_376" data-name="Caminho 376" d="M199.3,130a2.478,2.478,0,0,1,.208.364c.127.243.312.577.543,1.074.45.935,1.086,2.31,1.767,4.042a39.946,39.946,0,0,1,1.888,6.271,28.293,28.293,0,0,1,.577,8,21.127,21.127,0,0,1-2.073,7.743,17.7,17.7,0,0,1-3.944,5.2,15.012,15.012,0,0,1-3.678,2.448,10.124,10.124,0,0,1-1.114.445,2.384,2.384,0,0,1-.4.121c0-.035.537-.208,1.467-.676a15.706,15.706,0,0,0,3.58-2.494,17.9,17.9,0,0,0,3.84-5.2,21.185,21.185,0,0,0,2.021-7.645,28.617,28.617,0,0,0-.537-7.922,42.3,42.3,0,0,0-1.813-6.253c-.652-1.732-1.259-3.118-1.68-4.071l-.485-1.091A1.731,1.731,0,0,1,199.3,130Z" transform="translate(-151.247 -87.675)" fill="#fafafa"/>
        <path id="Caminho_377" data-name="Caminho 377" d="M239.9,157.47a6.077,6.077,0,0,1-3.615.976,11.763,11.763,0,0,1,1.8-.491A11.918,11.918,0,0,1,239.9,157.47Z" transform="translate(-169.507 -99.284)" fill="#fafafa"/>
        <path id="Caminho_378" data-name="Caminho 378" d="M239.473,159.489a4.256,4.256,0,0,1-1.484.549,4.169,4.169,0,0,1-1.559.248,4.446,4.446,0,0,1,1.484-.543A4.272,4.272,0,0,1,239.473,159.489Z" transform="translate(-169.566 -100.137)" fill="#fafafa"/>
        <path id="Caminho_379" data-name="Caminho 379" d="M204.05,129.213s3.4,6.473,11.918,5.514c4.925-.577,1.929-4.862,1.929-4.862S213.3,127.181,204.05,129.213Z" transform="translate(-155.883 -87.022)" fill="#ffbe9d"/>
        <path id="Caminho_380" data-name="Caminho 380" d="M204.668,236.333l2.136,39.841a16.525,16.525,0,0,1-8.009,15.971L155.029,318.9l-7.6-10.012,40.089-30.955-4.042-44.345Z" transform="translate(-131.955 -131.452)" fill="#263238"/>
        <path id="Caminho_381" data-name="Caminho 381" d="M181.679,229.69l-1.086,2.379c-2.344,5.156-2.887,11.814-1.074,16.531s4.7,8.575,9.319,12.7h0l21.1,19.309a6.761,6.761,0,0,1,2.1,6.1l-7.2,44,13.921,1.929,11.918-44.6c1.311-5.572.866-8.742-1.934-13.737l-28.391-41.8Z" transform="translate(-145.06 -129.804)" fill="#263238"/>
        <path id="Caminho_382" data-name="Caminho 382" d="M246.631,279.063a2.507,2.507,0,0,1-.266-.341l-.716-1-2.581-3.713-8.43-12.31-8.349-12.362-2.506-3.765-.67-1.034a2.393,2.393,0,0,1-.214-.37,2.094,2.094,0,0,1,.266.341l.716,1,2.581,3.713,8.43,12.31,8.349,12.357c1.045,1.571,1.894,2.852,2.506,3.765.277.433.5.774.67,1.034a2.964,2.964,0,0,1,.214.375Z" transform="translate(-163.848 -135.923)" fill="#455a64"/>
        <path id="Caminho_383" data-name="Caminho 383" d="M216.48,325.752a2.384,2.384,0,0,1,0-.358c.029-.26.069-.577.115-1.034.115-.924.277-2.229.473-3.857.433-3.314,1.034-7.951,1.732-13.338v.046a7.922,7.922,0,0,0-1.732-3.493,30.31,30.31,0,0,0-2.956-3.026c-5.456-5.081-10.526-9.533-14.129-12.836-1.8-1.651-3.251-3-4.238-3.938l-1.155-1.091-.289-.294c-.069-.064-.1-.1-.092-.1s.04,0,.11.081l.312.271,1.155,1.051,4.307,3.863c3.632,3.262,8.73,7.691,14.187,12.778a29.84,29.84,0,0,1,2.991,3.06,8.205,8.205,0,0,1,1.773,3.626v.046c-.745,5.376-1.38,10.007-1.836,13.321-.237,1.628-.421,2.927-.577,3.851-.069.427-.121.768-.162,1.022a1.669,1.669,0,0,1,.012.352Z" transform="translate(-151.724 -152.09)" fill="#455a64"/>
        <path id="Caminho_384" data-name="Caminho 384" d="M220.287,317.721a3.6,3.6,0,0,1-.982-.756,9.285,9.285,0,0,1-2.668-5.283,3.372,3.372,0,0,1,0-1.241,14.978,14.978,0,0,0,1.2,3.967A15.181,15.181,0,0,0,220.287,317.721Z" transform="translate(-161.178 -163.928)" fill="#455a64"/>
        <path id="Caminho_385" data-name="Caminho 385" d="M226.77,247.921a3.788,3.788,0,0,1,.577-1.386,3.875,3.875,0,0,1,.843-1.236,3.742,3.742,0,0,1-.577,1.38,3.857,3.857,0,0,1-.843,1.241Z" transform="translate(-165.484 -136.4)" fill="#455a64"/>
        <path id="Caminho_386" data-name="Caminho 386" d="M190.427,71.254a8.517,8.517,0,0,0-2.887-5.329,5.248,5.248,0,0,0-4.619-1.334A4.042,4.042,0,0,0,180.1,67.94a4.619,4.619,0,0,0,1.732,4.088,5.37,5.37,0,0,0,4.383.982c1.426-.3,2.795-1.155,4.232-.907" transform="translate(-145.753 -59.976)" fill="#263238"/>
        <path id="Caminho_387" data-name="Caminho 387" d="M159.57,99.269a12.333,12.333,0,0,0,2.558-.693,10.613,10.613,0,0,0,5.278-4.683,9.084,9.084,0,0,0,.883-2.2c.225-.8.289-1.669.508-2.558a5.282,5.282,0,0,1,.5-1.311,3.1,3.1,0,0,1,1.01-1.057,9.649,9.649,0,0,1,2.829-.964,3.782,3.782,0,0,0,2.494-1.519,7.746,7.746,0,0,0,.722-3.066,10.021,10.021,0,0,1,.294-1.669,3.464,3.464,0,0,1,.86-1.519,7.867,7.867,0,0,1,3.17-1.461,5.029,5.029,0,0,0,1.5-.756,2.517,2.517,0,0,0,.855-1.351c.283-1.068.11-2.229.5-3.332a2.61,2.61,0,0,1,1.039-1.34,5.012,5.012,0,0,1,1.519-.629,8.753,8.753,0,0,0,2.887-1.022,5.272,5.272,0,0,0,1.646-2.31c.364-.878.647-1.773,1.028-2.6a7.8,7.8,0,0,1,.658-1.155,5.607,5.607,0,0,1,.878-.964,5.774,5.774,0,0,1,2.154-1.155,5.249,5.249,0,0,1,4.071.45,5.647,5.647,0,0,1,2.171,2.24,5.347,5.347,0,0,1,.577,1.888,2.952,2.952,0,0,1,0,.687,4.267,4.267,0,0,0-.081-.681,5.4,5.4,0,0,0-.635-1.836,5.612,5.612,0,0,0-2.148-2.154,5.1,5.1,0,0,0-3.932-.393,5.572,5.572,0,0,0-2.056,1.1,5.307,5.307,0,0,0-.831.924,7.252,7.252,0,0,0-.629,1.155c-.37.808-.641,1.732-1.01,2.6a5.439,5.439,0,0,1-1.732,2.442,8.5,8.5,0,0,1-2.945,1.08,4.85,4.85,0,0,0-1.438.577,2.31,2.31,0,0,0-.924,1.2c-.358,1-.191,2.16-.485,3.3a2.806,2.806,0,0,1-.941,1.513,5.128,5.128,0,0,1-1.594.808,7.711,7.711,0,0,0-3.06,1.392,4.775,4.775,0,0,0-1.068,3,7.386,7.386,0,0,1-.774,3.187,3.049,3.049,0,0,1-1.2,1.1,6.745,6.745,0,0,1-1.472.537,9.481,9.481,0,0,0-2.754.912,3.412,3.412,0,0,0-1.415,2.211c-.219.86-.289,1.732-.525,2.552a9.4,9.4,0,0,1-.918,2.246,10.641,10.641,0,0,1-2.7,3.141,10.035,10.035,0,0,1-2.725,1.542,8.963,8.963,0,0,1-1.911.514l-.508.052a.827.827,0,0,1-.179.012Z" transform="translate(-137.086 -57.984)" fill="#455a64"/>
        <path id="Caminho_388" data-name="Caminho 388" d="M182.82,73.84a.937.937,0,0,1-.381-.248,1.94,1.94,0,0,1-.525-1.155,2.31,2.31,0,0,1,.577-1.732,3.464,3.464,0,0,1,1.981-1.091,7,7,0,0,1,2.246,0,8.925,8.925,0,0,1,1.773.439,7.94,7.94,0,0,1,1.12.5c.248.144.381.237.37.254s-.577-.254-1.559-.577a10.029,10.029,0,0,0-1.732-.364,7.125,7.125,0,0,0-2.154.035,3.257,3.257,0,0,0-1.83.982,2.1,2.1,0,0,0-.577,1.553,1.986,1.986,0,0,0,.4,1.074A2.3,2.3,0,0,0,182.82,73.84Z" transform="translate(-146.525 -62.118)" fill="#455a64"/>
        <path id="Caminho_389" data-name="Caminho 389" d="M188.871,77.01a1.559,1.559,0,0,1-.04-.941,3.257,3.257,0,0,1,3.274-2.731,1.651,1.651,0,0,1,.918.208c0,.052-.358-.035-.912,0a3.534,3.534,0,0,0-1.963.774,3.493,3.493,0,0,0-1.109,1.79C188.906,76.652,188.906,77.01,188.871,77.01Z" transform="translate(-149.428 -63.729)" fill="#455a64"/>
        <path id="Caminho_390" data-name="Caminho 390" d="M172.356,131.27c-7.01,1.236-12.172,7.293-12.172,7.293h0a7.332,7.332,0,0,0-.774.86c-7,9.452-19.7,26.878-20.163,29.84-.8,5.006,14.077,31.053,14.077,31.053l8.153-2.645-8.084-26.122,12.836-17.917,3.464,8.713C182.974,154.944,172.356,131.27,172.356,131.27Z" transform="translate(-128.484 -88.212)" fill="#ffbe9d"/>
        <path id="Caminho_391" data-name="Caminho 391" d="M188.05,173.831l8.211-2.061s-.964,4.123-3.742,6.144l-2.4,1.062Z" transform="translate(-149.121 -105.327)" fill="#263238"/>
        <path id="Caminho_392" data-name="Caminho 392" d="M163.015,247.88l2.437,7.928,8.338-4.931.5-2.183a2.731,2.731,0,0,0-.912-2.7l-2.991-2.483-.8-.745s-7.749,1.663-7.91,1.732A25.036,25.036,0,0,0,163.015,247.88Z" transform="translate(-137.973 -135.331)" fill="#ffbe9d"/>
        <path id="Caminho_393" data-name="Caminho 393" d="M166.815,260.39a.808.808,0,0,1-.087-.167c-.352-.855-1.409-4.723-.982-5.023s1.877-.416,2.113.064,1.155,4.908,1.155,4.908.11.71-.993,1.207C167.363,261.683,166.815,260.39,166.815,260.39Z" transform="translate(-139.654 -140.473)" fill="#ffbe9d"/>
        <path id="Caminho_394" data-name="Caminho 394" d="M171.512,261.63a1.091,1.091,0,0,1-.092-.162c-.346-.86-1.4-4.729-.982-5.029s1.877-.416,2.113.064,1.184,4.908,1.184,4.908.1.71-.993,1.207C172.061,262.929,171.512,261.63,171.512,261.63Z" transform="translate(-141.637 -140.997)" fill="#ffbe9d"/>
        <path id="Caminho_395" data-name="Caminho 395" d="M175.772,261.7a1,1,0,0,1-.092-.167c-.346-.855-1.4-4.723-.982-5.023s1.882-.416,2.119.064,1.155,4.908,1.155,4.908.1.71-.993,1.207C176.321,262.993,175.772,261.7,175.772,261.7Z" transform="translate(-143.438 -141.027)" fill="#ffbe9d"/>
        <path id="Caminho_396" data-name="Caminho 396" d="M179.992,261.7a.808.808,0,0,1-.087-.167c-.352-.855-1.409-4.723-.987-5.023s1.882-.416,2.119.064,1.155,4.908,1.155,4.908.11.71-.993,1.207C180.541,262.993,179.992,261.7,179.992,261.7Z" transform="translate(-145.221 -141.027)" fill="#ffbe9d"/>
        <path id="Caminho_397" data-name="Caminho 397" d="M170.07,257.44a7.939,7.939,0,0,0,.364,1.929,7.738,7.738,0,0,0,.577,1.842,7.938,7.938,0,0,0-.364-1.929A7.436,7.436,0,0,0,170.07,257.44Z" transform="translate(-141.523 -141.53)" fill="#eb996e"/>
        <path id="Caminho_398" data-name="Caminho 398" d="M174,256.28a15.082,15.082,0,0,0,.577,2.731,15.251,15.251,0,0,0,.8,2.668,16.5,16.5,0,0,0-.577-2.731A15.454,15.454,0,0,0,174,256.28Z" transform="translate(-143.184 -141.04)" fill="#eb996e"/>
        <g id="Grupo_40" data-name="Grupo 40" transform="translate(33.178 114.766)" opacity="0.78">
          <path id="Caminho_399" data-name="Caminho 399" d="M178.09,255.46a16.38,16.38,0,0,0,.577,2.731,15.252,15.252,0,0,0,.8,2.668,15.082,15.082,0,0,0-.577-2.731,15.25,15.25,0,0,0-.8-2.668Z" transform="translate(-178.09 -255.46)" fill="#eb996e"/>
        </g>
        <path id="Caminho_400" data-name="Caminho 400" d="M182.735,257.8a13.137,13.137,0,0,1-.947-2.748c-.427-1.542-.843-2.766-.774-2.8a9.5,9.5,0,0,1,1.062,2.72,15.532,15.532,0,0,1,.658,2.829Z" transform="translate(-146.145 -139.337)" fill="#eb996e"/>
        <path id="Caminho_401" data-name="Caminho 401" d="M191.46,166.27a8.834,8.834,0,0,1-1.016,0,5.832,5.832,0,0,0-4.232,1.992,8.976,8.976,0,0,1-.641.791,2.194,2.194,0,0,1,.473-.924,5.254,5.254,0,0,1,4.406-2.073A2.206,2.206,0,0,1,191.46,166.27Z" transform="translate(-148.073 -102.911)" fill="#eb996e"/>
        <path id="Caminho_402" data-name="Caminho 402" d="M159.482,199.893a9.143,9.143,0,0,1-.768-.577,5.549,5.549,0,0,0-4.383-.912,8.213,8.213,0,0,1-.941.231,2.038,2.038,0,0,1,.889-.439,4.983,4.983,0,0,1,2.4-.092,4.867,4.867,0,0,1,2.16,1.045C159.314,199.541,159.516,199.876,159.482,199.893Z" transform="translate(-134.474 -116.411)" fill="#eb996e"/>
      </g>
      <g id="Treadmill" transform="translate(69.882 277.179)">
        <path id="Caminho_403" data-name="Caminho 403" d="M371.6,290.91s-6.837,25.666-7.547,44.691c-.814,21.7,7.322,47.474,7.322,47.474H334.75v11.392h50.731s-9.955-42.324-8.6-63.313a215.376,215.376,0,0,1,6.294-38.952Z" transform="translate(-167.625 -265.943)" fill="#263238"/>
        <path id="Caminho_404" data-name="Caminho 404" d="M364.856,290.91s-6.837,25.666-7.547,44.691c-.814,21.7,7.322,47.474,7.322,47.474H339.4A11.392,11.392,0,0,0,328,394.468h50.731s-9.949-42.3-8.58-63.313a215.376,215.376,0,0,1,6.294-38.952Z" transform="translate(-164.772 -265.943)" fill="#455a64"/>
        <path id="Caminho_405" data-name="Caminho 405" d="M269.43,286.058h0a2.633,2.633,0,0,0,2.633,2.633h27.011V283.2l-27.034.225A2.633,2.633,0,0,0,269.43,286.058Z" transform="translate(-140.021 -262.685)" fill="#455a64"/>
        <path id="Caminho_406" data-name="Caminho 406" d="M247.42,459.664H52.522a7.212,7.212,0,0,1-7.212-7.212h0a7.212,7.212,0,0,1,7.212-7.212h194.9a7.212,7.212,0,0,1,7.212,7.212h0a7.212,7.212,0,0,1-7.212,7.212Z" transform="translate(-45.31 -331.161)" fill="#455a64"/>
        <path id="Caminho_407" data-name="Caminho 407" d="M217.649,459.664H52.522a7.212,7.212,0,0,1-7.212-7.212h0a7.212,7.212,0,0,1,7.212-7.212H217.661a7.212,7.212,0,0,1,7.212,7.212h0a7.212,7.212,0,0,1-7.223,7.212Z" transform="translate(-45.31 -331.161)" fill="#263238"/>
        <path id="Caminho_408" data-name="Caminho 408" d="M290.154,290.91s-6.837,25.666-7.547,44.691c-.814,21.7,7.322,47.474,7.322,47.474H253.31v11.392h50.731s-9.96-42.324-8.6-63.313a215.054,215.054,0,0,1,6.288-38.952Z" transform="translate(-133.209 -265.943)" fill="#263238"/>
        <path id="Caminho_409" data-name="Caminho 409" d="M283.414,290.91s-6.837,25.666-7.547,44.691c-.814,21.7,7.327,47.474,7.327,47.474H257.962a11.392,11.392,0,0,0-11.392,11.392H297.3s-9.96-42.324-8.6-63.313a215.053,215.053,0,0,1,6.288-38.952Z" transform="translate(-130.361 -265.943)" fill="#455a64"/>
        <path id="Caminho_410" data-name="Caminho 410" d="M339.865,459.154c-.081,0-1.155-3.464-2.362-7.749s-2.148-7.812-2.067-7.835,1.155,3.464,2.356,7.755S339.946,459.131,339.865,459.154Z" transform="translate(-167.913 -330.456)" fill="#455a64"/>
        <path id="Caminho_411" data-name="Caminho 411" d="M386.024,456.15c0,.087-6.669.15-14.9.15s-14.9-.064-14.9-.15,6.669-.15,14.88-.15S386.024,456.069,386.024,456.15Z" transform="translate(-176.702 -335.709)" fill="#263238"/>
        <path id="Caminho_412" data-name="Caminho 412" d="M397.477,459.619c0-.029.294-.179.8-.543a7.467,7.467,0,0,0,1.807-1.882,8.084,8.084,0,0,0,.364-8.176,8.789,8.789,0,0,0-1.519-1.911,5.422,5.422,0,0,0-1.992-1.045,18.044,18.044,0,0,0-3.84-.67c-1.114-.087-2.021-.116-2.645-.139a6.587,6.587,0,0,1-.976-.058,5.046,5.046,0,0,1,.976-.058c.629,0,1.536,0,2.662.04a17.2,17.2,0,0,1,3.909.618,5.693,5.693,0,0,1,2.1,1.091,9.042,9.042,0,0,1,1.582,1.975,7.021,7.021,0,0,1,.86,2.385,9.814,9.814,0,0,1,.058,2.356,7.662,7.662,0,0,1-1.363,3.713,7.2,7.2,0,0,1-1.917,1.859c-.271.162-.485.283-.635.352S397.483,459.63,397.477,459.619Z" transform="translate(-190.753 -331.117)" fill="#263238"/>
        <path id="Caminho_413" data-name="Caminho 413" d="M290.085,220.991,288.22,226.2l11.092-.456,47.041,1.316,31.405-19.742-1.426-5.179-54.692-2.6Z" transform="translate(-134.687 -199.482)" fill="#455a64"/>
        <path id="Caminho_414" data-name="Caminho 414" d="M357.734,232.461l-50.3-2.408,26.861-20.313,51.586,1.888Z" transform="translate(-142.805 -203.793)" fill="#263238"/>
        <path id="Caminho_415" data-name="Caminho 415" d="M314.929,282.15a4.983,4.983,0,0,1-.866.78,17.8,17.8,0,0,0-2.067,1.9,8.921,8.921,0,0,0-1.5,2.31,9.106,9.106,0,0,1-.445,1.086,3.078,3.078,0,0,1,.248-1.155,7.506,7.506,0,0,1,1.472-2.46,12.621,12.621,0,0,1,2.159-1.865A4.494,4.494,0,0,1,314.929,282.15Z" transform="translate(-157.187 -262.241)" fill="#263238"/>
        <path id="Caminho_416" data-name="Caminho 416" d="M373.646,253.635a45.925,45.925,0,0,1-4.486-5.965,23.579,23.579,0,0,1,2.367,2.887A23.067,23.067,0,0,1,373.646,253.635Z" transform="translate(-182.166 -247.67)" fill="#263238"/>
        <path id="Caminho_417" data-name="Caminho 417" d="M323.37,293.149a13.553,13.553,0,0,1-1.957,0l-4.723-.11c-1.842-.052-3.511-.121-4.723-.2a11.972,11.972,0,0,1-1.946-.191,12.943,12.943,0,0,1,1.957,0l4.723.11c1.842.052,3.511.121,4.723.2A11.494,11.494,0,0,1,323.37,293.149Z" transform="translate(-157.174 -266.664)" fill="#263238"/>
      </g>
      <g id="Plant" transform="translate(289.315 370.815)">
        <path id="Caminho_418" data-name="Caminho 418" d="M448.376,424.043c.964,1.368,2.829.918,3.7.081a7.01,7.01,0,0,0,1.565-3.21c.756-2.645,1.524-5.416.958-8.084a4.515,4.515,0,0,0-1.034-2.206,2.35,2.35,0,0,0-2.229-.739,3.4,3.4,0,0,0-1.952,2.044,19.366,19.366,0,0,0-1.911,8.3,6.767,6.767,0,0,0,.906,3.84" transform="translate(-434.687 -409.836)" fill="#e8505b"/>
        <g id="Grupo_41" data-name="Grupo 41" transform="translate(12.769)" opacity="0.2">
          <path id="Caminho_419" data-name="Caminho 419" d="M448.376,424.043c.964,1.368,2.829.918,3.7.081a7.01,7.01,0,0,0,1.565-3.21c.756-2.645,1.524-5.416.958-8.084a4.515,4.515,0,0,0-1.034-2.206,2.35,2.35,0,0,0-2.229-.739,3.4,3.4,0,0,0-1.952,2.044,19.366,19.366,0,0,0-1.911,8.3,6.767,6.767,0,0,0,.906,3.84" transform="translate(-447.456 -409.836)" fill="#8bbe00"/>
        </g>
        <path id="Caminho_420" data-name="Caminho 420" d="M453.921,445.882a8.344,8.344,0,0,1,5.2-.624,4.272,4.272,0,0,1,2.546,1.155,1.836,1.836,0,0,1,.029,2.546,2.437,2.437,0,0,1-1.611.4c-1.363,0-2.887-.254-3.967.577-.624.468-1.039,1.247-1.778,1.478a1.732,1.732,0,0,1-1.934-.86,3,3,0,0,1-.219-2.217A3.4,3.4,0,0,1,453.921,445.882Z" transform="translate(-436.635 -424.736)" fill="#be522b"/>
        <path id="Caminho_421" data-name="Caminho 421" d="M436.4,429.206a4.983,4.983,0,0,0,.774-4.59,8.84,8.84,0,0,0-2.72-3.944,14.58,14.58,0,0,0-4.867-2.887,5.2,5.2,0,0,0-2.194-.37,2.31,2.31,0,0,0-1.836,1.109c-.514.982,0,2.165.514,3.135a36.647,36.647,0,0,0,3.2,4.868,8.67,8.67,0,0,0,3.516,3.014c1.461.56,2.979.5,3.753-.52" transform="translate(-425.341 -413.037)" fill="#be522b"/>
        <path id="Caminho_422" data-name="Caminho 422" d="M448.924,461.032a3.111,3.111,0,0,0,.087-.624c.046-.45.1-1.022.167-1.7a23.955,23.955,0,0,1,.381-2.494,19.046,19.046,0,0,1,.907-2.945,11.072,11.072,0,0,1,1.5-2.662,5.625,5.625,0,0,1,1.905-1.582,5.236,5.236,0,0,1,1.6-.5,2.8,2.8,0,0,0,.618-.092,3.3,3.3,0,0,0-.629,0,4.891,4.891,0,0,0-1.669.439,5.5,5.5,0,0,0-2,1.611,10.637,10.637,0,0,0-1.559,2.714,18.169,18.169,0,0,0-.9,3,20.923,20.923,0,0,0-.335,2.523c-.052.722-.069,1.3-.081,1.732A2.813,2.813,0,0,0,448.924,461.032Z" transform="translate(-435.298 -426.143)" fill="#263238"/>
        <path id="Caminho_423" data-name="Caminho 423" d="M449.039,447.424a.958.958,0,0,0,0-.289V446.3c0-.716,0-1.732.035-3.037.064-2.564.289-6.1.71-9.995s1-7.391,1.519-9.9q.191-.953.364-1.7c.11-.5.208-.924.3-1.27s.139-.577.191-.8a1.629,1.629,0,0,0,.052-.289,1.05,1.05,0,0,0-.1.271l-.237.8c-.11.341-.219.768-.341,1.265s-.266,1.057-.4,1.686a94.4,94.4,0,0,0-1.594,9.914c-.427,3.9-.618,7.449-.635,10.024,0,1.282,0,2.31.046,3.043,0,.335.035.606.046.826a1.912,1.912,0,0,0,.046.289Z" transform="translate(-435.297 -413.84)" fill="#263238"/>
        <path id="Caminho_424" data-name="Caminho 424" d="M442.472,442.1a4.537,4.537,0,0,0,0-.866,22.884,22.884,0,0,0-.26-2.339,31.234,31.234,0,0,0-.762-3.412,30.075,30.075,0,0,0-1.426-4.042,21.5,21.5,0,0,0-4.186-6.519,9.913,9.913,0,0,0-.987-.918c-.15-.127-.283-.254-.422-.358l-.381-.26a5.774,5.774,0,0,0-.728-.468,25.68,25.68,0,0,1,2.385,2.125,22.757,22.757,0,0,1,4.082,6.5,31.531,31.531,0,0,1,1.432,4.013c.375,1.253.624,2.4.814,3.372s.277,1.767.341,2.31a6,6,0,0,0,.1.866Z" transform="translate(-428.713 -415.365)" fill="#263238"/>
      </g>
      <g id="Icon_Heart_Rhythm" data-name="Icon Heart Rhythm" transform="translate(211.745 182.281)">
        <path id="Caminho_425" data-name="Caminho 425" d="M386.685,116.644c-.71-3.13-3.684-5.82-6.883-5.5a7.033,7.033,0,0,0-4.735,2.887,12.427,12.427,0,0,0-1.109,1.617,13.169,13.169,0,0,0-1.114-1.617,7.033,7.033,0,0,0-4.735-2.887c-3.2-.318-6.173,2.373-6.883,5.5s.468,6.455,2.4,9.019a18.067,18.067,0,0,0,10.59,7.1c3.586-.826,8.13-4.533,10.064-7.1S387.4,119.779,386.685,116.644Z" transform="translate(-320.589 -95.065)" fill="#f1772e"/>
        <path id="Caminho_426" data-name="Caminho 426" d="M386.673,126.976a1.975,1.975,0,0,1-.416.035l-1.2.029-4.383.046.1-.075c-.387,1.42-.837,3.083-1.334,4.9l-.115.422-.144-.416c-.785-2.235-1.657-4.741-2.581-7.379l-.831-2.408h.271l-2.887,4.885-.035.1h-.075l-7.714-.058-2.188-.035h0l2.188-.035,7.714-.058-.121.069,2.847-4.9.162-.283.11.306c.271.785.549,1.588.837,2.408.912,2.639,1.773,5.15,2.546,7.391h-.26c.514-1.813.987-3.464,1.386-4.891v-.081h.087l4.383.046h1.2A3.384,3.384,0,0,1,386.673,126.976Z" transform="translate(-321.16 -99.589)" fill="#1d3c40"/>
        <path id="Caminho_427" data-name="Caminho 427" d="M365.464,161.714c0,.849-.756,1.38-1.905,1.38s-1.888-.531-1.888-1.38a1.155,1.155,0,0,1,.681-1.062,1.039,1.039,0,0,1-.52-.924c0-.791.7-1.288,1.732-1.288s1.732.5,1.732,1.288a1.045,1.045,0,0,1-.525.924A1.155,1.155,0,0,1,365.464,161.714Zm-1.057-.035c0-.4-.323-.641-.849-.641s-.831.243-.831.641.318.652.831.652S364.407,162.078,364.407,161.679Zm-1.542-1.911c0,.341.271.577.693.577s.71-.214.71-.577-.283-.577-.71-.577S362.865,159.416,362.865,159.768Z" transform="translate(-320.865 -115.064)" fill="#e0e0e0"/>
        <path id="Caminho_428" data-name="Caminho 428" d="M369.06,160.78c0-1.484.826-2.31,1.929-2.31s1.929.843,1.929,2.31-.814,2.31-1.929,2.31S369.06,162.24,369.06,160.78Zm2.812,0c0-1.022-.364-1.449-.883-1.449s-.872.427-.872,1.449.358,1.449.872,1.449S371.872,161.8,371.872,160.78Z" transform="translate(-323.988 -115.076)" fill="#e0e0e0"/>
        <path id="Caminho_429" data-name="Caminho 429" d="M383.63,161.183a1.64,1.64,0,0,1-1.686,1.732,1.461,1.461,0,0,1-1.3-.7v.67H380.2V158.1h.462v2.032a1.5,1.5,0,0,1,1.288-.67,1.64,1.64,0,0,1,1.68,1.721Zm-.456,0a1.265,1.265,0,1,0-1.259,1.316,1.241,1.241,0,0,0,1.259-1.316Z" transform="translate(-328.695 -114.92)" fill="#e0e0e0"/>
        <path id="Caminho_430" data-name="Caminho 430" d="M391.18,162.2a1.64,1.64,0,0,1-1.686,1.732,1.484,1.484,0,0,1-1.288-.664v1.882h-.456v-4.619h.439v.67a1.478,1.478,0,0,1,1.3-.7,1.64,1.64,0,0,1,1.686,1.7Zm-.456,0a1.265,1.265,0,1,0-1.265,1.316,1.247,1.247,0,0,0,1.265-1.316Z" transform="translate(-331.886 -115.934)" fill="#e0e0e0"/>
        <path id="Caminho_431" data-name="Caminho 431" d="M400.88,161.934V163.9h-.456V161.98c0-.716-.364-1.08-.976-1.08a1.086,1.086,0,0,0-1.155,1.218V163.9h-.456V161.98c0-.716-.358-1.08-.976-1.08a1.091,1.091,0,0,0-1.155,1.218V163.9h-.456v-3.384h.439v.618a1.369,1.369,0,0,1,1.236-.647,1.23,1.23,0,0,1,1.207.716,1.472,1.472,0,0,1,1.34-.716,1.282,1.282,0,0,1,1.409,1.449Z" transform="translate(-335.055 -115.925)" fill="#e0e0e0"/>
      </g>
    </g>
  </g>
</svg>
